<svg width="11" height="19" viewBox="0 0 11 19" fill="none" xmlns="http://www.w3.org/2000/svg">
<path d="M3.9375 11.7744C4.28906 11.8447 4.67578 11.8799 5.0625 11.8799C5.41406 11.8799 5.80078 11.8447 6.1875 11.7744V17.2939L5.37891 18.4541C5.23828 18.7002 4.85156 18.7002 4.71094 18.4541L3.9375 17.2939V11.7744ZM5.0625 0.629883C7.83984 0.629883 10.125 2.91504 10.125 5.69238C10.125 8.50488 7.83984 10.7549 5.0625 10.7549C2.25 10.7549 0 8.50488 0 5.69238C0 2.91504 2.25 0.629883 5.0625 0.629883ZM5.0625 3.30176C5.27344 3.30176 5.48438 3.12598 5.48438 2.87988C5.48438 2.66895 5.27344 2.45801 5.0625 2.45801C3.26953 2.45801 1.82812 3.93457 1.82812 5.69238C1.82812 5.93848 2.00391 6.11426 2.25 6.11426C2.46094 6.11426 2.67188 5.93848 2.67188 5.69238C2.67188 4.3916 3.72656 3.30176 5.0625 3.30176Z" fill="#EF5730"/>
</svg>
