<svg width="18" height="15" viewBox="0 0 18 15" fill="none" xmlns="http://www.w3.org/2000/svg">
<path d="M17.6484 5.15479C17.7891 5.04932 18 5.15479 18 5.33057V12.5024C18 13.4517 17.2266 14.1899 16.3125 14.1899H1.6875C0.738281 14.1899 0 13.4517 0 12.5024V5.33057C0 5.15479 0.175781 5.04932 0.316406 5.15479C1.125 5.7876 2.14453 6.56104 5.73047 9.1626C6.46875 9.68994 7.73438 10.8501 9 10.8501C10.2305 10.8501 11.5312 9.68994 12.2344 9.1626C15.8203 6.56104 16.8398 5.7876 17.6484 5.15479ZM9 9.68994C8.15625 9.7251 6.99609 8.67041 6.39844 8.24854C1.72266 4.87354 1.37109 4.55713 0.316406 3.71338C0.105469 3.57275 0 3.32666 0 3.04541V2.37744C0 1.46338 0.738281 0.689941 1.6875 0.689941H16.3125C17.2266 0.689941 18 1.46338 18 2.37744V3.04541C18 3.32666 17.8594 3.57275 17.6484 3.71338C16.5938 4.55713 16.2422 4.87354 11.5664 8.24854C10.9688 8.67041 9.80859 9.7251 9 9.68994Z" fill="#EF5730"/>
</svg>
