<svg width="1918" height="799" viewBox="0 0 1918 799" fill="none" xmlns="http://www.w3.org/2000/svg">
<mask id="path-1-outside-1_4017_54405" maskUnits="userSpaceOnUse" x="-429" y="-420" width="918" height="1014" fill="black">
<rect fill="white" x="-429" y="-420" width="918" height="1014"/>
<path d="M-154.208 362.931L-233.478 442.303L-230.231 445.549L-149.668 364.883L-147.798 306.263L-47.3453 205.667L-47.3864 152.718C-44.14 152.389 -41.1197 150.951 -38.7773 148.609C-36.0857 145.917 -34.6064 142.322 -34.6064 138.52C-34.6064 134.699 -36.1063 131.124 -38.7979 128.432C-41.4895 125.74 -45.0646 124.261 -48.8863 124.261C-52.708 124.261 -56.2831 125.74 -58.9953 128.453C-64.5634 134.021 -64.5428 143.082 -58.9953 148.629C-57.0433 150.581 -54.6394 151.876 -52.0094 152.451L-51.9683 203.756L-152.359 304.291L-154.229 362.911L-154.208 362.931ZM-55.7283 145.404C-59.5089 141.623 -59.5089 135.479 -55.7283 131.699C-53.8997 129.87 -51.4546 128.863 -48.8658 128.863C-46.2769 128.863 -43.8523 129.87 -42.0237 131.699C-40.195 133.528 -39.1883 135.952 -39.1883 138.541C-39.1883 141.13 -40.195 143.554 -42.0237 145.404C-43.8523 147.232 -46.2769 148.239 -48.8863 148.239C-51.4957 148.239 -53.8997 147.232 -55.7283 145.404ZM-189.179 281.196L-88.7263 180.6L-88.7674 126.583L-8.57373 46.2864C-6.47797 47.437 -4.13568 48.074 -1.67007 48.074C2.15161 48.074 5.72675 46.5946 8.41837 43.8825C13.9865 38.3143 13.966 29.2532 8.41837 23.7056C5.72675 21.014 2.15161 19.5347 -1.67007 19.5347C-5.49176 19.5347 -9.06686 21.014 -11.779 23.7262C-14.4706 26.4178 -15.95 30.0135 -15.95 33.8146C-15.95 37.4102 -14.6144 40.8005 -12.1899 43.4305L-93.3493 124.692L-93.3082 178.71L-193.72 279.224L-195.589 337.823L-274.859 417.195L-271.612 420.441L-191.049 339.796L-189.179 281.196ZM-8.51208 26.952C-6.68344 25.1234 -4.23837 24.1165 -1.64951 24.1165C0.939392 24.1165 3.36386 25.1234 5.1925 26.952C8.97308 30.7326 8.97308 36.876 5.1925 40.6566C3.36386 42.4853 0.939392 43.4921 -1.64951 43.4921C-4.23837 43.4921 -6.6629 42.4853 -8.49155 40.6566C-10.3202 38.828 -11.327 36.4035 -11.327 33.8146C-11.327 31.2257 -10.3202 28.8012 -8.49155 26.9725L-8.51208 26.952ZM-5.55334 196.893L-103.582 295.045C-101.835 298.209 -102.267 302.236 -104.938 304.928C-108.184 308.174 -113.444 308.174 -116.69 304.928C-119.937 301.681 -119.937 296.422 -116.69 293.175C-114.019 290.504 -109.972 290.052 -106.807 291.799L-8.1012 192.948L37.3892 175.587C37.3481 173.409 38.1494 171.231 39.8137 169.566C43.06 166.32 48.32 166.32 51.5663 169.566C54.8127 172.813 54.8127 178.073 51.5663 181.319C48.32 184.565 43.06 184.565 39.8137 181.319C39.4027 180.908 39.0329 180.456 38.7247 179.984L-5.55334 196.893ZM271.19 190.668C267.368 190.668 263.793 192.147 261.101 194.859C259.745 196.215 258.697 197.798 257.999 199.503L206.879 187.853L91.9405 302.935L45.0736 291.305L-249.34 584.63L-246.114 587.876L46.4503 296.401L93.3376 308.03L208.317 192.907L256.951 203.982C256.93 204.311 256.91 204.619 256.91 204.948C256.91 208.749 258.389 212.345 261.101 215.036C263.793 217.728 267.389 219.207 271.19 219.207C274.991 219.207 278.586 217.728 281.278 215.016C283.97 212.324 285.449 208.728 285.449 204.927C285.449 201.106 283.97 197.53 281.258 194.839C278.566 192.147 274.991 190.668 271.169 190.668H271.19ZM278.052 211.79C276.224 213.618 273.779 214.625 271.19 214.625C268.601 214.625 266.176 213.618 264.348 211.79C262.519 209.961 261.512 207.537 261.512 204.948C261.512 202.359 262.519 199.934 264.348 198.106C266.176 196.277 268.601 195.27 271.19 195.27C273.779 195.27 276.203 196.277 278.032 198.106C279.86 199.934 280.867 202.359 280.867 204.948C280.867 207.537 279.86 209.961 278.032 211.79H278.052ZM164.676 274.149C167.922 277.395 167.922 282.655 164.676 285.902C162.005 288.593 157.957 289.025 154.793 287.278L96.769 345.384L45.8749 335.049L-14.861 395.867C-13.1146 399.032 -13.546 403.059 -16.2171 405.75C-19.4634 408.997 -24.7234 408.997 -27.9698 405.75C-31.2162 402.504 -31.2162 397.244 -27.9698 393.998C-25.2987 391.327 -21.251 390.875 -18.1074 392.621L44.375 330.056L95.269 340.391L151.546 284.032C149.8 280.868 150.232 276.841 152.903 274.149C156.149 270.903 161.409 270.903 164.655 274.149H164.676ZM-14.3268 -53.2622C-16.7719 -55.0703 -19.7101 -56.0771 -22.7921 -56.0771C-26.6137 -56.0771 -30.1888 -54.5977 -32.901 -51.8856C-35.5926 -49.194 -37.072 -45.5983 -37.072 -41.7971C-37.072 -37.9755 -35.5926 -34.4004 -32.8805 -31.7087C-30.1888 -29.0171 -26.6137 -27.5378 -22.7921 -27.5378C-18.9704 -27.5378 -15.3952 -29.0171 -12.7036 -31.7293C-10.012 -34.4209 -8.53265 -38.0165 -8.53265 -41.8177C-8.53265 -44.7969 -9.45728 -47.6118 -11.1216 -49.9953L21.9586 -83.0754L18.7122 -106.848L191.695 -279.83L188.448 -283.077L13.8632 -108.471L17.1096 -84.6986L-14.3268 -53.2622ZM-15.95 -34.9551C-17.7787 -33.1264 -20.2237 -32.1197 -22.8126 -32.1197C-25.4015 -32.1197 -27.826 -33.1264 -29.6546 -34.9551C-31.4833 -36.7838 -32.4901 -39.2083 -32.4901 -41.7971C-32.4901 -44.386 -31.4833 -46.8105 -29.6546 -48.6392C-27.826 -50.4678 -25.3809 -51.4746 -22.7921 -51.4746C-20.2032 -51.4746 -17.7787 -50.4678 -15.95 -48.6392C-14.1213 -46.8105 -13.1146 -44.386 -13.1146 -41.7971C-13.1146 -39.2083 -14.1213 -36.7838 -15.95 -34.9346V-34.9551ZM482.779 -276.173L479.533 -279.419L423.893 -223.779V-200.808L341.5 -118.416V-97.3348L308.934 -64.7683L288.942 -67.4599L157.279 64.2031C154.978 62.6826 152.266 61.8608 149.43 61.8608C145.608 61.8608 142.033 63.3401 139.321 66.0523C136.63 68.7439 135.15 72.3396 135.15 76.1407C135.15 79.9624 136.63 83.5375 139.342 86.2291C142.033 88.9207 145.629 90.4001 149.43 90.4001C153.231 90.4001 156.827 88.9207 159.519 86.2086C162.21 83.517 163.69 79.9214 163.69 76.1202C163.69 72.8944 162.601 69.8329 160.649 67.3262L290.586 -62.6109L310.578 -59.9193L346.082 -95.424V-116.505L428.474 -198.897V-221.868L482.779 -276.173ZM156.272 82.9622C154.443 84.7909 151.998 85.7977 149.41 85.7977C146.821 85.7977 144.396 84.7909 142.568 82.9622C140.739 81.1336 139.732 78.7091 139.732 76.1202C139.732 73.5313 140.739 71.1068 142.568 69.2781C144.396 67.4495 146.841 66.4427 149.43 66.4427C152.019 66.4427 154.443 67.4495 156.272 69.2781C158.101 71.1068 159.108 73.5313 159.108 76.1202C159.108 78.7091 158.101 81.1336 156.272 82.9622ZM142.67 149.985L139.157 186.456L119.185 206.427L80.0235 212.632L53.4772 239.178C51.1349 237.576 48.3611 236.713 45.464 236.713C41.6423 236.713 38.0672 238.192 35.355 240.904C32.6634 243.596 31.1841 247.192 31.1841 250.993C31.1841 254.815 32.6634 258.39 35.3756 261.081C38.0672 263.773 41.6629 265.252 45.464 265.252C49.2651 265.252 52.8608 263.773 55.573 261.061C58.2646 258.369 59.744 254.773 59.744 250.972C59.744 247.808 58.696 244.808 56.8058 242.322L82.222 216.906L121.384 210.701L143.574 188.531L147.088 152.061L395.045 -95.8965L391.799 -99.1429L142.67 149.985ZM52.3266 257.835C50.4979 259.664 48.0529 260.67 45.464 260.67C42.8751 260.67 40.4506 259.664 38.622 257.835C36.7933 256.006 35.7865 253.582 35.7865 250.993C35.7865 248.404 36.7933 245.979 38.622 244.151C40.4506 242.322 42.8957 241.315 45.4846 241.315C47.5803 241.315 49.5528 241.993 51.1965 243.226L53.2717 245.301C54.484 246.945 55.162 248.918 55.162 250.993C55.162 253.582 54.1552 256.006 52.3266 257.855V257.835ZM266.793 -186.877L192.496 -112.58L195.742 -88.8079L163.546 -56.6113C165.313 -53.4471 164.902 -49.3789 162.21 -46.6873C158.964 -43.4409 153.704 -43.4409 150.457 -46.6873C147.211 -49.9336 147.211 -55.1936 150.457 -58.4399C153.129 -61.111 157.135 -61.563 160.279 -59.8371L190.893 -90.4517L187.647 -114.224L263.546 -190.124L266.793 -186.877ZM144.889 -145.866L227.281 -228.258H248.362L280.929 -260.825L278.237 -280.817L411.421 -414L414.667 -410.754L283.086 -279.173L285.778 -259.181L250.273 -223.676H229.192L146.8 -141.284H123.829L72.0103 -89.4654C73.6129 -86.3423 73.1404 -82.4385 70.5309 -79.8085C67.2846 -76.5621 62.0246 -76.5621 58.7783 -79.8085C55.5319 -83.0549 55.5319 -88.3148 58.7783 -91.5612C61.511 -94.3144 65.6819 -94.7048 68.8666 -92.8145L121.939 -145.887H144.91L144.889 -145.866ZM-289.262 212.242L-286.57 232.234L-419.754 365.417L-423 362.171L-291.419 230.59L-294.111 210.598L-258.606 175.073H-237.525L-155.113 92.7014H-132.141L-80.3227 40.8826C-81.9254 37.7596 -81.4528 33.8557 -78.8434 31.2257C-75.597 27.9793 -70.337 27.9793 -67.0906 31.2257C-63.8443 34.4721 -63.8443 39.7321 -67.0906 42.9784C-69.8233 45.7317 -73.9943 46.122 -77.1791 44.2317L-130.251 97.3038H-153.222L-235.614 179.696H-256.695L-289.262 212.262V212.242ZM-109.643 -52.3376L-106.129 -88.8079L-86.158 -108.779L-46.9754 -114.984L-20.4292 -141.531C-18.0869 -139.928 -15.313 -139.065 -12.416 -139.065C-8.59427 -139.065 -5.01917 -140.544 -2.30701 -143.257C0.384613 -145.948 1.86395 -149.544 1.86395 -153.345C1.86395 -157.167 0.384613 -160.742 -2.32755 -163.433C-5.01917 -166.125 -8.59427 -167.604 -12.416 -167.604C-16.2376 -167.604 -19.8128 -166.125 -22.5249 -163.413C-25.2166 -160.721 -26.6959 -157.126 -26.6959 -153.324C-26.6959 -150.16 -25.648 -147.16 -23.7578 -144.674L-49.174 -119.258L-88.3359 -113.053L-110.526 -90.8626L-114.04 -54.3922L-361.997 193.565L-358.751 196.811L-109.643 -52.3376ZM-19.2785 -160.187C-17.4499 -162.016 -15.0048 -163.022 -12.416 -163.022C-9.82706 -163.022 -7.40256 -162.016 -5.57391 -160.187C-3.74527 -158.358 -2.73846 -155.934 -2.73846 -153.345C-2.73846 -150.756 -3.74527 -148.332 -5.57391 -146.482C-7.40256 -144.654 -9.8476 -143.647 -12.4365 -143.647C-14.5323 -143.647 -16.5047 -144.325 -18.1485 -145.558L-20.2237 -147.633C-21.4359 -149.277 -22.114 -151.249 -22.114 -153.345C-22.114 -155.934 -21.1072 -158.358 -19.2785 -160.187ZM81.996 104.865C81.996 80.8459 62.4561 61.306 38.437 61.306C14.418 61.306 -5.12189 80.8459 -5.12189 104.865C-5.12189 128.884 14.418 148.424 38.437 148.424C62.4561 148.424 81.996 128.884 81.996 104.865ZM38.437 143.842C16.9452 143.842 -0.540009 126.357 -0.540009 104.865C-0.540009 83.3731 16.9452 65.8879 38.437 65.8879C59.9289 65.8879 77.4141 83.3731 77.4141 104.865C77.4141 126.357 59.9289 143.842 38.437 143.842ZM38.437 73.3464C21.0546 73.3464 6.91846 87.4825 6.91846 104.865C6.91846 122.247 21.0546 136.383 38.437 136.383C55.8195 136.383 69.9557 122.247 69.9557 104.865C69.9557 87.4825 55.8195 73.3464 38.437 73.3464ZM38.437 131.802C23.5818 131.802 11.5004 119.72 11.5004 104.865C11.5004 90.0097 23.5818 77.9283 38.437 77.9283C53.2923 77.9283 65.3737 90.0097 65.3737 104.865C65.3737 119.72 53.2923 131.802 38.437 131.802ZM53.2512 104.865C53.2512 113.043 46.6146 119.679 38.437 119.679C30.2595 119.679 23.6229 113.043 23.6229 104.865C23.6229 96.6874 30.2595 90.0508 38.437 90.0508C46.6146 90.0508 53.2512 96.6874 53.2512 104.865ZM93.1528 44.6837H76.5305V28.0615H93.1528V44.6837ZM93.1528 16.9869H76.5305V0.364624H93.1528V16.9869ZM93.1528 -10.7101H76.5305V-27.3323H93.1528V-10.7101ZM93.1528 -38.407H76.5305V-55.0292H93.1528V-38.407ZM46.7379 28.0615H63.3601V44.6837H46.7379V28.0615ZM63.3601 16.9869H46.7379V0.364624H63.3601V16.9869Z"/>
</mask>
<path d="M-154.208 362.931L-233.478 442.303L-230.231 445.549L-149.668 364.883L-147.798 306.263L-47.3453 205.667L-47.3864 152.718C-44.14 152.389 -41.1197 150.951 -38.7773 148.609C-36.0857 145.917 -34.6064 142.322 -34.6064 138.52C-34.6064 134.699 -36.1063 131.124 -38.7979 128.432C-41.4895 125.74 -45.0646 124.261 -48.8863 124.261C-52.708 124.261 -56.2831 125.74 -58.9953 128.453C-64.5634 134.021 -64.5428 143.082 -58.9953 148.629C-57.0433 150.581 -54.6394 151.876 -52.0094 152.451L-51.9683 203.756L-152.359 304.291L-154.229 362.911L-154.208 362.931ZM-55.7283 145.404C-59.5089 141.623 -59.5089 135.479 -55.7283 131.699C-53.8997 129.87 -51.4546 128.863 -48.8658 128.863C-46.2769 128.863 -43.8523 129.87 -42.0237 131.699C-40.195 133.528 -39.1883 135.952 -39.1883 138.541C-39.1883 141.13 -40.195 143.554 -42.0237 145.404C-43.8523 147.232 -46.2769 148.239 -48.8863 148.239C-51.4957 148.239 -53.8997 147.232 -55.7283 145.404ZM-189.179 281.196L-88.7263 180.6L-88.7674 126.583L-8.57373 46.2864C-6.47797 47.437 -4.13568 48.074 -1.67007 48.074C2.15161 48.074 5.72675 46.5946 8.41837 43.8825C13.9865 38.3143 13.966 29.2532 8.41837 23.7056C5.72675 21.014 2.15161 19.5347 -1.67007 19.5347C-5.49176 19.5347 -9.06686 21.014 -11.779 23.7262C-14.4706 26.4178 -15.95 30.0135 -15.95 33.8146C-15.95 37.4102 -14.6144 40.8005 -12.1899 43.4305L-93.3493 124.692L-93.3082 178.71L-193.72 279.224L-195.589 337.823L-274.859 417.195L-271.612 420.441L-191.049 339.796L-189.179 281.196ZM-8.51208 26.952C-6.68344 25.1234 -4.23837 24.1165 -1.64951 24.1165C0.939392 24.1165 3.36386 25.1234 5.1925 26.952C8.97308 30.7326 8.97308 36.876 5.1925 40.6566C3.36386 42.4853 0.939392 43.4921 -1.64951 43.4921C-4.23837 43.4921 -6.6629 42.4853 -8.49155 40.6566C-10.3202 38.828 -11.327 36.4035 -11.327 33.8146C-11.327 31.2257 -10.3202 28.8012 -8.49155 26.9725L-8.51208 26.952ZM-5.55334 196.893L-103.582 295.045C-101.835 298.209 -102.267 302.236 -104.938 304.928C-108.184 308.174 -113.444 308.174 -116.69 304.928C-119.937 301.681 -119.937 296.422 -116.69 293.175C-114.019 290.504 -109.972 290.052 -106.807 291.799L-8.1012 192.948L37.3892 175.587C37.3481 173.409 38.1494 171.231 39.8137 169.566C43.06 166.32 48.32 166.32 51.5663 169.566C54.8127 172.813 54.8127 178.073 51.5663 181.319C48.32 184.565 43.06 184.565 39.8137 181.319C39.4027 180.908 39.0329 180.456 38.7247 179.984L-5.55334 196.893ZM271.19 190.668C267.368 190.668 263.793 192.147 261.101 194.859C259.745 196.215 258.697 197.798 257.999 199.503L206.879 187.853L91.9405 302.935L45.0736 291.305L-249.34 584.63L-246.114 587.876L46.4503 296.401L93.3376 308.03L208.317 192.907L256.951 203.982C256.93 204.311 256.91 204.619 256.91 204.948C256.91 208.749 258.389 212.345 261.101 215.036C263.793 217.728 267.389 219.207 271.19 219.207C274.991 219.207 278.586 217.728 281.278 215.016C283.97 212.324 285.449 208.728 285.449 204.927C285.449 201.106 283.97 197.53 281.258 194.839C278.566 192.147 274.991 190.668 271.169 190.668H271.19ZM278.052 211.79C276.224 213.618 273.779 214.625 271.19 214.625C268.601 214.625 266.176 213.618 264.348 211.79C262.519 209.961 261.512 207.537 261.512 204.948C261.512 202.359 262.519 199.934 264.348 198.106C266.176 196.277 268.601 195.27 271.19 195.27C273.779 195.27 276.203 196.277 278.032 198.106C279.86 199.934 280.867 202.359 280.867 204.948C280.867 207.537 279.86 209.961 278.032 211.79H278.052ZM164.676 274.149C167.922 277.395 167.922 282.655 164.676 285.902C162.005 288.593 157.957 289.025 154.793 287.278L96.769 345.384L45.8749 335.049L-14.861 395.867C-13.1146 399.032 -13.546 403.059 -16.2171 405.75C-19.4634 408.997 -24.7234 408.997 -27.9698 405.75C-31.2162 402.504 -31.2162 397.244 -27.9698 393.998C-25.2987 391.327 -21.251 390.875 -18.1074 392.621L44.375 330.056L95.269 340.391L151.546 284.032C149.8 280.868 150.232 276.841 152.903 274.149C156.149 270.903 161.409 270.903 164.655 274.149H164.676ZM-14.3268 -53.2622C-16.7719 -55.0703 -19.7101 -56.0771 -22.7921 -56.0771C-26.6137 -56.0771 -30.1888 -54.5977 -32.901 -51.8856C-35.5926 -49.194 -37.072 -45.5983 -37.072 -41.7971C-37.072 -37.9755 -35.5926 -34.4004 -32.8805 -31.7087C-30.1888 -29.0171 -26.6137 -27.5378 -22.7921 -27.5378C-18.9704 -27.5378 -15.3952 -29.0171 -12.7036 -31.7293C-10.012 -34.4209 -8.53265 -38.0165 -8.53265 -41.8177C-8.53265 -44.7969 -9.45728 -47.6118 -11.1216 -49.9953L21.9586 -83.0754L18.7122 -106.848L191.695 -279.83L188.448 -283.077L13.8632 -108.471L17.1096 -84.6986L-14.3268 -53.2622ZM-15.95 -34.9551C-17.7787 -33.1264 -20.2237 -32.1197 -22.8126 -32.1197C-25.4015 -32.1197 -27.826 -33.1264 -29.6546 -34.9551C-31.4833 -36.7838 -32.4901 -39.2083 -32.4901 -41.7971C-32.4901 -44.386 -31.4833 -46.8105 -29.6546 -48.6392C-27.826 -50.4678 -25.3809 -51.4746 -22.7921 -51.4746C-20.2032 -51.4746 -17.7787 -50.4678 -15.95 -48.6392C-14.1213 -46.8105 -13.1146 -44.386 -13.1146 -41.7971C-13.1146 -39.2083 -14.1213 -36.7838 -15.95 -34.9346V-34.9551ZM482.779 -276.173L479.533 -279.419L423.893 -223.779V-200.808L341.5 -118.416V-97.3348L308.934 -64.7683L288.942 -67.4599L157.279 64.2031C154.978 62.6826 152.266 61.8608 149.43 61.8608C145.608 61.8608 142.033 63.3401 139.321 66.0523C136.63 68.7439 135.15 72.3396 135.15 76.1407C135.15 79.9624 136.63 83.5375 139.342 86.2291C142.033 88.9207 145.629 90.4001 149.43 90.4001C153.231 90.4001 156.827 88.9207 159.519 86.2086C162.21 83.517 163.69 79.9214 163.69 76.1202C163.69 72.8944 162.601 69.8329 160.649 67.3262L290.586 -62.6109L310.578 -59.9193L346.082 -95.424V-116.505L428.474 -198.897V-221.868L482.779 -276.173ZM156.272 82.9622C154.443 84.7909 151.998 85.7977 149.41 85.7977C146.821 85.7977 144.396 84.7909 142.568 82.9622C140.739 81.1336 139.732 78.7091 139.732 76.1202C139.732 73.5313 140.739 71.1068 142.568 69.2781C144.396 67.4495 146.841 66.4427 149.43 66.4427C152.019 66.4427 154.443 67.4495 156.272 69.2781C158.101 71.1068 159.108 73.5313 159.108 76.1202C159.108 78.7091 158.101 81.1336 156.272 82.9622ZM142.67 149.985L139.157 186.456L119.185 206.427L80.0235 212.632L53.4772 239.178C51.1349 237.576 48.3611 236.713 45.464 236.713C41.6423 236.713 38.0672 238.192 35.355 240.904C32.6634 243.596 31.1841 247.192 31.1841 250.993C31.1841 254.815 32.6634 258.39 35.3756 261.081C38.0672 263.773 41.6629 265.252 45.464 265.252C49.2651 265.252 52.8608 263.773 55.573 261.061C58.2646 258.369 59.744 254.773 59.744 250.972C59.744 247.808 58.696 244.808 56.8058 242.322L82.222 216.906L121.384 210.701L143.574 188.531L147.088 152.061L395.045 -95.8965L391.799 -99.1429L142.67 149.985ZM52.3266 257.835C50.4979 259.664 48.0529 260.67 45.464 260.67C42.8751 260.67 40.4506 259.664 38.622 257.835C36.7933 256.006 35.7865 253.582 35.7865 250.993C35.7865 248.404 36.7933 245.979 38.622 244.151C40.4506 242.322 42.8957 241.315 45.4846 241.315C47.5803 241.315 49.5528 241.993 51.1965 243.226L53.2717 245.301C54.484 246.945 55.162 248.918 55.162 250.993C55.162 253.582 54.1552 256.006 52.3266 257.855V257.835ZM266.793 -186.877L192.496 -112.58L195.742 -88.8079L163.546 -56.6113C165.313 -53.4471 164.902 -49.3789 162.21 -46.6873C158.964 -43.4409 153.704 -43.4409 150.457 -46.6873C147.211 -49.9336 147.211 -55.1936 150.457 -58.4399C153.129 -61.111 157.135 -61.563 160.279 -59.8371L190.893 -90.4517L187.647 -114.224L263.546 -190.124L266.793 -186.877ZM144.889 -145.866L227.281 -228.258H248.362L280.929 -260.825L278.237 -280.817L411.421 -414L414.667 -410.754L283.086 -279.173L285.778 -259.181L250.273 -223.676H229.192L146.8 -141.284H123.829L72.0103 -89.4654C73.6129 -86.3423 73.1404 -82.4385 70.5309 -79.8085C67.2846 -76.5621 62.0246 -76.5621 58.7783 -79.8085C55.5319 -83.0549 55.5319 -88.3148 58.7783 -91.5612C61.511 -94.3144 65.6819 -94.7048 68.8666 -92.8145L121.939 -145.887H144.91L144.889 -145.866ZM-289.262 212.242L-286.57 232.234L-419.754 365.417L-423 362.171L-291.419 230.59L-294.111 210.598L-258.606 175.073H-237.525L-155.113 92.7014H-132.141L-80.3227 40.8826C-81.9254 37.7596 -81.4528 33.8557 -78.8434 31.2257C-75.597 27.9793 -70.337 27.9793 -67.0906 31.2257C-63.8443 34.4721 -63.8443 39.7321 -67.0906 42.9784C-69.8233 45.7317 -73.9943 46.122 -77.1791 44.2317L-130.251 97.3038H-153.222L-235.614 179.696H-256.695L-289.262 212.262V212.242ZM-109.643 -52.3376L-106.129 -88.8079L-86.158 -108.779L-46.9754 -114.984L-20.4292 -141.531C-18.0869 -139.928 -15.313 -139.065 -12.416 -139.065C-8.59427 -139.065 -5.01917 -140.544 -2.30701 -143.257C0.384613 -145.948 1.86395 -149.544 1.86395 -153.345C1.86395 -157.167 0.384613 -160.742 -2.32755 -163.433C-5.01917 -166.125 -8.59427 -167.604 -12.416 -167.604C-16.2376 -167.604 -19.8128 -166.125 -22.5249 -163.413C-25.2166 -160.721 -26.6959 -157.126 -26.6959 -153.324C-26.6959 -150.16 -25.648 -147.16 -23.7578 -144.674L-49.174 -119.258L-88.3359 -113.053L-110.526 -90.8626L-114.04 -54.3922L-361.997 193.565L-358.751 196.811L-109.643 -52.3376ZM-19.2785 -160.187C-17.4499 -162.016 -15.0048 -163.022 -12.416 -163.022C-9.82706 -163.022 -7.40256 -162.016 -5.57391 -160.187C-3.74527 -158.358 -2.73846 -155.934 -2.73846 -153.345C-2.73846 -150.756 -3.74527 -148.332 -5.57391 -146.482C-7.40256 -144.654 -9.8476 -143.647 -12.4365 -143.647C-14.5323 -143.647 -16.5047 -144.325 -18.1485 -145.558L-20.2237 -147.633C-21.4359 -149.277 -22.114 -151.249 -22.114 -153.345C-22.114 -155.934 -21.1072 -158.358 -19.2785 -160.187ZM81.996 104.865C81.996 80.8459 62.4561 61.306 38.437 61.306C14.418 61.306 -5.12189 80.8459 -5.12189 104.865C-5.12189 128.884 14.418 148.424 38.437 148.424C62.4561 148.424 81.996 128.884 81.996 104.865ZM38.437 143.842C16.9452 143.842 -0.540009 126.357 -0.540009 104.865C-0.540009 83.3731 16.9452 65.8879 38.437 65.8879C59.9289 65.8879 77.4141 83.3731 77.4141 104.865C77.4141 126.357 59.9289 143.842 38.437 143.842ZM38.437 73.3464C21.0546 73.3464 6.91846 87.4825 6.91846 104.865C6.91846 122.247 21.0546 136.383 38.437 136.383C55.8195 136.383 69.9557 122.247 69.9557 104.865C69.9557 87.4825 55.8195 73.3464 38.437 73.3464ZM38.437 131.802C23.5818 131.802 11.5004 119.72 11.5004 104.865C11.5004 90.0097 23.5818 77.9283 38.437 77.9283C53.2923 77.9283 65.3737 90.0097 65.3737 104.865C65.3737 119.72 53.2923 131.802 38.437 131.802ZM53.2512 104.865C53.2512 113.043 46.6146 119.679 38.437 119.679C30.2595 119.679 23.6229 113.043 23.6229 104.865C23.6229 96.6874 30.2595 90.0508 38.437 90.0508C46.6146 90.0508 53.2512 96.6874 53.2512 104.865ZM93.1528 44.6837H76.5305V28.0615H93.1528V44.6837ZM93.1528 16.9869H76.5305V0.364624H93.1528V16.9869ZM93.1528 -10.7101H76.5305V-27.3323H93.1528V-10.7101ZM93.1528 -38.407H76.5305V-55.0292H93.1528V-38.407ZM46.7379 28.0615H63.3601V44.6837H46.7379V28.0615ZM63.3601 16.9869H46.7379V0.364624H63.3601V16.9869Z" fill="#F8F8F8"/>
<path d="M-154.208 362.931L-233.478 442.303L-230.231 445.549L-149.668 364.883L-147.798 306.263L-47.3453 205.667L-47.3864 152.718C-44.14 152.389 -41.1197 150.951 -38.7773 148.609C-36.0857 145.917 -34.6064 142.322 -34.6064 138.52C-34.6064 134.699 -36.1063 131.124 -38.7979 128.432C-41.4895 125.74 -45.0646 124.261 -48.8863 124.261C-52.708 124.261 -56.2831 125.74 -58.9953 128.453C-64.5634 134.021 -64.5428 143.082 -58.9953 148.629C-57.0433 150.581 -54.6394 151.876 -52.0094 152.451L-51.9683 203.756L-152.359 304.291L-154.229 362.911L-154.208 362.931ZM-55.7283 145.404C-59.5089 141.623 -59.5089 135.479 -55.7283 131.699C-53.8997 129.87 -51.4546 128.863 -48.8658 128.863C-46.2769 128.863 -43.8523 129.87 -42.0237 131.699C-40.195 133.528 -39.1883 135.952 -39.1883 138.541C-39.1883 141.13 -40.195 143.554 -42.0237 145.404C-43.8523 147.232 -46.2769 148.239 -48.8863 148.239C-51.4957 148.239 -53.8997 147.232 -55.7283 145.404ZM-189.179 281.196L-88.7263 180.6L-88.7674 126.583L-8.57373 46.2864C-6.47797 47.437 -4.13568 48.074 -1.67007 48.074C2.15161 48.074 5.72675 46.5946 8.41837 43.8825C13.9865 38.3143 13.966 29.2532 8.41837 23.7056C5.72675 21.014 2.15161 19.5347 -1.67007 19.5347C-5.49176 19.5347 -9.06686 21.014 -11.779 23.7262C-14.4706 26.4178 -15.95 30.0135 -15.95 33.8146C-15.95 37.4102 -14.6144 40.8005 -12.1899 43.4305L-93.3493 124.692L-93.3082 178.71L-193.72 279.224L-195.589 337.823L-274.859 417.195L-271.612 420.441L-191.049 339.796L-189.179 281.196ZM-8.51208 26.952C-6.68344 25.1234 -4.23837 24.1165 -1.64951 24.1165C0.939392 24.1165 3.36386 25.1234 5.1925 26.952C8.97308 30.7326 8.97308 36.876 5.1925 40.6566C3.36386 42.4853 0.939392 43.4921 -1.64951 43.4921C-4.23837 43.4921 -6.6629 42.4853 -8.49155 40.6566C-10.3202 38.828 -11.327 36.4035 -11.327 33.8146C-11.327 31.2257 -10.3202 28.8012 -8.49155 26.9725L-8.51208 26.952ZM-5.55334 196.893L-103.582 295.045C-101.835 298.209 -102.267 302.236 -104.938 304.928C-108.184 308.174 -113.444 308.174 -116.69 304.928C-119.937 301.681 -119.937 296.422 -116.69 293.175C-114.019 290.504 -109.972 290.052 -106.807 291.799L-8.1012 192.948L37.3892 175.587C37.3481 173.409 38.1494 171.231 39.8137 169.566C43.06 166.32 48.32 166.32 51.5663 169.566C54.8127 172.813 54.8127 178.073 51.5663 181.319C48.32 184.565 43.06 184.565 39.8137 181.319C39.4027 180.908 39.0329 180.456 38.7247 179.984L-5.55334 196.893ZM271.19 190.668C267.368 190.668 263.793 192.147 261.101 194.859C259.745 196.215 258.697 197.798 257.999 199.503L206.879 187.853L91.9405 302.935L45.0736 291.305L-249.34 584.63L-246.114 587.876L46.4503 296.401L93.3376 308.03L208.317 192.907L256.951 203.982C256.93 204.311 256.91 204.619 256.91 204.948C256.91 208.749 258.389 212.345 261.101 215.036C263.793 217.728 267.389 219.207 271.19 219.207C274.991 219.207 278.586 217.728 281.278 215.016C283.97 212.324 285.449 208.728 285.449 204.927C285.449 201.106 283.97 197.53 281.258 194.839C278.566 192.147 274.991 190.668 271.169 190.668H271.19ZM278.052 211.79C276.224 213.618 273.779 214.625 271.19 214.625C268.601 214.625 266.176 213.618 264.348 211.79C262.519 209.961 261.512 207.537 261.512 204.948C261.512 202.359 262.519 199.934 264.348 198.106C266.176 196.277 268.601 195.27 271.19 195.27C273.779 195.27 276.203 196.277 278.032 198.106C279.86 199.934 280.867 202.359 280.867 204.948C280.867 207.537 279.86 209.961 278.032 211.79H278.052ZM164.676 274.149C167.922 277.395 167.922 282.655 164.676 285.902C162.005 288.593 157.957 289.025 154.793 287.278L96.769 345.384L45.8749 335.049L-14.861 395.867C-13.1146 399.032 -13.546 403.059 -16.2171 405.75C-19.4634 408.997 -24.7234 408.997 -27.9698 405.75C-31.2162 402.504 -31.2162 397.244 -27.9698 393.998C-25.2987 391.327 -21.251 390.875 -18.1074 392.621L44.375 330.056L95.269 340.391L151.546 284.032C149.8 280.868 150.232 276.841 152.903 274.149C156.149 270.903 161.409 270.903 164.655 274.149H164.676ZM-14.3268 -53.2622C-16.7719 -55.0703 -19.7101 -56.0771 -22.7921 -56.0771C-26.6137 -56.0771 -30.1888 -54.5977 -32.901 -51.8856C-35.5926 -49.194 -37.072 -45.5983 -37.072 -41.7971C-37.072 -37.9755 -35.5926 -34.4004 -32.8805 -31.7087C-30.1888 -29.0171 -26.6137 -27.5378 -22.7921 -27.5378C-18.9704 -27.5378 -15.3952 -29.0171 -12.7036 -31.7293C-10.012 -34.4209 -8.53265 -38.0165 -8.53265 -41.8177C-8.53265 -44.7969 -9.45728 -47.6118 -11.1216 -49.9953L21.9586 -83.0754L18.7122 -106.848L191.695 -279.83L188.448 -283.077L13.8632 -108.471L17.1096 -84.6986L-14.3268 -53.2622ZM-15.95 -34.9551C-17.7787 -33.1264 -20.2237 -32.1197 -22.8126 -32.1197C-25.4015 -32.1197 -27.826 -33.1264 -29.6546 -34.9551C-31.4833 -36.7838 -32.4901 -39.2083 -32.4901 -41.7971C-32.4901 -44.386 -31.4833 -46.8105 -29.6546 -48.6392C-27.826 -50.4678 -25.3809 -51.4746 -22.7921 -51.4746C-20.2032 -51.4746 -17.7787 -50.4678 -15.95 -48.6392C-14.1213 -46.8105 -13.1146 -44.386 -13.1146 -41.7971C-13.1146 -39.2083 -14.1213 -36.7838 -15.95 -34.9346V-34.9551ZM482.779 -276.173L479.533 -279.419L423.893 -223.779V-200.808L341.5 -118.416V-97.3348L308.934 -64.7683L288.942 -67.4599L157.279 64.2031C154.978 62.6826 152.266 61.8608 149.43 61.8608C145.608 61.8608 142.033 63.3401 139.321 66.0523C136.63 68.7439 135.15 72.3396 135.15 76.1407C135.15 79.9624 136.63 83.5375 139.342 86.2291C142.033 88.9207 145.629 90.4001 149.43 90.4001C153.231 90.4001 156.827 88.9207 159.519 86.2086C162.21 83.517 163.69 79.9214 163.69 76.1202C163.69 72.8944 162.601 69.8329 160.649 67.3262L290.586 -62.6109L310.578 -59.9193L346.082 -95.424V-116.505L428.474 -198.897V-221.868L482.779 -276.173ZM156.272 82.9622C154.443 84.7909 151.998 85.7977 149.41 85.7977C146.821 85.7977 144.396 84.7909 142.568 82.9622C140.739 81.1336 139.732 78.7091 139.732 76.1202C139.732 73.5313 140.739 71.1068 142.568 69.2781C144.396 67.4495 146.841 66.4427 149.43 66.4427C152.019 66.4427 154.443 67.4495 156.272 69.2781C158.101 71.1068 159.108 73.5313 159.108 76.1202C159.108 78.7091 158.101 81.1336 156.272 82.9622ZM142.67 149.985L139.157 186.456L119.185 206.427L80.0235 212.632L53.4772 239.178C51.1349 237.576 48.3611 236.713 45.464 236.713C41.6423 236.713 38.0672 238.192 35.355 240.904C32.6634 243.596 31.1841 247.192 31.1841 250.993C31.1841 254.815 32.6634 258.39 35.3756 261.081C38.0672 263.773 41.6629 265.252 45.464 265.252C49.2651 265.252 52.8608 263.773 55.573 261.061C58.2646 258.369 59.744 254.773 59.744 250.972C59.744 247.808 58.696 244.808 56.8058 242.322L82.222 216.906L121.384 210.701L143.574 188.531L147.088 152.061L395.045 -95.8965L391.799 -99.1429L142.67 149.985ZM52.3266 257.835C50.4979 259.664 48.0529 260.67 45.464 260.67C42.8751 260.67 40.4506 259.664 38.622 257.835C36.7933 256.006 35.7865 253.582 35.7865 250.993C35.7865 248.404 36.7933 245.979 38.622 244.151C40.4506 242.322 42.8957 241.315 45.4846 241.315C47.5803 241.315 49.5528 241.993 51.1965 243.226L53.2717 245.301C54.484 246.945 55.162 248.918 55.162 250.993C55.162 253.582 54.1552 256.006 52.3266 257.855V257.835ZM266.793 -186.877L192.496 -112.58L195.742 -88.8079L163.546 -56.6113C165.313 -53.4471 164.902 -49.3789 162.21 -46.6873C158.964 -43.4409 153.704 -43.4409 150.457 -46.6873C147.211 -49.9336 147.211 -55.1936 150.457 -58.4399C153.129 -61.111 157.135 -61.563 160.279 -59.8371L190.893 -90.4517L187.647 -114.224L263.546 -190.124L266.793 -186.877ZM144.889 -145.866L227.281 -228.258H248.362L280.929 -260.825L278.237 -280.817L411.421 -414L414.667 -410.754L283.086 -279.173L285.778 -259.181L250.273 -223.676H229.192L146.8 -141.284H123.829L72.0103 -89.4654C73.6129 -86.3423 73.1404 -82.4385 70.5309 -79.8085C67.2846 -76.5621 62.0246 -76.5621 58.7783 -79.8085C55.5319 -83.0549 55.5319 -88.3148 58.7783 -91.5612C61.511 -94.3144 65.6819 -94.7048 68.8666 -92.8145L121.939 -145.887H144.91L144.889 -145.866ZM-289.262 212.242L-286.57 232.234L-419.754 365.417L-423 362.171L-291.419 230.59L-294.111 210.598L-258.606 175.073H-237.525L-155.113 92.7014H-132.141L-80.3227 40.8826C-81.9254 37.7596 -81.4528 33.8557 -78.8434 31.2257C-75.597 27.9793 -70.337 27.9793 -67.0906 31.2257C-63.8443 34.4721 -63.8443 39.7321 -67.0906 42.9784C-69.8233 45.7317 -73.9943 46.122 -77.1791 44.2317L-130.251 97.3038H-153.222L-235.614 179.696H-256.695L-289.262 212.262V212.242ZM-109.643 -52.3376L-106.129 -88.8079L-86.158 -108.779L-46.9754 -114.984L-20.4292 -141.531C-18.0869 -139.928 -15.313 -139.065 -12.416 -139.065C-8.59427 -139.065 -5.01917 -140.544 -2.30701 -143.257C0.384613 -145.948 1.86395 -149.544 1.86395 -153.345C1.86395 -157.167 0.384613 -160.742 -2.32755 -163.433C-5.01917 -166.125 -8.59427 -167.604 -12.416 -167.604C-16.2376 -167.604 -19.8128 -166.125 -22.5249 -163.413C-25.2166 -160.721 -26.6959 -157.126 -26.6959 -153.324C-26.6959 -150.16 -25.648 -147.16 -23.7578 -144.674L-49.174 -119.258L-88.3359 -113.053L-110.526 -90.8626L-114.04 -54.3922L-361.997 193.565L-358.751 196.811L-109.643 -52.3376ZM-19.2785 -160.187C-17.4499 -162.016 -15.0048 -163.022 -12.416 -163.022C-9.82706 -163.022 -7.40256 -162.016 -5.57391 -160.187C-3.74527 -158.358 -2.73846 -155.934 -2.73846 -153.345C-2.73846 -150.756 -3.74527 -148.332 -5.57391 -146.482C-7.40256 -144.654 -9.8476 -143.647 -12.4365 -143.647C-14.5323 -143.647 -16.5047 -144.325 -18.1485 -145.558L-20.2237 -147.633C-21.4359 -149.277 -22.114 -151.249 -22.114 -153.345C-22.114 -155.934 -21.1072 -158.358 -19.2785 -160.187ZM81.996 104.865C81.996 80.8459 62.4561 61.306 38.437 61.306C14.418 61.306 -5.12189 80.8459 -5.12189 104.865C-5.12189 128.884 14.418 148.424 38.437 148.424C62.4561 148.424 81.996 128.884 81.996 104.865ZM38.437 143.842C16.9452 143.842 -0.540009 126.357 -0.540009 104.865C-0.540009 83.3731 16.9452 65.8879 38.437 65.8879C59.9289 65.8879 77.4141 83.3731 77.4141 104.865C77.4141 126.357 59.9289 143.842 38.437 143.842ZM38.437 73.3464C21.0546 73.3464 6.91846 87.4825 6.91846 104.865C6.91846 122.247 21.0546 136.383 38.437 136.383C55.8195 136.383 69.9557 122.247 69.9557 104.865C69.9557 87.4825 55.8195 73.3464 38.437 73.3464ZM38.437 131.802C23.5818 131.802 11.5004 119.72 11.5004 104.865C11.5004 90.0097 23.5818 77.9283 38.437 77.9283C53.2923 77.9283 65.3737 90.0097 65.3737 104.865C65.3737 119.72 53.2923 131.802 38.437 131.802ZM53.2512 104.865C53.2512 113.043 46.6146 119.679 38.437 119.679C30.2595 119.679 23.6229 113.043 23.6229 104.865C23.6229 96.6874 30.2595 90.0508 38.437 90.0508C46.6146 90.0508 53.2512 96.6874 53.2512 104.865ZM93.1528 44.6837H76.5305V28.0615H93.1528V44.6837ZM93.1528 16.9869H76.5305V0.364624H93.1528V16.9869ZM93.1528 -10.7101H76.5305V-27.3323H93.1528V-10.7101ZM93.1528 -38.407H76.5305V-55.0292H93.1528V-38.407ZM46.7379 28.0615H63.3601V44.6837H46.7379V28.0615ZM63.3601 16.9869H46.7379V0.364624H63.3601V16.9869Z" stroke="#F8F8F8" stroke-width="8" mask="url(#path-1-outside-1_4017_54405)"/>
<mask id="path-2-outside-2_4017_54405" maskUnits="userSpaceOnUse" x="1182" y="67" width="916" height="1014" fill="black">
<rect fill="white" x="1182" y="67" width="916" height="1014"/>
<path d="M1823.03 297.904L1902.3 218.532L1899.05 215.286L1818.49 295.952L1816.62 354.572L1716.17 455.168L1716.21 508.117C1712.96 508.445 1709.94 509.884 1707.6 512.226C1704.91 514.918 1703.43 518.513 1703.43 522.314C1703.43 526.136 1704.91 529.711 1707.62 532.403C1710.31 535.095 1713.88 536.574 1717.71 536.574C1721.53 536.574 1725.1 535.094 1727.82 532.382C1733.36 526.814 1733.36 517.753 1727.82 512.206C1725.86 510.254 1723.46 508.959 1720.83 508.384L1720.79 457.079L1821.18 356.544L1823.05 297.924L1823.03 297.904ZM1724.55 515.431C1728.33 519.212 1728.33 525.355 1724.55 529.136C1722.72 530.965 1720.3 531.971 1717.69 531.971C1715.08 531.971 1712.67 530.965 1710.84 529.136C1709.02 527.307 1708.01 524.883 1708.01 522.294C1708.01 519.705 1709.02 517.281 1710.84 515.431C1712.67 513.603 1715.12 512.596 1717.69 512.596C1720.25 512.596 1722.7 513.603 1724.53 515.431H1724.55ZM1858 379.659L1757.55 480.255L1757.59 534.273L1677.39 614.569C1675.3 613.418 1672.96 612.781 1670.49 612.781C1666.67 612.781 1663.09 614.261 1660.4 616.973C1654.83 622.541 1654.85 631.602 1660.4 637.15C1663.09 639.841 1666.67 641.321 1670.49 641.321C1674.31 641.321 1677.89 639.841 1680.6 637.129C1683.29 634.438 1684.77 630.842 1684.77 627.041C1684.77 623.445 1683.43 620.055 1681.01 617.425L1762.17 536.163L1762.13 482.146L1862.52 381.611L1864.39 323.012L1943.66 243.64L1940.41 240.394L1859.85 321.06L1857.98 379.659H1858ZM1677.33 633.903C1675.5 635.732 1673.06 636.739 1670.47 636.739C1667.88 636.739 1665.46 635.732 1663.63 633.903C1659.85 630.123 1659.85 623.979 1663.63 620.199C1665.46 618.37 1667.88 617.363 1670.47 617.363C1673.06 617.363 1675.48 618.37 1677.31 620.199C1679.14 622.027 1680.15 624.452 1680.15 627.041C1680.15 629.63 1679.14 632.054 1677.31 633.883L1677.33 633.903ZM1674.37 463.962L1772.4 365.811C1770.66 362.646 1771.09 358.619 1773.76 355.928C1777 352.681 1782.26 352.681 1785.51 355.928C1788.76 359.174 1788.76 364.434 1785.51 367.68C1782.84 370.351 1778.79 370.803 1775.63 369.057L1676.92 467.907L1631.43 485.269C1631.47 487.447 1630.67 489.625 1629.01 491.289C1625.76 494.535 1620.5 494.535 1617.25 491.289C1614.01 488.043 1614.01 482.783 1617.25 479.536C1620.5 476.29 1625.76 476.29 1629.01 479.536C1629.42 479.947 1629.77 480.399 1630.1 480.872L1674.37 463.962ZM1397.61 470.188C1401.43 470.188 1405.01 468.708 1407.7 465.996C1409.05 464.64 1410.1 463.058 1410.8 461.353L1461.92 473.002L1576.86 357.921L1623.75 369.55L1918.14 76.2464L1914.91 73L1622.35 364.475L1575.46 352.846L1460.48 467.969L1411.85 456.894C1411.85 456.565 1411.89 456.257 1411.89 455.928C1411.89 452.127 1410.41 448.531 1407.7 445.84C1405.01 443.148 1401.43 441.669 1397.61 441.669C1393.79 441.669 1390.21 443.148 1387.52 445.86C1384.83 448.552 1383.35 452.148 1383.35 455.949C1383.35 459.77 1384.83 463.346 1387.54 466.037C1390.23 468.729 1393.81 470.208 1397.63 470.208L1397.61 470.188ZM1390.75 449.066C1392.58 447.237 1395.02 446.23 1397.61 446.23C1400.2 446.23 1402.62 447.237 1404.45 449.066C1406.28 450.894 1407.29 453.319 1407.29 455.908C1407.29 458.497 1406.28 460.921 1404.45 462.75C1402.62 464.578 1400.18 465.585 1397.59 465.585C1395 465.585 1392.58 464.578 1390.75 462.75C1388.92 460.921 1387.91 458.497 1387.91 455.908C1387.91 453.319 1388.92 450.894 1390.75 449.066ZM1504.14 386.706C1500.9 383.46 1500.9 378.2 1504.14 374.954C1506.82 372.262 1510.86 371.831 1514.03 373.577L1572.05 315.471L1622.95 325.806L1683.68 264.988C1681.93 261.824 1682.37 257.797 1685.04 255.105C1688.28 251.859 1693.54 251.859 1696.79 255.105C1700.04 258.351 1700.04 263.611 1696.79 266.858C1694.12 269.529 1690.07 269.981 1686.93 268.234L1624.45 330.799L1573.55 320.464L1517.27 376.824C1519.02 379.988 1518.59 384.015 1515.92 386.706C1512.67 389.953 1507.41 389.953 1504.17 386.706H1504.14ZM1683.13 714.118C1685.57 715.926 1688.51 716.932 1691.59 716.932C1695.41 716.932 1698.99 715.453 1701.7 712.741C1704.39 710.049 1705.87 706.454 1705.87 702.653C1705.87 698.831 1704.39 695.256 1701.68 692.564C1698.99 689.873 1695.41 688.393 1691.59 688.393C1687.77 688.393 1684.2 689.872 1681.48 692.585C1678.79 695.276 1677.31 698.872 1677.31 702.673C1677.31 705.652 1678.24 708.467 1679.9 710.851L1646.82 743.931L1650.07 767.703L1477.08 940.686L1480.33 943.932L1654.92 769.347L1651.67 745.575L1683.11 714.138L1683.13 714.118ZM1684.75 695.811C1686.58 693.982 1689.02 692.975 1691.61 692.975C1694.2 692.975 1696.63 693.982 1698.45 695.811C1700.28 697.639 1701.29 700.064 1701.29 702.653C1701.29 705.242 1700.28 707.666 1698.45 709.495C1696.63 711.323 1694.18 712.33 1691.59 712.33C1689 712.33 1686.58 711.323 1684.75 709.495C1682.92 707.666 1681.91 705.242 1681.91 702.653C1681.91 700.064 1682.92 697.639 1684.75 695.79V695.811ZM1186.02 937.028L1189.27 940.275L1244.91 884.634V861.663L1327.3 779.271V758.211L1359.87 725.644L1379.86 728.336L1511.52 596.673C1513.82 598.193 1516.53 599.036 1519.37 599.036C1523.19 599.036 1526.77 597.556 1529.48 594.844C1532.17 592.153 1533.65 588.557 1533.65 584.756C1533.65 580.934 1532.17 577.359 1529.46 574.667C1526.77 571.976 1523.19 570.496 1519.37 570.496C1515.55 570.496 1511.97 571.976 1509.28 574.688C1506.59 577.38 1505.11 580.975 1505.11 584.776C1505.11 588.002 1506.2 591.064 1508.15 593.57L1378.21 723.507L1358.22 720.816L1322.7 756.32V777.401L1240.3 859.793V882.765L1186 937.069L1186.02 937.028ZM1512.53 577.893C1514.36 576.065 1516.8 575.058 1519.39 575.058C1521.98 575.058 1524.4 576.065 1526.23 577.893C1528.06 579.722 1529.07 582.146 1529.07 584.735C1529.07 587.324 1528.06 589.749 1526.23 591.577C1524.4 593.406 1521.96 594.413 1519.37 594.413C1516.78 594.413 1514.36 593.406 1512.53 591.577C1510.7 589.749 1509.69 587.324 1509.69 584.735C1509.69 582.146 1510.7 579.722 1512.53 577.893ZM1526.13 510.87L1529.64 474.4L1549.61 454.428L1588.78 448.223L1615.32 421.677C1617.66 423.28 1620.44 424.143 1623.34 424.143C1627.16 424.143 1630.73 422.663 1633.44 419.951C1636.14 417.259 1637.62 413.664 1637.62 409.863C1637.62 406.041 1636.14 402.466 1633.42 399.774C1630.73 397.083 1627.14 395.603 1623.34 395.603C1619.53 395.603 1615.94 397.083 1613.23 399.795C1610.54 402.486 1609.06 406.082 1609.06 409.883C1609.06 413.047 1610.1 416.047 1611.99 418.533L1586.58 443.95L1547.4 450.155L1525.2 472.324L1521.69 508.795L1273.73 756.752L1276.98 759.998L1526.11 510.87H1526.13ZM1616.47 403.021C1618.3 401.192 1620.75 400.185 1623.34 400.185C1625.92 400.185 1628.35 401.192 1630.18 403.021C1632.01 404.849 1633.01 407.274 1633.01 409.863C1633.01 412.452 1632.01 414.876 1630.18 416.725C1628.35 418.554 1625.9 419.561 1623.32 419.561C1621.22 419.561 1619.25 418.883 1617.6 417.65L1615.53 415.575C1614.32 413.931 1613.64 411.958 1613.64 409.883C1613.64 407.294 1614.64 404.87 1616.47 403.021ZM1402.01 847.733L1476.3 773.436L1473.06 749.663L1505.25 717.467C1503.47 714.303 1503.9 710.234 1506.59 707.543C1509.84 704.296 1515.1 704.296 1518.34 707.543C1521.59 710.789 1521.59 716.049 1518.34 719.295C1515.67 721.966 1511.66 722.398 1508.5 720.693L1477.89 751.307L1481.13 775.08L1405.23 850.979L1401.99 847.733H1402.01ZM1523.91 806.721L1441.52 889.114H1420.44L1387.87 921.68L1390.56 941.672L1257.38 1074.86L1254.13 1071.61L1385.71 940.028L1383.02 920.036L1418.55 884.532H1439.63L1522.02 802.14H1544.99L1596.81 750.321C1595.21 747.198 1595.68 743.294 1598.29 740.664C1601.54 737.418 1606.8 737.418 1610.04 740.664C1613.29 743.91 1613.29 749.17 1610.04 752.417C1607.31 755.17 1603.14 755.56 1599.95 753.67L1546.88 806.742H1523.91V806.721ZM1958.06 448.593L1955.35 428.601L2088.53 295.418L2091.78 298.664L1960.2 430.245L1962.89 450.237L1927.39 485.762H1906.3L1823.91 568.154H1800.94L1749.12 619.973C1750.73 623.096 1750.25 627 1747.64 629.63C1744.4 632.876 1739.14 632.876 1735.89 629.63C1732.64 626.383 1732.64 621.123 1735.89 617.877C1738.62 615.124 1742.79 614.733 1745.98 616.624L1799.05 563.552H1822.02L1904.41 481.16H1925.5L1958.06 448.593ZM1778.44 713.172L1774.93 749.643L1754.96 769.614L1715.78 775.819L1689.23 802.366C1686.89 800.763 1684.11 799.9 1681.22 799.9C1677.39 799.9 1673.82 801.379 1671.11 804.091C1668.42 806.783 1666.94 810.379 1666.94 814.18C1666.94 818.002 1668.42 821.577 1671.13 824.268C1673.82 826.96 1677.39 828.439 1681.22 828.439C1685.04 828.439 1688.61 826.96 1691.3 824.248C1694 821.556 1695.48 817.961 1695.48 814.159C1695.48 810.995 1694.43 807.995 1692.54 805.509L1717.95 780.093L1757.12 773.888L1779.29 751.697L1782.8 715.227L2030.76 467.27L2027.51 464.024L1778.38 713.152L1778.44 713.172ZM1688.1 821.022C1686.27 822.851 1683.83 823.857 1681.24 823.857C1678.65 823.857 1676.22 822.851 1674.39 821.022C1672.57 819.193 1671.56 816.769 1671.56 814.18C1671.56 811.591 1672.57 809.167 1674.39 807.317C1676.22 805.489 1678.67 804.482 1681.26 804.482C1683.35 804.482 1685.33 805.16 1686.97 806.393L1689.04 808.468C1690.26 810.112 1690.93 812.084 1690.95 814.18C1690.95 816.769 1689.95 819.193 1688.12 821.042L1688.1 821.022ZM1586.82 555.97C1586.82 579.989 1606.36 599.529 1630.38 599.529C1654.4 599.529 1673.94 579.989 1673.94 555.97C1673.94 531.951 1654.4 512.411 1630.38 512.411C1606.36 512.411 1586.82 531.951 1586.82 555.97ZM1630.38 516.993C1651.88 516.993 1669.36 534.478 1669.36 555.97C1669.36 577.462 1651.88 594.947 1630.38 594.947C1608.89 594.947 1591.41 577.462 1591.41 555.97C1591.41 534.478 1608.89 516.993 1630.38 516.993ZM1630.38 587.488C1647.77 587.488 1661.9 573.352 1661.9 555.97C1661.9 538.587 1647.77 524.451 1630.38 524.451C1613 524.451 1598.86 538.587 1598.86 555.97C1598.86 573.352 1613 587.488 1630.38 587.488ZM1630.38 529.033C1645.24 529.033 1657.32 541.115 1657.32 555.97C1657.32 570.825 1645.24 582.907 1630.38 582.907C1615.53 582.907 1603.45 570.825 1603.45 555.97C1603.45 541.115 1615.53 529.033 1630.38 529.033ZM1615.57 555.97C1615.57 547.792 1622.21 541.156 1630.38 541.156C1638.56 541.156 1645.2 547.792 1645.2 555.97C1645.2 564.148 1638.56 570.784 1630.38 570.784C1622.21 570.784 1615.57 564.148 1615.57 555.97ZM1575.67 616.151H1592.29V632.773H1575.67V616.151ZM1575.67 643.848H1592.29V660.47H1575.67V643.848ZM1575.67 671.545H1592.29V688.167H1575.67V671.545ZM1575.67 699.242H1592.29V715.864H1575.67V699.242ZM1622.08 632.753H1605.46V616.131H1622.08V632.753ZM1605.46 643.827H1622.08V660.45H1605.46V643.827Z"/>
</mask>
<path d="M1823.03 297.904L1902.3 218.532L1899.05 215.286L1818.49 295.952L1816.62 354.572L1716.17 455.168L1716.21 508.117C1712.96 508.445 1709.94 509.884 1707.6 512.226C1704.91 514.918 1703.43 518.513 1703.43 522.314C1703.43 526.136 1704.91 529.711 1707.62 532.403C1710.31 535.095 1713.88 536.574 1717.71 536.574C1721.53 536.574 1725.1 535.094 1727.82 532.382C1733.36 526.814 1733.36 517.753 1727.82 512.206C1725.86 510.254 1723.46 508.959 1720.83 508.384L1720.79 457.079L1821.18 356.544L1823.05 297.924L1823.03 297.904ZM1724.55 515.431C1728.33 519.212 1728.33 525.355 1724.55 529.136C1722.72 530.965 1720.3 531.971 1717.69 531.971C1715.08 531.971 1712.67 530.965 1710.84 529.136C1709.02 527.307 1708.01 524.883 1708.01 522.294C1708.01 519.705 1709.02 517.281 1710.84 515.431C1712.67 513.603 1715.12 512.596 1717.69 512.596C1720.25 512.596 1722.7 513.603 1724.53 515.431H1724.55ZM1858 379.659L1757.55 480.255L1757.59 534.273L1677.39 614.569C1675.3 613.418 1672.96 612.781 1670.49 612.781C1666.67 612.781 1663.09 614.261 1660.4 616.973C1654.83 622.541 1654.85 631.602 1660.4 637.15C1663.09 639.841 1666.67 641.321 1670.49 641.321C1674.31 641.321 1677.89 639.841 1680.6 637.129C1683.29 634.438 1684.77 630.842 1684.77 627.041C1684.77 623.445 1683.43 620.055 1681.01 617.425L1762.17 536.163L1762.13 482.146L1862.52 381.611L1864.39 323.012L1943.66 243.64L1940.41 240.394L1859.85 321.06L1857.98 379.659H1858ZM1677.33 633.903C1675.5 635.732 1673.06 636.739 1670.47 636.739C1667.88 636.739 1665.46 635.732 1663.63 633.903C1659.85 630.123 1659.85 623.979 1663.63 620.199C1665.46 618.37 1667.88 617.363 1670.47 617.363C1673.06 617.363 1675.48 618.37 1677.31 620.199C1679.14 622.027 1680.15 624.452 1680.15 627.041C1680.15 629.63 1679.14 632.054 1677.31 633.883L1677.33 633.903ZM1674.37 463.962L1772.4 365.811C1770.66 362.646 1771.09 358.619 1773.76 355.928C1777 352.681 1782.26 352.681 1785.51 355.928C1788.76 359.174 1788.76 364.434 1785.51 367.68C1782.84 370.351 1778.79 370.803 1775.63 369.057L1676.92 467.907L1631.43 485.269C1631.47 487.447 1630.67 489.625 1629.01 491.289C1625.76 494.535 1620.5 494.535 1617.25 491.289C1614.01 488.043 1614.01 482.783 1617.25 479.536C1620.5 476.29 1625.76 476.29 1629.01 479.536C1629.42 479.947 1629.77 480.399 1630.1 480.872L1674.37 463.962ZM1397.61 470.188C1401.43 470.188 1405.01 468.708 1407.7 465.996C1409.05 464.64 1410.1 463.058 1410.8 461.353L1461.92 473.002L1576.86 357.921L1623.75 369.55L1918.14 76.2464L1914.91 73L1622.35 364.475L1575.46 352.846L1460.48 467.969L1411.85 456.894C1411.85 456.565 1411.89 456.257 1411.89 455.928C1411.89 452.127 1410.41 448.531 1407.7 445.84C1405.01 443.148 1401.43 441.669 1397.61 441.669C1393.79 441.669 1390.21 443.148 1387.52 445.86C1384.83 448.552 1383.35 452.148 1383.35 455.949C1383.35 459.77 1384.83 463.346 1387.54 466.037C1390.23 468.729 1393.81 470.208 1397.63 470.208L1397.61 470.188ZM1390.75 449.066C1392.58 447.237 1395.02 446.23 1397.61 446.23C1400.2 446.23 1402.62 447.237 1404.45 449.066C1406.28 450.894 1407.29 453.319 1407.29 455.908C1407.29 458.497 1406.28 460.921 1404.45 462.75C1402.62 464.578 1400.18 465.585 1397.59 465.585C1395 465.585 1392.58 464.578 1390.75 462.75C1388.92 460.921 1387.91 458.497 1387.91 455.908C1387.91 453.319 1388.92 450.894 1390.75 449.066ZM1504.14 386.706C1500.9 383.46 1500.9 378.2 1504.14 374.954C1506.82 372.262 1510.86 371.831 1514.03 373.577L1572.05 315.471L1622.95 325.806L1683.68 264.988C1681.93 261.824 1682.37 257.797 1685.04 255.105C1688.28 251.859 1693.54 251.859 1696.79 255.105C1700.04 258.351 1700.04 263.611 1696.79 266.858C1694.12 269.529 1690.07 269.981 1686.93 268.234L1624.45 330.799L1573.55 320.464L1517.27 376.824C1519.02 379.988 1518.59 384.015 1515.92 386.706C1512.67 389.953 1507.41 389.953 1504.17 386.706H1504.14ZM1683.13 714.118C1685.57 715.926 1688.51 716.932 1691.59 716.932C1695.41 716.932 1698.99 715.453 1701.7 712.741C1704.39 710.049 1705.87 706.454 1705.87 702.653C1705.87 698.831 1704.39 695.256 1701.68 692.564C1698.99 689.873 1695.41 688.393 1691.59 688.393C1687.77 688.393 1684.2 689.872 1681.48 692.585C1678.79 695.276 1677.31 698.872 1677.31 702.673C1677.31 705.652 1678.24 708.467 1679.9 710.851L1646.82 743.931L1650.07 767.703L1477.08 940.686L1480.33 943.932L1654.92 769.347L1651.67 745.575L1683.11 714.138L1683.13 714.118ZM1684.75 695.811C1686.58 693.982 1689.02 692.975 1691.61 692.975C1694.2 692.975 1696.63 693.982 1698.45 695.811C1700.28 697.639 1701.29 700.064 1701.29 702.653C1701.29 705.242 1700.28 707.666 1698.45 709.495C1696.63 711.323 1694.18 712.33 1691.59 712.33C1689 712.33 1686.58 711.323 1684.75 709.495C1682.92 707.666 1681.91 705.242 1681.91 702.653C1681.91 700.064 1682.92 697.639 1684.75 695.79V695.811ZM1186.02 937.028L1189.27 940.275L1244.91 884.634V861.663L1327.3 779.271V758.211L1359.87 725.644L1379.86 728.336L1511.52 596.673C1513.82 598.193 1516.53 599.036 1519.37 599.036C1523.19 599.036 1526.77 597.556 1529.48 594.844C1532.17 592.153 1533.65 588.557 1533.65 584.756C1533.65 580.934 1532.17 577.359 1529.46 574.667C1526.77 571.976 1523.19 570.496 1519.37 570.496C1515.55 570.496 1511.97 571.976 1509.28 574.688C1506.59 577.38 1505.11 580.975 1505.11 584.776C1505.11 588.002 1506.2 591.064 1508.15 593.57L1378.21 723.507L1358.22 720.816L1322.7 756.32V777.401L1240.3 859.793V882.765L1186 937.069L1186.02 937.028ZM1512.53 577.893C1514.36 576.065 1516.8 575.058 1519.39 575.058C1521.98 575.058 1524.4 576.065 1526.23 577.893C1528.06 579.722 1529.07 582.146 1529.07 584.735C1529.07 587.324 1528.06 589.749 1526.23 591.577C1524.4 593.406 1521.96 594.413 1519.37 594.413C1516.78 594.413 1514.36 593.406 1512.53 591.577C1510.7 589.749 1509.69 587.324 1509.69 584.735C1509.69 582.146 1510.7 579.722 1512.53 577.893ZM1526.13 510.87L1529.64 474.4L1549.61 454.428L1588.78 448.223L1615.32 421.677C1617.66 423.28 1620.44 424.143 1623.34 424.143C1627.16 424.143 1630.73 422.663 1633.44 419.951C1636.14 417.259 1637.62 413.664 1637.62 409.863C1637.62 406.041 1636.14 402.466 1633.42 399.774C1630.73 397.083 1627.14 395.603 1623.34 395.603C1619.53 395.603 1615.94 397.083 1613.23 399.795C1610.54 402.486 1609.06 406.082 1609.06 409.883C1609.06 413.047 1610.1 416.047 1611.99 418.533L1586.58 443.95L1547.4 450.155L1525.2 472.324L1521.69 508.795L1273.73 756.752L1276.98 759.998L1526.11 510.87H1526.13ZM1616.47 403.021C1618.3 401.192 1620.75 400.185 1623.34 400.185C1625.92 400.185 1628.35 401.192 1630.18 403.021C1632.01 404.849 1633.01 407.274 1633.01 409.863C1633.01 412.452 1632.01 414.876 1630.18 416.725C1628.35 418.554 1625.9 419.561 1623.32 419.561C1621.22 419.561 1619.25 418.883 1617.6 417.65L1615.53 415.575C1614.32 413.931 1613.64 411.958 1613.64 409.883C1613.64 407.294 1614.64 404.87 1616.47 403.021ZM1402.01 847.733L1476.3 773.436L1473.06 749.663L1505.25 717.467C1503.47 714.303 1503.9 710.234 1506.59 707.543C1509.84 704.296 1515.1 704.296 1518.34 707.543C1521.59 710.789 1521.59 716.049 1518.34 719.295C1515.67 721.966 1511.66 722.398 1508.5 720.693L1477.89 751.307L1481.13 775.08L1405.23 850.979L1401.99 847.733H1402.01ZM1523.91 806.721L1441.52 889.114H1420.44L1387.87 921.68L1390.56 941.672L1257.38 1074.86L1254.13 1071.61L1385.71 940.028L1383.02 920.036L1418.55 884.532H1439.63L1522.02 802.14H1544.99L1596.81 750.321C1595.21 747.198 1595.68 743.294 1598.29 740.664C1601.54 737.418 1606.8 737.418 1610.04 740.664C1613.29 743.91 1613.29 749.17 1610.04 752.417C1607.31 755.17 1603.14 755.56 1599.95 753.67L1546.88 806.742H1523.91V806.721ZM1958.06 448.593L1955.35 428.601L2088.53 295.418L2091.78 298.664L1960.2 430.245L1962.89 450.237L1927.39 485.762H1906.3L1823.91 568.154H1800.94L1749.12 619.973C1750.73 623.096 1750.25 627 1747.64 629.63C1744.4 632.876 1739.14 632.876 1735.89 629.63C1732.64 626.383 1732.64 621.123 1735.89 617.877C1738.62 615.124 1742.79 614.733 1745.98 616.624L1799.05 563.552H1822.02L1904.41 481.16H1925.5L1958.06 448.593ZM1778.44 713.172L1774.93 749.643L1754.96 769.614L1715.78 775.819L1689.23 802.366C1686.89 800.763 1684.11 799.9 1681.22 799.9C1677.39 799.9 1673.82 801.379 1671.11 804.091C1668.42 806.783 1666.94 810.379 1666.94 814.18C1666.94 818.002 1668.42 821.577 1671.13 824.268C1673.82 826.96 1677.39 828.439 1681.22 828.439C1685.04 828.439 1688.61 826.96 1691.3 824.248C1694 821.556 1695.48 817.961 1695.48 814.159C1695.48 810.995 1694.43 807.995 1692.54 805.509L1717.95 780.093L1757.12 773.888L1779.29 751.697L1782.8 715.227L2030.76 467.27L2027.51 464.024L1778.38 713.152L1778.44 713.172ZM1688.1 821.022C1686.27 822.851 1683.83 823.857 1681.24 823.857C1678.65 823.857 1676.22 822.851 1674.39 821.022C1672.57 819.193 1671.56 816.769 1671.56 814.18C1671.56 811.591 1672.57 809.167 1674.39 807.317C1676.22 805.489 1678.67 804.482 1681.26 804.482C1683.35 804.482 1685.33 805.16 1686.97 806.393L1689.04 808.468C1690.26 810.112 1690.93 812.084 1690.95 814.18C1690.95 816.769 1689.95 819.193 1688.12 821.042L1688.1 821.022ZM1586.82 555.97C1586.82 579.989 1606.36 599.529 1630.38 599.529C1654.4 599.529 1673.94 579.989 1673.94 555.97C1673.94 531.951 1654.4 512.411 1630.38 512.411C1606.36 512.411 1586.82 531.951 1586.82 555.97ZM1630.38 516.993C1651.88 516.993 1669.36 534.478 1669.36 555.97C1669.36 577.462 1651.88 594.947 1630.38 594.947C1608.89 594.947 1591.41 577.462 1591.41 555.97C1591.41 534.478 1608.89 516.993 1630.38 516.993ZM1630.38 587.488C1647.77 587.488 1661.9 573.352 1661.9 555.97C1661.9 538.587 1647.77 524.451 1630.38 524.451C1613 524.451 1598.86 538.587 1598.86 555.97C1598.86 573.352 1613 587.488 1630.38 587.488ZM1630.38 529.033C1645.24 529.033 1657.32 541.115 1657.32 555.97C1657.32 570.825 1645.24 582.907 1630.38 582.907C1615.53 582.907 1603.45 570.825 1603.45 555.97C1603.45 541.115 1615.53 529.033 1630.38 529.033ZM1615.57 555.97C1615.57 547.792 1622.21 541.156 1630.38 541.156C1638.56 541.156 1645.2 547.792 1645.2 555.97C1645.2 564.148 1638.56 570.784 1630.38 570.784C1622.21 570.784 1615.57 564.148 1615.57 555.97ZM1575.67 616.151H1592.29V632.773H1575.67V616.151ZM1575.67 643.848H1592.29V660.47H1575.67V643.848ZM1575.67 671.545H1592.29V688.167H1575.67V671.545ZM1575.67 699.242H1592.29V715.864H1575.67V699.242ZM1622.08 632.753H1605.46V616.131H1622.08V632.753ZM1605.46 643.827H1622.08V660.45H1605.46V643.827Z" fill="#F8F8F8"/>
<path d="M1823.03 297.904L1902.3 218.532L1899.05 215.286L1818.49 295.952L1816.62 354.572L1716.17 455.168L1716.21 508.117C1712.96 508.445 1709.94 509.884 1707.6 512.226C1704.91 514.918 1703.43 518.513 1703.43 522.314C1703.43 526.136 1704.91 529.711 1707.62 532.403C1710.31 535.095 1713.88 536.574 1717.71 536.574C1721.53 536.574 1725.1 535.094 1727.82 532.382C1733.36 526.814 1733.36 517.753 1727.82 512.206C1725.86 510.254 1723.46 508.959 1720.83 508.384L1720.79 457.079L1821.18 356.544L1823.05 297.924L1823.03 297.904ZM1724.55 515.431C1728.33 519.212 1728.33 525.355 1724.55 529.136C1722.72 530.965 1720.3 531.971 1717.69 531.971C1715.08 531.971 1712.67 530.965 1710.84 529.136C1709.02 527.307 1708.01 524.883 1708.01 522.294C1708.01 519.705 1709.02 517.281 1710.84 515.431C1712.67 513.603 1715.12 512.596 1717.69 512.596C1720.25 512.596 1722.7 513.603 1724.53 515.431H1724.55ZM1858 379.659L1757.55 480.255L1757.59 534.273L1677.39 614.569C1675.3 613.418 1672.96 612.781 1670.49 612.781C1666.67 612.781 1663.09 614.261 1660.4 616.973C1654.83 622.541 1654.85 631.602 1660.4 637.15C1663.09 639.841 1666.67 641.321 1670.49 641.321C1674.31 641.321 1677.89 639.841 1680.6 637.129C1683.29 634.438 1684.77 630.842 1684.77 627.041C1684.77 623.445 1683.43 620.055 1681.01 617.425L1762.17 536.163L1762.13 482.146L1862.52 381.611L1864.39 323.012L1943.66 243.64L1940.41 240.394L1859.85 321.06L1857.98 379.659H1858ZM1677.33 633.903C1675.5 635.732 1673.06 636.739 1670.47 636.739C1667.88 636.739 1665.46 635.732 1663.63 633.903C1659.85 630.123 1659.85 623.979 1663.63 620.199C1665.46 618.37 1667.88 617.363 1670.47 617.363C1673.06 617.363 1675.48 618.37 1677.31 620.199C1679.14 622.027 1680.15 624.452 1680.15 627.041C1680.15 629.63 1679.14 632.054 1677.31 633.883L1677.33 633.903ZM1674.37 463.962L1772.4 365.811C1770.66 362.646 1771.09 358.619 1773.76 355.928C1777 352.681 1782.26 352.681 1785.51 355.928C1788.76 359.174 1788.76 364.434 1785.51 367.68C1782.84 370.351 1778.79 370.803 1775.63 369.057L1676.92 467.907L1631.43 485.269C1631.47 487.447 1630.67 489.625 1629.01 491.289C1625.76 494.535 1620.5 494.535 1617.25 491.289C1614.01 488.043 1614.01 482.783 1617.25 479.536C1620.5 476.29 1625.76 476.29 1629.01 479.536C1629.42 479.947 1629.77 480.399 1630.1 480.872L1674.37 463.962ZM1397.61 470.188C1401.43 470.188 1405.01 468.708 1407.7 465.996C1409.05 464.64 1410.1 463.058 1410.8 461.353L1461.92 473.002L1576.86 357.921L1623.75 369.55L1918.14 76.2464L1914.91 73L1622.35 364.475L1575.46 352.846L1460.48 467.969L1411.85 456.894C1411.85 456.565 1411.89 456.257 1411.89 455.928C1411.89 452.127 1410.41 448.531 1407.7 445.84C1405.01 443.148 1401.43 441.669 1397.61 441.669C1393.79 441.669 1390.21 443.148 1387.52 445.86C1384.83 448.552 1383.35 452.148 1383.35 455.949C1383.35 459.77 1384.83 463.346 1387.54 466.037C1390.23 468.729 1393.81 470.208 1397.63 470.208L1397.61 470.188ZM1390.75 449.066C1392.58 447.237 1395.02 446.23 1397.61 446.23C1400.2 446.23 1402.62 447.237 1404.45 449.066C1406.28 450.894 1407.29 453.319 1407.29 455.908C1407.29 458.497 1406.28 460.921 1404.45 462.75C1402.62 464.578 1400.18 465.585 1397.59 465.585C1395 465.585 1392.58 464.578 1390.75 462.75C1388.92 460.921 1387.91 458.497 1387.91 455.908C1387.91 453.319 1388.92 450.894 1390.75 449.066ZM1504.14 386.706C1500.9 383.46 1500.9 378.2 1504.14 374.954C1506.82 372.262 1510.86 371.831 1514.03 373.577L1572.05 315.471L1622.95 325.806L1683.68 264.988C1681.93 261.824 1682.37 257.797 1685.04 255.105C1688.28 251.859 1693.54 251.859 1696.79 255.105C1700.04 258.351 1700.04 263.611 1696.79 266.858C1694.12 269.529 1690.07 269.981 1686.93 268.234L1624.45 330.799L1573.55 320.464L1517.27 376.824C1519.02 379.988 1518.59 384.015 1515.92 386.706C1512.67 389.953 1507.41 389.953 1504.17 386.706H1504.14ZM1683.13 714.118C1685.57 715.926 1688.51 716.932 1691.59 716.932C1695.41 716.932 1698.99 715.453 1701.7 712.741C1704.39 710.049 1705.87 706.454 1705.87 702.653C1705.87 698.831 1704.39 695.256 1701.68 692.564C1698.99 689.873 1695.41 688.393 1691.59 688.393C1687.77 688.393 1684.2 689.872 1681.48 692.585C1678.79 695.276 1677.31 698.872 1677.31 702.673C1677.31 705.652 1678.24 708.467 1679.9 710.851L1646.82 743.931L1650.07 767.703L1477.08 940.686L1480.33 943.932L1654.92 769.347L1651.67 745.575L1683.11 714.138L1683.13 714.118ZM1684.75 695.811C1686.58 693.982 1689.02 692.975 1691.61 692.975C1694.2 692.975 1696.63 693.982 1698.45 695.811C1700.28 697.639 1701.29 700.064 1701.29 702.653C1701.29 705.242 1700.28 707.666 1698.45 709.495C1696.63 711.323 1694.18 712.33 1691.59 712.33C1689 712.33 1686.58 711.323 1684.75 709.495C1682.92 707.666 1681.91 705.242 1681.91 702.653C1681.91 700.064 1682.92 697.639 1684.75 695.79V695.811ZM1186.02 937.028L1189.27 940.275L1244.91 884.634V861.663L1327.3 779.271V758.211L1359.87 725.644L1379.86 728.336L1511.52 596.673C1513.82 598.193 1516.53 599.036 1519.37 599.036C1523.19 599.036 1526.77 597.556 1529.48 594.844C1532.17 592.153 1533.65 588.557 1533.65 584.756C1533.65 580.934 1532.17 577.359 1529.46 574.667C1526.77 571.976 1523.19 570.496 1519.37 570.496C1515.55 570.496 1511.97 571.976 1509.28 574.688C1506.59 577.38 1505.11 580.975 1505.11 584.776C1505.11 588.002 1506.2 591.064 1508.15 593.57L1378.21 723.507L1358.22 720.816L1322.7 756.32V777.401L1240.3 859.793V882.765L1186 937.069L1186.02 937.028ZM1512.53 577.893C1514.36 576.065 1516.8 575.058 1519.39 575.058C1521.98 575.058 1524.4 576.065 1526.23 577.893C1528.06 579.722 1529.07 582.146 1529.07 584.735C1529.07 587.324 1528.06 589.749 1526.23 591.577C1524.4 593.406 1521.96 594.413 1519.37 594.413C1516.78 594.413 1514.36 593.406 1512.53 591.577C1510.7 589.749 1509.69 587.324 1509.69 584.735C1509.69 582.146 1510.7 579.722 1512.53 577.893ZM1526.13 510.87L1529.64 474.4L1549.61 454.428L1588.78 448.223L1615.32 421.677C1617.66 423.28 1620.44 424.143 1623.34 424.143C1627.16 424.143 1630.73 422.663 1633.44 419.951C1636.14 417.259 1637.62 413.664 1637.62 409.863C1637.62 406.041 1636.14 402.466 1633.42 399.774C1630.73 397.083 1627.14 395.603 1623.34 395.603C1619.53 395.603 1615.94 397.083 1613.23 399.795C1610.54 402.486 1609.06 406.082 1609.06 409.883C1609.06 413.047 1610.1 416.047 1611.99 418.533L1586.58 443.95L1547.4 450.155L1525.2 472.324L1521.69 508.795L1273.73 756.752L1276.98 759.998L1526.11 510.87H1526.13ZM1616.47 403.021C1618.3 401.192 1620.75 400.185 1623.34 400.185C1625.92 400.185 1628.35 401.192 1630.18 403.021C1632.01 404.849 1633.01 407.274 1633.01 409.863C1633.01 412.452 1632.01 414.876 1630.18 416.725C1628.35 418.554 1625.9 419.561 1623.32 419.561C1621.22 419.561 1619.25 418.883 1617.6 417.65L1615.53 415.575C1614.32 413.931 1613.64 411.958 1613.64 409.883C1613.64 407.294 1614.64 404.87 1616.47 403.021ZM1402.01 847.733L1476.3 773.436L1473.06 749.663L1505.25 717.467C1503.47 714.303 1503.9 710.234 1506.59 707.543C1509.84 704.296 1515.1 704.296 1518.34 707.543C1521.59 710.789 1521.59 716.049 1518.34 719.295C1515.67 721.966 1511.66 722.398 1508.5 720.693L1477.89 751.307L1481.13 775.08L1405.23 850.979L1401.99 847.733H1402.01ZM1523.91 806.721L1441.52 889.114H1420.44L1387.87 921.68L1390.56 941.672L1257.38 1074.86L1254.13 1071.61L1385.71 940.028L1383.02 920.036L1418.55 884.532H1439.63L1522.02 802.14H1544.99L1596.81 750.321C1595.21 747.198 1595.68 743.294 1598.29 740.664C1601.54 737.418 1606.8 737.418 1610.04 740.664C1613.29 743.91 1613.29 749.17 1610.04 752.417C1607.31 755.17 1603.14 755.56 1599.95 753.67L1546.88 806.742H1523.91V806.721ZM1958.06 448.593L1955.35 428.601L2088.53 295.418L2091.78 298.664L1960.2 430.245L1962.89 450.237L1927.39 485.762H1906.3L1823.91 568.154H1800.94L1749.12 619.973C1750.73 623.096 1750.25 627 1747.64 629.63C1744.4 632.876 1739.14 632.876 1735.89 629.63C1732.64 626.383 1732.64 621.123 1735.89 617.877C1738.62 615.124 1742.79 614.733 1745.98 616.624L1799.05 563.552H1822.02L1904.41 481.16H1925.5L1958.06 448.593ZM1778.44 713.172L1774.93 749.643L1754.96 769.614L1715.78 775.819L1689.23 802.366C1686.89 800.763 1684.11 799.9 1681.22 799.9C1677.39 799.9 1673.82 801.379 1671.11 804.091C1668.42 806.783 1666.94 810.379 1666.94 814.18C1666.94 818.002 1668.42 821.577 1671.13 824.268C1673.82 826.96 1677.39 828.439 1681.22 828.439C1685.04 828.439 1688.61 826.96 1691.3 824.248C1694 821.556 1695.48 817.961 1695.48 814.159C1695.48 810.995 1694.43 807.995 1692.54 805.509L1717.95 780.093L1757.12 773.888L1779.29 751.697L1782.8 715.227L2030.76 467.27L2027.51 464.024L1778.38 713.152L1778.44 713.172ZM1688.1 821.022C1686.27 822.851 1683.83 823.857 1681.24 823.857C1678.65 823.857 1676.22 822.851 1674.39 821.022C1672.57 819.193 1671.56 816.769 1671.56 814.18C1671.56 811.591 1672.57 809.167 1674.39 807.317C1676.22 805.489 1678.67 804.482 1681.26 804.482C1683.35 804.482 1685.33 805.16 1686.97 806.393L1689.04 808.468C1690.26 810.112 1690.93 812.084 1690.95 814.18C1690.95 816.769 1689.95 819.193 1688.12 821.042L1688.1 821.022ZM1586.82 555.97C1586.82 579.989 1606.36 599.529 1630.38 599.529C1654.4 599.529 1673.94 579.989 1673.94 555.97C1673.94 531.951 1654.4 512.411 1630.38 512.411C1606.36 512.411 1586.82 531.951 1586.82 555.97ZM1630.38 516.993C1651.88 516.993 1669.36 534.478 1669.36 555.97C1669.36 577.462 1651.88 594.947 1630.38 594.947C1608.89 594.947 1591.41 577.462 1591.41 555.97C1591.41 534.478 1608.89 516.993 1630.38 516.993ZM1630.38 587.488C1647.77 587.488 1661.9 573.352 1661.9 555.97C1661.9 538.587 1647.77 524.451 1630.38 524.451C1613 524.451 1598.86 538.587 1598.86 555.97C1598.86 573.352 1613 587.488 1630.38 587.488ZM1630.38 529.033C1645.24 529.033 1657.32 541.115 1657.32 555.97C1657.32 570.825 1645.24 582.907 1630.38 582.907C1615.53 582.907 1603.45 570.825 1603.45 555.97C1603.45 541.115 1615.53 529.033 1630.38 529.033ZM1615.57 555.97C1615.57 547.792 1622.21 541.156 1630.38 541.156C1638.56 541.156 1645.2 547.792 1645.2 555.97C1645.2 564.148 1638.56 570.784 1630.38 570.784C1622.21 570.784 1615.57 564.148 1615.57 555.97ZM1575.67 616.151H1592.29V632.773H1575.67V616.151ZM1575.67 643.848H1592.29V660.47H1575.67V643.848ZM1575.67 671.545H1592.29V688.167H1575.67V671.545ZM1575.67 699.242H1592.29V715.864H1575.67V699.242ZM1622.08 632.753H1605.46V616.131H1622.08V632.753ZM1605.46 643.827H1622.08V660.45H1605.46V643.827Z" stroke="#F8F8F8" stroke-width="8" mask="url(#path-2-outside-2_4017_54405)"/>
</svg>
