<svg width="82" height="119" viewBox="0 0 82 119" fill="none" xmlns="http://www.w3.org/2000/svg">
<g id="Frame 793">
<g id="Group 785">
<g id="Group">
<path id="Vector" d="M51.8779 8.66278C50.1009 8.48284 48.436 8.41743 46.882 8.44098C47.4227 6.24796 46.8957 3.70059 45.9023 2.00293C45.9023 2.00293 50.3055 2.9224 51.2445 5.09652C52.1323 7.15406 51.8779 8.66278 51.8779 8.66278Z" fill="#FF9700"/>
</g>
<g id="Group_2" opacity="0.5">
<path id="Vector_2" d="M51.8766 8.66241C51.6708 8.64206 51.4673 8.62288 51.2656 8.60514C51.1947 8.00224 51.0228 7.22637 50.6449 6.34934C50.0394 4.94731 47.995 4.06767 46.6173 3.61883C46.4249 3.02959 46.1822 2.48279 45.9014 2.00256C45.9014 2.00256 50.304 2.9232 51.2435 5.09702C52.1313 7.1537 51.8763 8.66212 51.8763 8.66212L51.8766 8.66241Z" fill="white"/>
</g>
<path id="Vector_3" d="M46.8799 8.44104C43.9087 8.48522 41.282 8.53173 39.1137 9.04743C39.1622 5.705 37.6846 4.60423 37.1032 3.47313C36.7718 2.82953 35.9055 2.27537 35.9055 2.27537C35.9055 2.27537 35.9835 2.25502 35.9053 2.27537C35.9721 1.86375 36.1971 1.31724 36.8564 0.860264C38.1018 -0.00513804 43.359 -0.38159 44.6201 0.514045C45.0919 0.848927 45.5294 1.36578 45.9006 2.00241C46.8936 3.70007 47.4206 6.24744 46.8802 8.44045L46.8799 8.44104Z" fill="#FFCE00"/>
<g id="Group_3" opacity="0.5">
<path id="Vector_4" d="M46.8812 8.44142C46.7693 8.44288 46.6576 8.44404 46.5472 8.44695C46.6687 6.60452 46.1707 4.68418 45.3702 3.31616C44.9992 2.67925 44.5614 2.16239 44.0893 1.82809C42.8292 0.932164 37.5714 1.30832 36.3263 2.1746L36.3237 2.17605C36.3237 2.17605 36.1996 2.19785 36.1368 2.21413C36.0618 2.23448 35.9842 2.25512 35.9062 2.27547C35.9731 1.86355 36.1981 1.31792 36.8583 0.861233C38.1036 -0.00475006 43.3597 -0.381201 44.6213 0.514724C45.0931 0.848734 45.5309 1.36588 45.9021 2.0028C46.8951 3.70075 47.4228 6.24841 46.8815 8.44142H46.8812Z" fill="white"/>
</g>
<g id="Group 787">
<ellipse id="Ellipse 184" cx="40.8657" cy="77.8396" rx="40.8657" ry="40.5877" fill="#101010"/>
<path id="Vector_5" d="M40.8207 111C53.846 111 64.405 110.225 64.405 109.268C64.405 108.311 53.846 107.535 40.8207 107.535C27.7954 107.535 17.2363 108.311 17.2363 109.268C17.2363 110.225 27.7954 111 40.8207 111Z" fill="#515151"/>
<path id="Vector_6" d="M44.9402 61.3236C43.6867 62.5029 41.8364 61.6283 39.8491 61.719C38.8612 61.7631 37.683 62.6036 37.2109 62.9639C35.2864 64.4328 33.3242 65.4849 31.4628 66.1821C28.2306 67.394 25.2981 67.5377 23.3761 66.9273C21.7348 66.4061 20.9985 64.3988 21.2491 62.3545C21.3989 61.1376 21.648 59.588 22.0509 57.9054C24.0181 57.8778 26.9947 58.0678 29.2855 59.227C29.259 59.4371 29.2529 59.5543 29.2529 59.5543C29.6558 59.5066 30.0408 59.446 30.4082 59.3729C33.9225 58.6918 35.9273 57.0154 37.2439 55.7378C37.8242 55.174 38.2709 54.6883 38.6537 54.3972C39.9954 53.3803 42.0934 53.2129 44.1792 54.3406C44.4585 54.4915 44.7079 54.6503 44.9295 54.8163C47.8103 56.9659 46.0962 60.2361 44.9409 61.3232L44.9402 61.3236Z" fill="white"/>
<path id="Vector_7" d="M53.9082 57.5621C54.5197 57.8263 55.1793 58.0607 55.8768 58.2418C55.2022 58.0833 54.5387 57.8453 53.9082 57.5621Z" fill="white"/>
<path id="Vector_8" d="M72.1456 38.3439C71.6094 41.4743 68.6012 43.1744 68.6012 43.1744C68.6012 43.1744 64.6264 56.4995 59.3589 58.195C58.2287 58.5588 57.0405 58.5172 55.8862 58.2452L55.8852 58.2437C51.4963 54.0853 55.7568 50.1431 56.6641 49.6333C56.6881 49.6534 56.7006 49.6635 56.7006 49.6635C61.943 46.1406 64.3457 38.9436 64.3457 38.9436C64.3457 38.9436 72.6023 35.6838 72.1456 38.3432V38.3439Z" fill="white"/>
<path id="Vector_9" d="M53.8635 107.926C53.7463 108.631 53.1308 109.144 52.416 109.144H42.6328C41.7643 109.144 41.0596 108.44 41.0596 107.571V100.861C41.0596 99.9211 41.8224 99.1583 42.7626 99.1583H46.5661C47.4863 99.1583 48.2401 99.8896 48.2677 100.808L48.3103 102.216C48.6186 102.18 48.9272 102.166 49.2341 102.174C50.2775 102.198 51.297 102.469 52.2081 102.987C54.1502 104.093 54.1062 106.47 53.8631 107.926L53.8635 107.926Z" fill="#FEFEFE"/>
<path id="Vector_10" d="M43.3576 104.831C43.8469 104.019 44.5358 103.314 45.347 102.769C45.7535 102.499 46.1893 102.261 46.6539 102.094C47.1174 101.926 47.6049 101.809 48.1003 101.79C48.3487 101.78 48.558 101.973 48.568 102.221C48.5766 102.438 48.43 102.626 48.2275 102.676L48.2203 102.678C47.7977 102.783 47.3805 102.883 46.9675 103.014C46.556 103.145 46.1438 103.29 45.7434 103.474C44.9398 103.838 44.1834 104.333 43.4544 104.915C43.4264 104.938 43.3855 104.934 43.3629 104.906C43.3454 104.884 43.3443 104.854 43.3579 104.831L43.3576 104.831Z" fill="#636363"/>
<path id="Vector_11" d="M49.5964 79.3258C48.962 83.4189 48.4487 90.4811 49.3774 101.473L40.4964 101.963C40.8273 90.5138 42.1338 79.6967 42.1338 79.6967C42.1338 79.6967 41.9524 79.6666 41.6406 79.5709C41.4556 79.5143 41.2226 79.4351 40.9545 79.3254C40.0785 78.9666 38.8185 78.2884 37.5449 77.041L41.6406 76.3122L50.6765 74.705C50.6765 74.705 50.0986 76.0857 49.5964 79.3254V79.3258Z" fill="#4089FF"/>
<path id="Vector_12" d="M72.1452 38.3435C71.609 41.4739 68.6009 43.174 68.6009 43.174C68.6009 43.174 64.626 56.4991 59.3585 58.1946C57.4104 58.8216 55.2855 58.2437 53.4731 57.3601C50.9597 56.1357 49.0477 54.323 49.0477 54.323L41.584 41.7191C41.584 41.7191 46.8073 42.6894 49.6456 44.2265C51.2263 45.0824 56.1866 49.2333 56.6637 49.6337C56.6877 49.6538 56.7003 49.6638 56.7003 49.6638C56.7859 49.6061 56.8716 49.548 56.9558 49.4875C62.0208 45.9065 64.3453 38.944 64.3453 38.944C64.3453 38.944 72.6019 35.6842 72.1452 38.3435Z" fill="#FFCFAE"/>
<path id="Vector_13" d="M49.0518 54.3256C49.1374 54.4062 51.2039 56.3393 53.8396 57.5326C50.9663 56.2791 49.1209 54.3962 49.0518 54.3256Z" fill="white"/>
<path id="Vector_14" d="M55.8871 58.245C55.883 58.2435 55.8792 58.2424 55.875 58.2408C55.8792 58.2435 55.883 58.2435 55.8856 58.2435L55.8868 58.245H55.8871Z" fill="white"/>
<path id="Vector_15" d="M44.9392 61.3237C43.6857 62.503 41.8354 61.6284 39.8482 61.7191C38.8603 61.7632 37.682 62.6038 37.2099 62.964C31.9439 66.9805 26.4033 67.8891 23.3751 66.9274C21.7338 66.4062 20.9975 64.3989 21.2481 62.3546C21.3979 61.1377 21.647 59.5881 22.0499 57.9055C22.9346 54.2038 24.5623 49.8604 27.5113 47.0046C30.5711 44.0417 37.7655 41.5347 37.7655 41.5347L31.612 53.255C29.8524 55.757 29.3957 58.335 29.2849 59.2271C29.2584 59.4372 29.2523 59.5544 29.2523 59.5544C35.1854 58.8457 37.3114 55.4146 38.6531 54.3977C39.9948 53.3808 42.0928 53.2134 44.1786 54.3411C48.0779 56.4491 46.1849 60.1523 44.94 61.3241L44.9392 61.3237Z" fill="#FFCFAE"/>
<path id="Vector_16" d="M54.6658 55.0585C54.7339 56.1295 55.0838 57.2336 55.8853 58.244C55.8828 58.244 55.8788 58.244 55.8752 58.2415C55.178 58.0602 54.5185 57.8261 53.9066 57.5619C53.884 57.553 53.8614 57.5429 53.8385 57.5329C51.2028 56.3396 49.1363 54.4065 49.0507 54.3258C49.0492 54.3244 49.0482 54.3233 49.0482 54.3233L47.1616 54.5484L44.9274 54.8165C44.7059 54.6502 44.4567 54.4918 44.1771 54.3409C42.6039 53.4899 41.0231 53.3766 39.7668 53.8096C41.982 57.8662 46.5017 66.2662 46.5017 66.2662L35.3639 67.4996L31.5629 67.9201L29.7921 57.8032L29.6989 57.2683C29.6874 57.3035 29.6774 57.339 29.6674 57.3741C29.6459 57.4522 29.6247 57.5289 29.6043 57.6046C29.5878 57.6637 29.5727 57.7229 29.5591 57.7809C29.5591 57.7834 29.5577 57.7874 29.5566 57.7899C29.5426 57.844 29.5301 57.8981 29.5175 57.9508C29.5 58.025 29.4835 58.0992 29.4674 58.1698C29.4498 58.2516 29.4333 58.3283 29.4182 58.4039C29.4182 58.4089 29.4168 58.4139 29.4157 58.4179C29.3957 58.5147 29.3792 58.6068 29.3641 58.6921C29.3516 58.7677 29.339 58.8394 29.329 58.9061C29.315 58.9903 29.3039 59.0685 29.2949 59.1391C29.291 59.1692 29.2874 59.1997 29.2835 59.2273C26.9926 58.068 24.016 57.8781 22.0488 57.9057C22.0764 57.7899 22.1055 57.6741 22.1345 57.5569C22.1635 57.4397 22.1936 57.3228 22.2238 57.2045C22.2514 57.0974 22.2804 56.9895 22.3094 56.8812C22.3119 56.8712 22.3159 56.8597 22.3184 56.8497C22.3474 56.7414 22.3775 56.6321 22.4076 56.5224C22.4227 56.4683 22.4392 56.4142 22.4542 56.36C22.5044 56.1862 22.556 56.0112 22.6091 55.8352C22.6155 55.8137 22.6216 55.7926 22.6292 55.7697C22.6657 55.6489 22.7034 55.5281 22.7424 55.4073C22.7815 55.2865 22.8206 55.1642 22.8607 55.0434C22.9009 54.9201 22.9425 54.7993 22.984 54.6785C23.0267 54.5563 23.0697 54.4344 23.1138 54.3136C23.1579 54.1914 23.202 54.0695 23.2486 53.9487C23.2927 53.8304 23.3378 53.7121 23.3844 53.5938C23.407 53.5347 23.431 53.4756 23.455 53.4175C23.4851 53.3408 23.5167 53.2626 23.5482 53.1859C23.6214 53.006 23.6981 52.8271 23.7762 52.6497C23.8113 52.5665 23.8479 52.4848 23.8855 52.4016C23.9648 52.2253 24.0454 52.0504 24.1286 51.8769C24.1626 51.8088 24.1952 51.741 24.2293 51.6718C24.3225 51.4818 24.4182 51.2955 24.5164 51.1105C24.5605 51.0263 24.6057 50.942 24.6523 50.8574C24.6974 50.7743 24.744 50.6911 24.7906 50.6083C24.9415 50.3391 25.1003 50.0735 25.2652 49.814C25.3029 49.7523 25.3419 49.6907 25.3824 49.6301C25.4667 49.4992 25.5523 49.3695 25.6405 49.2412C25.667 49.2021 25.6921 49.1645 25.7187 49.1279C25.7577 49.0727 25.7979 49.0171 25.837 48.9619C25.857 48.9318 25.8785 48.9028 25.9 48.8752C25.9402 48.8186 25.9818 48.763 26.0233 48.7078C26.1001 48.6046 26.1782 48.5028 26.2574 48.402C26.314 48.3289 26.3721 48.2572 26.4313 48.1855C26.4628 48.1465 26.4944 48.1074 26.527 48.0697C26.5521 48.0382 26.5772 48.0081 26.6051 47.978C26.6478 47.9253 26.6944 47.8722 26.7399 47.8195C26.7474 47.8095 26.7564 47.8005 26.765 47.7919C26.8317 47.7152 26.8983 47.6396 26.9664 47.5654C27.0331 47.4923 27.0998 47.422 27.169 47.3514C27.203 47.3138 27.2396 47.2772 27.2758 47.2396C27.3539 47.1604 27.4317 47.0822 27.5113 47.0055C30.571 44.0425 37.7655 41.5355 37.7655 41.5355L41.5855 41.7205C41.5855 41.7205 46.8089 42.6908 49.6471 44.2279C49.7027 44.258 49.7618 44.292 49.8246 44.3297C49.8511 44.3447 49.8772 44.3612 49.9038 44.3773C49.9339 44.3963 49.9669 44.415 49.9995 44.4379C50.0321 44.458 50.0661 44.4795 50.1002 44.5021C50.3217 44.6444 50.5734 44.8179 50.8454 45.0143C50.911 45.0609 50.9777 45.1086 51.0454 45.1577C51.1006 45.1978 51.1576 45.2394 51.2139 45.281C51.2921 45.3391 51.3698 45.3982 51.4505 45.4573C52.0294 45.8904 52.6649 46.3836 53.2883 46.8783C53.3349 46.9148 53.3826 46.9524 53.4291 46.9904C53.4757 47.027 53.5234 47.0646 53.57 47.1026C53.6632 47.1768 53.7564 47.251 53.8482 47.3256C53.9414 47.3998 54.0321 47.4729 54.1224 47.5457C54.2056 47.6138 54.2887 47.6805 54.369 47.7446C54.3765 47.7511 54.3841 47.7572 54.3905 47.7622C54.4762 47.8328 54.5604 47.9006 54.6436 47.9672C54.7794 48.078 54.9103 48.1848 55.0365 48.287C55.1121 48.3501 55.1863 48.4103 55.259 48.4694C55.7186 48.8469 56.1025 49.1655 56.3577 49.3781C56.3968 49.4107 56.4333 49.4412 56.466 49.4688C56.505 49.5014 56.5391 49.5304 56.5692 49.5545C56.5968 49.577 56.6194 49.5971 56.6398 49.6136C56.6488 49.6211 56.6574 49.6286 56.6649 49.6351C56.0193 49.9975 54.4963 52.4282 54.6662 55.0599L54.6658 55.0585Z" fill="white"/>
<path id="Vector_17" d="M29.2959 59.1388C29.3049 59.0681 29.316 58.9904 29.3299 58.9058C29.316 58.9914 29.3049 59.0681 29.2959 59.1388Z" fill="white"/>
<path id="Vector_18" d="M29.3643 58.6918C29.3793 58.6061 29.3958 58.5144 29.4159 58.4176C29.3969 58.5144 29.3793 58.6065 29.3643 58.6918Z" fill="white"/>
<path id="Vector_19" d="M40.5732 44.7441L40.5718 44.7438C39.3517 44.5572 38.3296 43.8687 38.1642 43.1236L37.7669 41.3178L36.5607 35.8503L43.2662 36.8791L43.0847 43.5624L43.0823 43.6558C43.0603 44.466 41.9365 44.9531 40.5729 44.7442L40.5732 44.7441Z" fill="#FFCBBD"/>
<path id="Vector_20" d="M39.51 100.861V107.571C39.51 108.44 38.8053 109.145 37.9368 109.145H28.1535C27.4388 109.145 26.8233 108.631 26.7061 107.926C26.4631 106.47 26.419 104.094 28.3611 102.987C29.3314 102.435 30.4265 102.164 31.5416 102.172C31.7807 102.173 32.0198 102.188 32.2589 102.216L32.3015 100.809C32.3291 99.8901 33.0833 99.1588 34.0031 99.1588H37.8066C38.7469 99.1588 39.5096 99.9216 39.5096 100.862L39.51 100.861Z" fill="#FEFEFE"/>
<path id="Vector_21" d="M37.1134 104.915C36.3811 104.329 35.6208 103.831 34.8125 103.467C34.41 103.282 33.9956 103.138 33.5812 103.008C33.1661 102.877 32.746 102.778 32.3213 102.674L32.3141 102.672C32.0725 102.613 31.9248 102.37 31.9836 102.129C32.0352 101.917 32.2281 101.778 32.437 101.786C32.9349 101.804 33.4253 101.919 33.8916 102.086C34.3594 102.254 34.7982 102.491 35.2072 102.762C36.0237 103.308 36.717 104.015 37.2095 104.831C37.2281 104.861 37.2181 104.901 37.1876 104.92C37.1636 104.934 37.1338 104.931 37.113 104.915H37.1134Z" fill="#636363"/>
<path id="Vector_22" d="M45.7343 77.0416C44.4607 78.289 43.2008 78.9672 42.3247 79.326C42.0566 79.4353 41.825 79.5149 41.6401 79.5716C41.3268 79.6673 41.1454 79.6974 41.1454 79.6974C41.1454 79.6974 40.8232 82.5847 40.5565 86.9546C40.3059 91.0427 40.1059 96.4296 40.2658 101.964L31.3848 101.473C31.6328 98.6573 31.8353 96.0847 31.9977 93.7476C32.4573 87.1575 32.6092 82.4248 32.6472 79.326C32.6849 76.167 32.6031 74.7056 32.6031 74.7056L41.6401 76.3129L45.7343 77.0416Z" fill="#4089FF"/>
<path id="Vector_23" d="M51.2696 58.8055L51.218 64.5551H30.7285C30.5435 60.4885 30.4062 59.3733 30.4062 59.3733C30.5486 59.1959 30.6744 59.0059 30.7826 58.8055H51.2692H51.2696Z" fill="white"/>
<path id="Union" fill-rule="evenodd" clip-rule="evenodd" d="M51.27 58.8049L51.3407 54.4074C51.3407 54.4074 50.7754 51.106 50.9453 46.5963C50.9628 46.1243 50.9894 45.6382 51.0245 45.1425C51.0245 45.1425 50.6356 44.7797 49.8377 44.3015C49.7269 44.2349 49.6075 44.1668 49.4803 44.0951C48.8007 43.7187 47.8906 43.2946 46.7428 42.9283C46.6105 42.8867 46.4761 42.8451 46.3388 42.805C45.7144 42.6215 45.0258 42.4566 44.272 42.3243L43.8365 43.8599L41.2022 53.1435L36.695 43.7753L35.9498 42.2272C35.1504 42.4953 34.3812 42.8064 33.6614 43.1348C32.4621 43.6811 31.3971 44.275 30.5501 44.7897C29.2851 45.5601 28.5098 46.154 28.5098 46.154C28.5098 46.154 28.8055 46.7118 29.2084 47.6104C30.3802 50.2285 32.461 55.7412 30.7831 58.8049C30.6748 59.0052 30.549 59.1952 30.4067 59.3726C30.4067 59.3726 30.544 60.4878 30.7289 62.037C30.9946 64.2609 31.3595 67.3797 31.5634 69.376L31.5634 69.3762C31.606 69.7913 31.6411 70.159 31.6677 70.4598C31.7268 71.1458 31.7734 71.8846 31.8085 72.6083H31.8086C31.9158 74.7794 31.9258 76.8081 31.9258 76.8081H50.9804L51.0485 72.6081L51.1001 69.376L51.2184 62.037L51.27 58.8049Z" fill="white"/>
<path id="Vector_24" d="M52.5067 66.727L39.1465 67.7202L39.4343 48.485L52.7945 49.0682L52.5067 66.727Z" fill="#E9E9E9"/>
<path id="Vector_25" d="M21.2178 63.593C21.3371 65.1583 22.0702 66.5129 23.3753 66.9273C25.2973 67.5377 28.2298 67.3943 31.462 66.1821C33.3234 65.4849 35.2856 64.4325 37.2101 62.9639C37.6822 62.604 38.8601 61.7631 39.8483 61.719C41.8356 61.6283 43.6859 62.5033 44.9394 61.3236C46.1843 60.1518 48.0773 56.449 44.1781 54.3406C42.0926 53.2129 39.9942 53.3803 38.6525 54.3972C37.4015 55.345 35.4695 58.3908 30.407 59.3726C30.0396 59.4457 29.6543 59.5059 29.2518 59.5539" fill="#FFCFAE"/>
<path id="Vector_26" d="M66.4077 42.3955C66.4077 42.3955 63.0792 42.7618 62.2852 37.4485C61.4912 32.1352 61.2776 29.5701 62.9264 29.1425C64.5753 28.7148 64.851 31.8602 64.927 33.0205C64.927 33.0205 67.3967 32.3327 68.79 32.58" fill="#FFCFAE"/>
<path id="Vector_27" d="M72.2798 36.4435C72.2798 39.2222 70.9858 41.4743 68.4766 41.4743C65.9674 41.4743 65.0469 39.1924 64.6734 36.4435C64.2773 33.5278 65.4656 31.4126 68.4766 31.4126C71.4876 31.4126 72.2798 33.6651 72.2798 36.4435Z" fill="#FFCFAE"/>
<path id="Vector_28" d="M43.0308 55.5748C43.367 55.6146 43.6889 55.7028 44.0065 55.8107C44.3219 55.9222 44.6302 56.0595 44.9274 56.2226C45.2249 56.3846 45.5142 56.571 45.774 56.7972C46.0368 57.0187 46.2701 57.2836 46.4533 57.5807C46.5838 57.7926 46.5182 58.0697 46.3063 58.2005C46.1339 58.3066 45.9181 58.2829 45.7733 58.1561L45.7479 58.1338C45.5231 57.9367 45.3324 57.7177 45.1152 57.5123C44.9023 57.3055 44.6926 57.0864 44.4625 56.8832C44.0079 56.4699 43.5101 56.0806 42.9864 55.6946L42.9838 55.6924C42.9545 55.6709 42.9484 55.6297 42.9699 55.6006C42.9842 55.5809 43.0079 55.5716 43.0304 55.5745L43.0308 55.5748Z" fill="#F3B88F"/>
<path id="Vector_29" d="M42.3527 57.528C42.6997 57.5456 43.032 57.6234 43.3603 57.7223C43.6862 57.8255 44.007 57.9528 44.3131 58.1102C44.6174 58.2689 44.9214 58.4396 45.1909 58.6557C45.4648 58.8658 45.7157 59.1074 45.924 59.3837C46.0738 59.5827 46.0344 59.8655 45.8354 60.0153C45.6723 60.1383 45.4526 60.1336 45.2963 60.0186L45.2791 60.0057C45.0264 59.8193 44.806 59.6067 44.5715 59.4045C44.3418 59.1984 44.1116 58.9894 43.8718 58.7866C43.3908 58.3844 42.8757 58.003 42.3187 57.6513L42.3147 57.6488C42.2843 57.6295 42.2749 57.589 42.2943 57.5585C42.3072 57.5377 42.3301 57.527 42.3531 57.528H42.3527Z" fill="#F3B88F"/>
<path id="Vector_30" d="M41.4767 59.4762C41.781 59.474 42.0771 59.5116 42.3725 59.5633C42.6668 59.6185 42.9582 59.6927 43.2453 59.7887C43.5313 59.8869 43.817 60.0013 44.0851 60.1572C44.3511 60.316 44.6092 60.5064 44.8171 60.7558C44.977 60.9472 44.9512 61.2319 44.7598 61.3917C44.6081 61.5183 44.3981 61.5287 44.2378 61.4322L44.2117 61.4161C43.9902 61.2824 43.7848 61.1304 43.5665 60.9791C43.3453 60.8322 43.1266 60.6691 42.8951 60.5167C42.432 60.2106 41.9423 59.9167 41.4437 59.6002L41.4419 59.5991C41.4111 59.5794 41.4018 59.5385 41.4215 59.5073C41.434 59.4876 41.4555 59.4769 41.477 59.4765L41.4767 59.4762Z" fill="#F3B88F"/>
<path id="Vector_31" d="M31.4541 30.2071L34.7034 26.5132C32.6513 26.5276 33.1912 21.0625 33.1912 21.0625C32.7772 20.7831 32.3163 20.5614 31.8131 20.4096C30.6337 20.0538 29.429 20.1485 28.3771 20.592C28.3771 20.592 26.4134 21.3334 25.7103 22.3685C23.9832 24.9114 27.0522 30.3471 30.0702 28.9219C30.1175 28.9403 30.1643 28.9544 30.2127 28.969L30.2128 28.969C31.0771 29.2298 30.6313 30.3913 31.4541 30.2071Z" fill="#FFCFAE"/>
<path id="Vector_32" d="M31.7212 29.4424L34.6334 25.6468C32.9046 25.7588 33.6196 20.3465 33.6196 20.3465C33.2842 20.0908 32.9067 19.8942 32.4902 19.7686C31.5139 19.474 30.4949 19.6248 29.588 20.1121C29.588 20.1121 27.899 20.9363 27.2576 21.9901C25.6821 24.5786 28.0077 29.79 30.617 28.2416C30.6559 28.2574 30.6947 28.2691 30.7347 28.2812L30.7348 28.2812C31.4502 28.4971 31.0196 29.6631 31.7212 29.4424Z" fill="#FFE0CB"/>
<path id="Vector_33" d="M47.7102 30.484L44.7954 26.5208C46.8383 26.7141 46.7768 21.2228 46.7768 21.2228C47.2136 20.9805 47.692 20.7998 48.2065 20.6924C49.4125 20.4408 50.6043 20.6402 51.6135 21.1737C51.6135 21.1737 53.5051 22.0834 54.1152 23.176C55.614 25.8597 52.083 31.0071 49.2008 29.3243C49.1521 29.3385 49.1043 29.3484 49.0548 29.3588L49.0547 29.3588C48.171 29.5432 48.5137 30.7392 47.7102 30.484Z" fill="#FFCFAE"/>
<path id="Vector_34" d="M47.4064 29.9613L44.7956 25.9347C46.5469 26.1888 46.3275 20.7304 46.3275 20.7304C46.6934 20.503 47.0967 20.338 47.533 20.2469C48.5557 20.0335 49.58 20.2679 50.4585 20.8287C50.4585 20.8287 52.1022 21.7901 52.6568 22.8942C54.0189 25.6065 51.1584 30.614 48.6448 28.8543C48.6036 28.8669 48.563 28.8753 48.521 28.8841L48.521 28.8841C47.7715 29.0405 48.1007 30.2393 47.4064 29.9613Z" fill="#FFE0CB"/>
<path id="Vector_35" d="M69.104 33.7814C68.2936 33.8036 67.5268 33.9682 66.8096 34.2098C66.4522 34.3309 66.1131 34.4843 65.8045 34.6453C65.4951 34.8073 65.231 34.9966 65.0338 35.1787L64.9754 35.2328C64.7721 35.4206 64.4549 35.4081 64.2667 35.2048C64.1126 35.0378 64.0936 34.794 64.204 34.6084C64.342 34.3764 64.5209 34.1743 64.7159 34.0295L64.8621 33.9173L65.0145 33.8255C65.1159 33.7613 65.2191 33.7097 65.3252 33.6642C65.7443 33.4724 66.1812 33.3789 66.6128 33.3244C67.0451 33.2717 67.4777 33.2699 67.9032 33.3154C68.3276 33.3649 68.7499 33.4613 69.1341 33.6416C69.1711 33.6588 69.1868 33.7029 69.1696 33.7398C69.1574 33.766 69.132 33.7814 69.1051 33.7821H69.1037L69.104 33.7814Z" fill="#F3B88F"/>
<path id="Vector_36" d="M69.4009 36.0725C68.5965 36.1998 67.8513 36.4206 67.1308 36.6984C66.7709 36.836 66.4225 36.9966 66.0755 37.1482C65.7286 37.3013 65.3912 37.464 65.0489 37.6078L65.0332 37.6146C64.7751 37.7228 64.4783 37.6017 64.3697 37.3436C64.279 37.1278 64.3496 36.8848 64.5256 36.7475C64.874 36.4761 65.2644 36.2883 65.6633 36.1367C66.0626 35.9847 66.4799 35.8893 66.8985 35.8205C67.3176 35.7528 67.7427 35.7219 68.1657 35.7331C68.5886 35.7478 69.0116 35.8012 69.412 35.9288C69.4507 35.941 69.4722 35.9825 69.46 36.0216C69.4514 36.0492 69.4274 36.0678 69.4009 36.0721V36.0725Z" fill="#F3B88F"/>
<path id="Vector_37" d="M69.9387 38.5601C69.1673 38.6555 68.4583 38.8648 67.7729 39.1283C67.4306 39.2591 67.0998 39.4132 66.77 39.5581C66.4402 39.7043 66.1194 39.8595 65.7914 39.995L65.7757 40.0015C65.5169 40.1083 65.2204 39.9853 65.1136 39.7265C65.0251 39.5122 65.095 39.2717 65.2684 39.1347C65.6004 38.8731 65.975 38.6917 66.3578 38.5469C66.7413 38.4013 67.1428 38.3121 67.5457 38.2494C67.949 38.1881 68.3587 38.1644 68.7659 38.1845C69.1723 38.2081 69.5792 38.2737 69.957 38.4175C69.9954 38.4322 70.0144 38.4748 70 38.5128C69.99 38.5393 69.9656 38.5569 69.9394 38.5601H69.9387Z" fill="#F3B88F"/>
<path id="Vector_38" d="M34.0001 72.038H29.8593C28.6447 72.038 27.6602 73.0225 27.6602 74.2371V83.7687C27.6602 84.9832 28.6447 85.9678 29.8593 85.9678H34.0001C35.2146 85.9678 36.1992 84.9832 36.1992 83.7687V74.2371C36.1992 73.0225 35.2146 72.038 34.0001 72.038Z" fill="#EF5730"/>
<path id="Vector_39" d="M36.1995 74.058V75.4814C36.1995 74.267 35.2151 73.2827 34.0007 73.2827H29.8599C28.6454 73.2827 27.6611 74.267 27.6611 75.4814V74.058C27.6611 72.8436 28.6454 71.8593 29.8599 71.8593H34.0007C35.2151 71.8593 36.1995 72.8436 36.1995 74.058Z" fill="white"/>
<path id="Vector_40" d="M35.8853 89.9317C36.8926 89.9317 37.7091 89.2458 37.7091 88.3997C37.7091 87.5536 36.8926 86.8677 35.8853 86.8677C34.8781 86.8677 34.0615 87.5536 34.0615 88.3997C34.0615 89.2458 34.8781 89.9317 35.8853 89.9317Z" fill="#327FFC"/>
<path id="Vector_41" d="M46.1021 89.9317C47.1094 89.9317 47.9259 89.2458 47.9259 88.3997C47.9259 87.5536 47.1094 86.8677 46.1021 86.8677C45.0949 86.8677 44.2783 87.5536 44.2783 88.3997C44.2783 89.2458 45.0949 89.9317 46.1021 89.9317Z" fill="#327FFC"/>
<path id="Vector_42" d="M29.3981 104.797C28.926 104.907 28.646 104.282 29.0489 104.012C29.4081 103.772 29.8608 103.553 30.4229 103.414C31.4893 103.151 32.36 103.269 33.0098 103.494C33.4629 103.65 33.3686 104.317 32.8901 104.342C31.9194 104.392 30.6114 104.512 29.3977 104.797H29.3981Z" fill="#C1C1C1"/>
<path id="Vector_43" d="M51.6187 104.797C52.0908 104.907 52.3708 104.282 51.9679 104.012C51.6087 103.772 51.156 103.553 50.5939 103.414C49.5275 103.151 48.6568 103.269 48.007 103.494C47.5539 103.65 47.6482 104.317 48.1267 104.342C49.0974 104.392 50.4054 104.512 51.6191 104.797H51.6187Z" fill="#C1C1C1"/>
<path id="Rectangle 1" d="M27.7376 20.6488C26.6687 13.2034 32.445 6.5387 39.9667 6.5387C47.6572 6.5387 53.4789 13.4896 52.1296 21.0608L51.6997 23.4727L49.19 33.2218C48.1014 37.4508 44.2882 40.4067 39.9214 40.4067C35.5545 40.4067 31.7414 37.4508 30.6527 33.2218L28.143 23.4727L27.7376 20.6488Z" fill="#FFCFAE"/>
<path id="Vector_44" d="M30.1269 20.571C29.5867 20.889 29.0034 20.2163 29.4005 19.7317C30.1589 18.806 31.249 17.8668 32.7111 17.4958C35.9828 16.6659 36.5704 18.3287 36.3649 19.2469C36.159 20.1651 35.4873 19.1903 32.4908 19.7276C31.983 19.8188 30.7835 20.1851 30.1273 20.5711L30.1269 20.571Z" fill="#3E3E3E"/>
<path id="Vector_45" d="M50.2638 20.713C50.7779 21.0718 51.4113 20.4463 51.053 19.9324C50.3684 18.9507 49.3547 17.9301 47.926 17.4471C44.7286 16.3661 44.0138 17.9785 44.1477 18.9098C44.2817 19.8411 45.0271 18.9214 47.973 19.6888C48.4723 19.819 49.6396 20.2773 50.2642 20.713L50.2638 20.713Z" fill="#3E3E3E"/>
<ellipse id="Ellipse 1" cx="34.6246" cy="25.1485" rx="2.71056" ry="3.1849" fill="white"/>
<ellipse id="Ellipse 3" cx="34.5575" cy="25.0555" rx="1.01646" ry="1.19434" fill="black"/>
<ellipse id="Ellipse 2" cx="45.4674" cy="25.1485" rx="2.71056" ry="3.1849" fill="white"/>
<ellipse id="Ellipse 4" cx="45.4002" cy="25.0555" rx="1.01646" ry="1.19434" fill="black"/>
<g id="Group_4">
<path id="Vector_46" d="M54.4165 14.2967C52.6872 15.227 51.8123 15.6146 51.8123 15.6146C51.8123 15.6146 41.34 13.1341 35.3088 14.4058C33.6407 14.7575 31.126 15.6552 31.126 15.6552L27.6237 17.3627L27.6524 17.5552L27.3716 16.7996L26.9312 15.6145C26.8577 15.4139 26.7908 15.2313 26.7295 15.0621C26.3176 13.9124 26.1838 13.3601 25.9138 12.1093C25.5661 10.4889 27.9036 6.22963 29.1053 5.02935C30.5347 3.59854 34.0451 2.77907 35.9056 2.27588L38.6088 3.35727L51.8764 8.66276C52.8651 8.76363 53.888 8.89881 54.945 9.07322C60.9052 10.0593 57.554 12.6084 54.4171 14.2967H54.4165Z" fill="#FF9700"/>
</g>
<g id="Group_5" opacity="0.3">
<path id="Vector_47" d="M54.417 14.2966C52.6876 15.2268 51.812 15.655 51.812 15.655C51.812 15.655 41.3405 13.1339 35.3092 14.4056C33.6411 14.7573 31.1264 15.655 31.1264 15.655L27.6241 17.3626L27.6529 17.555L27.3721 16.7995C35.168 11.0551 45.1336 10.9062 46.3162 10.8271C47.5353 10.744 53.7899 10.471 54.7597 12.4719C55.0501 13.0707 54.8455 13.7036 54.417 14.2966Z" fill="#000072"/>
</g>
<g id="Group_6" opacity="0.5">
<path id="Vector_48" d="M38.6085 3.35707C37.1341 3.61085 32.6635 4.49195 30.6164 6.12304C28.1463 8.09367 26.2522 11.6166 26.7295 15.0617C26.3176 13.912 26.1838 13.3596 25.9138 12.1088C25.5661 10.4884 27.9036 6.22915 29.1053 5.02886C30.5347 3.59806 34.0451 2.77859 35.9056 2.27539L38.6088 3.35678L38.6085 3.35707Z" fill="white"/>
</g>
<g id="Group_7">
<path id="Vector_49" d="M39.2766 9.00867C33.8162 10.311 31.127 12.6441 31.127 12.6441L39.2766 9.00867Z" fill="#FFCB7F"/>
</g>
<path id="Vector_50" d="M50.2321 29.8709C50.5017 28.6963 48.3565 30.7045 47.8702 30.4961C47.278 30.2424 46.3177 31.1012 46.3177 31.1012C46.3177 31.1012 45.0258 31.2136 44.7557 31.7629C44.4882 32.3122 43.5071 32.6339 42.9262 32.2677C42.3452 31.9015 42.0776 32.4754 41.3183 32.2478C40.9208 32.1275 38.6911 32.1275 38.2936 32.2478C37.5343 32.478 37.2667 31.9015 36.6857 32.2677C36.1048 32.6339 34.8562 31.7629 34.8562 31.7629C34.8562 31.7629 33.786 30.6879 33.2942 31.1012C32.9374 31.2607 31.9105 30.2067 31.9105 30.2067C31.9105 30.2067 30.4652 29.2861 29.9333 30.0099C29.2376 30.9565 29.933 30.0099 29.933 30.0099C29.933 30.0099 29.5968 30.9364 29.9332 31.3497C30.267 31.7629 30.267 32.4168 30.1345 33.2407C29.9994 34.0646 30.4683 34.8205 30.7715 35.3724C31.0722 35.9216 32.0787 37.1928 32.3463 37.8807C32.6138 38.5685 33.205 38.545 33.5184 39.416C33.8318 40.287 34.6345 40.8362 35.1696 41.1109C35.7047 41.3855 36.2806 41.9583 37.4476 41.9583C37.9394 41.9583 38.6198 41.8981 39.2339 41.9112C39.5218 41.9164 40.0952 41.9191 40.3831 41.9112C40.9998 41.8981 41.6776 41.9583 42.1694 41.9583C43.3364 41.9583 43.9123 41.3855 44.4474 41.1109C44.9825 40.8362 45.7877 40.287 46.0986 39.416C46.412 38.545 47.0032 38.5685 47.2707 37.8807C47.5383 37.1928 48.5448 35.9216 48.8455 35.3724C49.1462 34.8231 49.615 34.0672 49.4825 33.2407C49.3475 32.4168 49.479 31.8819 49.8153 31.4687C50.1491 31.0554 50.0915 30.4835 50.2321 29.8709Z" fill="#3E3E3E"/>
<path id="Vector 8" d="M44.3061 34.2598C40.7935 39.9142 37.5148 35.6242 36.5533 34.1025C36.4759 33.98 36.6205 33.8444 36.748 33.9131C39.8271 35.5701 44.3666 34.1387 44.3061 34.2598Z" fill="#FFFEFA" stroke="#F3B88F" stroke-width="0.694674"/>
<path id="Vector_51" d="M49.2982 21.8127C48.9521 21.8127 46.1286 21.8614 45.4849 21.9272C44.6267 22.0159 42.3496 22.3734 41.7289 22.5451C41.1109 22.7167 39.815 22.8912 39.815 22.8912C39.815 22.8912 38.5192 22.7196 37.9012 22.5451C37.2833 22.3734 35.0034 22.0159 34.1452 21.9272C33.5015 21.8585 30.678 21.8127 30.3318 21.8127C29.9857 21.8127 29.4679 22.1017 28.9072 22.3534C28.9072 22.3534 29.0074 23.4977 29.2534 23.7409C29.2534 23.7409 29.5566 23.8124 29.6567 24.0012C29.7569 24.1871 30.103 25.3829 30.246 25.8292C30.3891 26.2754 30.7352 27.2967 31.1529 27.5999C31.5705 27.9032 32.6061 28.3752 34.0593 28.3752C35.5126 28.3752 36.9944 28.6212 38.0014 26.9935C39.0083 25.3686 38.9797 24.5476 39.2515 24.3902C39.5261 24.2329 39.8122 24.2386 39.8122 24.2386C39.8122 24.2386 40.1011 24.2329 40.3729 24.3902C40.6475 24.5476 40.6189 25.3686 41.6259 26.9935C42.6328 28.6183 44.1147 28.3752 45.5679 28.3752C47.0211 28.3752 48.0567 27.9003 48.4744 27.5999C48.892 27.2967 49.2382 26.2754 49.3812 25.8292C49.5242 25.3829 49.8704 24.19 49.9705 24.0012C50.0706 23.8152 50.3739 23.7409 50.3739 23.7409C50.617 23.4977 50.72 22.3534 50.72 22.3534C50.1593 22.1017 49.6415 21.8127 49.2954 21.8127H49.2982ZM37.0831 27.3196C36.5882 27.8259 35.5412 27.8688 34.3626 27.8688C33.184 27.8688 32.4087 27.5828 31.9567 27.3625C31.4933 27.1365 31.1042 26.1324 30.8983 24.8908C30.6923 23.6493 30.7695 23.2889 31.2215 22.9484C31.7393 22.5594 34.3597 22.7339 34.3597 22.7339C34.3597 22.7339 35.3638 22.7339 36.5596 23.0686C37.7582 23.4033 37.9842 23.6951 38.1129 24.5476C38.2417 25.4001 37.5723 26.8132 37.0774 27.3224L37.0831 27.3196ZM48.7318 24.8908C48.5259 26.1324 48.1397 27.1365 47.6762 27.3625C47.2242 27.5828 46.4461 27.8688 45.2704 27.8688C44.0946 27.8688 43.0476 27.8259 42.5499 27.3196C42.055 26.8132 41.3827 25.3972 41.5143 24.5447C41.643 23.6922 41.8719 23.4004 43.0677 23.0657C44.2663 22.731 45.2704 22.731 45.2704 22.731C45.2704 22.731 47.8936 22.5594 48.4114 22.9456C48.8634 23.286 48.9407 23.6464 48.7347 24.888L48.7318 24.8908Z" fill="#181823"/>
<g id="Vector_52" filter="url(#filter0_b_4017_42002)">
<path d="M37.0812 27.3193C36.5863 27.8256 35.5393 27.8686 34.3607 27.8686C33.1821 27.8686 32.4068 27.5825 31.9548 27.3622C31.4914 27.1362 31.1023 26.1321 30.8964 24.8906C30.6904 23.649 30.7676 23.2886 31.2196 22.9482C31.7374 22.5591 34.3578 22.7336 34.3578 22.7336C34.3578 22.7336 35.3619 22.7336 36.5577 23.0683C37.7563 23.403 37.9823 23.6948 38.111 24.5473C38.2398 25.3998 37.5704 26.813 37.0755 27.3222L37.0812 27.3193ZM48.7299 24.8906C48.524 26.1321 48.1378 27.1362 47.6743 27.3622C47.2223 27.5825 46.4442 27.8686 45.2685 27.8686C44.0927 27.8686 43.0457 27.8256 42.548 27.3193C42.0531 26.813 41.3808 25.3969 41.5124 24.5444C41.6411 23.692 41.87 23.4002 43.0658 23.0655C44.2644 22.7308 45.2685 22.7308 45.2685 22.7308C45.2685 22.7308 47.8918 22.5591 48.4095 22.9453C48.8615 23.2857 48.9388 23.6462 48.7328 24.8877L48.7299 24.8906Z" fill="white" fill-opacity="0.5"/>
</g>
<path id="Vector_53" d="M39.5929 25.2005C39.6937 25.5444 39.7516 25.8834 39.8018 26.2196C39.8486 26.5562 39.8831 26.8899 39.9079 27.2212L39.9828 28.2045C40.0093 28.5256 40.0363 28.8502 40.1093 29.1338L39.5455 28.8601C39.6251 28.8304 39.6844 28.8125 39.7522 28.7915C39.8177 28.7711 39.8836 28.7527 39.9498 28.7359C40.0818 28.7017 40.2163 28.6755 40.3519 28.6507C40.6244 28.6071 40.9094 28.587 41.2081 28.6212C41.5047 28.6551 41.8238 28.7529 42.0967 28.9508L42.1984 29.0252C42.2306 29.0517 42.2587 29.0831 42.2888 29.1123C42.3455 29.1727 42.4114 29.2314 42.4533 29.2986C42.499 29.365 42.547 29.4295 42.5886 29.4998C42.6264 29.5739 42.6619 29.6495 42.6953 29.7258C42.7225 29.8054 42.7438 29.8887 42.7655 29.9703C42.7837 30.0529 42.789 30.1395 42.797 30.2244C42.8005 30.3949 42.7799 30.5642 42.7344 30.7237C42.6404 31.0418 42.4604 31.3124 42.2427 31.5205C41.8043 31.938 41.1905 32.0981 40.6611 31.9617C40.6214 31.9515 40.5977 31.911 40.6079 31.8713C40.6128 31.8526 40.6244 31.8371 40.6396 31.8275L40.6434 31.825C40.8656 31.6836 41.0571 31.5558 41.2263 31.4169C41.3947 31.2774 41.5355 31.1275 41.6496 30.9745C41.7646 30.8224 41.8459 30.6595 41.8765 30.5008C41.9093 30.3426 41.896 30.194 41.8439 30.0491C41.7136 29.736 41.4812 29.5257 41.0951 29.4637C40.9061 29.4317 40.6941 29.4367 40.4814 29.47C40.3747 29.4869 40.2675 29.5083 40.1622 29.5387C40.0594 29.5651 39.9445 29.6048 39.864 29.639C39.6532 29.7291 39.4093 29.631 39.3195 29.4204C39.3131 29.4058 39.3079 29.3909 39.3032 29.3758L39.3002 29.3653C39.1902 28.9946 39.1318 28.6427 39.0913 28.2894C39.0513 27.9369 39.0403 27.5874 39.0552 27.2405C39.0645 26.8932 39.1006 26.5482 39.1629 26.2061C39.2288 25.8641 39.3115 25.5249 39.4551 25.1914C39.471 25.1542 39.514 25.1371 39.551 25.1531C39.5716 25.1619 39.586 25.1793 39.592 25.1994V25.2008L39.5929 25.2005Z" fill="#F3B88F"/>
</g>
</g>
</g>
<defs>
<filter id="filter0_b_4017_42002" x="30.6492" y="22.5538" width="18.3311" height="5.45365" filterUnits="userSpaceOnUse" color-interpolation-filters="sRGB">
<feFlood flood-opacity="0" result="BackgroundImageFix"/>
<feGaussianBlur in="BackgroundImageFix" stdDeviation="0.0694674"/>
<feComposite in2="SourceAlpha" operator="in" result="effect1_backgroundBlur_4017_42002"/>
<feBlend mode="normal" in="SourceGraphic" in2="effect1_backgroundBlur_4017_42002" result="shape"/>
</filter>
</defs>
</svg>
