<svg width="122" height="81" viewBox="0 0 122 81" fill="none" xmlns="http://www.w3.org/2000/svg">
<path d="M6.79295 10.4349V6.86363C6.79295 6.56394 6.743 6.37247 6.64311 6.28922C6.54321 6.18933 6.34342 6.13938 6.04373 6.13938H3.54632V11.1592H6.04373C6.34342 11.1592 6.54321 11.1175 6.64311 11.0343C6.743 10.9344 6.79295 10.7346 6.79295 10.4349ZM6.79295 17.5026V13.6566C6.79295 13.3569 6.743 13.1654 6.64311 13.0822C6.54321 12.9823 6.34342 12.9323 6.04373 12.9323H3.54632V18.2268H6.04373C6.34342 18.2268 6.54321 18.1852 6.64311 18.102C6.743 18.0021 6.79295 17.8023 6.79295 17.5026ZM1.29865 4.36622H6.71803C8.28307 4.36622 9.0656 5.09879 9.0656 6.56394V10.5348C9.0656 11.4172 8.73261 11.9334 8.06663 12.0832C8.73261 12.2497 9.0656 12.7325 9.0656 13.5317V17.8023C9.0656 19.2674 8.28307 20 6.71803 20H1.29865V4.36622ZM17.2116 4.36622H19.4593V20H17.2116V4.36622ZM34.9423 8.93648H32.6696V6.86363C32.6696 6.56394 32.6197 6.37247 32.5198 6.28922C32.4199 6.18933 32.2201 6.13938 31.9204 6.13938H30.6467C30.347 6.13938 30.1472 6.18933 30.0473 6.28922C29.9474 6.37247 29.8975 6.56394 29.8975 6.86363V17.5276C29.8975 17.8273 29.9474 18.027 30.0473 18.1269C30.1472 18.2102 30.347 18.2518 30.6467 18.2518H31.9204C32.2201 18.2518 32.4199 18.2102 32.5198 18.1269C32.6197 18.027 32.6696 17.8273 32.6696 17.5276V13.7065H31.4209V11.9583H34.9423V17.8023C34.9423 19.2841 34.1681 20.025 32.6197 20.025H29.9474C28.3991 20.025 27.6249 19.2841 27.6249 17.8023V6.56394C27.6249 5.09879 28.3991 4.36622 29.9474 4.36622H32.6197C34.1681 4.36622 34.9423 5.09879 34.9423 6.56394V8.93648ZM3.54632 45.1769H7.41731V47H1.29865V31.3662H3.54632V45.1769ZM14.5045 31.3662H16.7522V47H14.5045V31.3662ZM31.361 31.3662V33.1893H28.7387V47H26.4911V33.1893H23.8688V31.3662H31.361ZM44.5866 31.3662V33.1893H41.9643V47H39.7166V33.1893H37.0943V31.3662H44.5866ZM53.7413 45.1769H57.6123V47H51.4936V31.3662H53.7413V45.1769ZM66.7723 45.1769H71.2926V47H64.4997V31.3662H71.1178V33.1893H66.7723V38.0093H70.3686V39.8324H66.7723V45.1769ZM6.86788 58.3662H9.11554V74H6.86788V67.1321H3.54632V74H1.29865V58.3662H3.54632V65.309H6.86788V58.3662ZM19.4796 72.1769H23.9999V74H17.207V58.3662H23.8251V60.1893H19.4796V65.0093H23.0759V66.8324H19.4796V72.1769ZM33.5094 72.1769H37.3804V74H31.2617V58.3662H33.5094V72.1769ZM44.2677 58.3662H49.3874C50.9358 58.3662 51.71 59.0988 51.71 60.5639V65.7585C51.71 67.2237 50.9358 67.9563 49.3874 67.9563H46.5154V74H44.2677V58.3662ZM49.4624 65.4089V60.9136C49.4624 60.6139 49.4124 60.4224 49.3125 60.3392C49.2126 60.2393 49.0128 60.1893 48.7131 60.1893H46.5154V66.1581H48.7131C49.0128 66.1581 49.2126 66.1082 49.3125 66.0083C49.4124 65.9084 49.4624 65.7086 49.4624 65.4089Z" fill="#101010"/>
<g clip-path="url(#clip0_4017_41569)">
<g style="mix-blend-mode:multiply">
<path d="M71.1543 59.1295C71.1543 59.1295 71.1582 59.1411 71.162 59.1489C71.162 59.1489 71.1698 59.1489 71.1698 59.145L71.1543 59.1295Z" fill="#EF5730"/>
<path d="M85.6181 57.8432C85.6181 57.8432 85.6181 57.8509 85.6181 57.8547C85.6219 57.8547 85.6258 57.8547 85.6296 57.8547L85.6143 57.8394L85.6181 57.8432Z" fill="#EF5730"/>
<path d="M70.7305 59.1334C70.7305 59.1334 70.7305 59.1411 70.7343 59.145C70.7343 59.145 70.7343 59.145 70.7382 59.145L70.7305 59.1373V59.1334Z" fill="#EF5730"/>
<path d="M105.667 58.5699C105.667 58.5699 105.675 58.5699 105.678 58.5699C105.678 58.5699 105.678 58.5622 105.678 58.5583L105.663 58.5699H105.667Z" fill="#EF5730"/>
<path d="M96.791 57.6995C96.791 57.6995 96.791 57.7072 96.791 57.711C96.791 57.711 96.7948 57.711 96.7987 57.711L96.7871 57.6995H96.791Z" fill="#EF5730"/>
<path d="M63.5809 60.991C63.5809 60.991 63.5732 60.991 63.5693 60.9948C63.5693 60.9948 63.5693 60.9987 63.5693 61.0025L63.5809 60.991Z" fill="#EF5730"/>
<path d="M121.168 70.3099C121.024 70.3099 120.861 70.2632 120.744 70.3176C120.507 70.4265 120.235 70.407 120.014 70.5314C119.843 70.6246 119.656 70.6091 119.481 70.7024C119.244 70.8267 119.097 70.7101 118.972 70.3837C118.914 70.2283 118.743 70.1544 118.584 70.2166C118.518 70.2438 118.459 70.2982 118.393 70.2982C117.892 70.306 117.391 70.3138 116.893 70.3021C116.711 70.2982 116.571 70.1 116.361 70.1544C116.303 70.0573 116.244 69.9562 116.178 69.863C116.12 69.7814 116.007 69.6998 115.941 69.758C115.634 70.0106 115.226 69.758 114.919 69.9834C114.904 69.9951 114.81 69.9135 114.764 69.863C114.686 69.7775 114.783 69.7425 114.822 69.6959C114.884 69.6143 114.973 69.5909 115.075 69.5871C115.214 69.5793 115.358 69.5754 115.498 69.556C115.549 69.5482 115.541 69.5016 115.498 69.4549C115.44 69.3928 115.448 69.3422 115.533 69.3073C115.576 69.2917 115.654 69.2762 115.654 69.2567C115.654 69.1674 115.58 69.179 115.518 69.1751C115.308 69.1557 115.106 69.1751 114.904 69.043C114.647 68.8798 114.352 68.7632 114.049 68.9925C114.002 69.0275 113.913 69.0119 113.839 69.0119C113.602 69.0119 113.361 69.0119 113.124 69.0119C112.933 69.0119 112.743 69.0197 112.587 68.8837C112.323 68.8992 112.109 68.701 111.837 68.7244C111.554 68.7516 111.266 68.736 110.979 68.7399C110.652 68.9497 110.287 68.8448 109.941 68.872C109.739 68.8876 109.564 68.872 109.436 68.6933C109.358 68.5845 109.238 68.5806 109.113 68.5883C109.024 68.5883 108.935 68.5845 108.845 68.5806C108.849 68.5028 108.9 68.4601 108.969 68.4601C110.042 68.4523 111.115 68.4484 112.187 68.4446C112.253 68.4446 112.335 68.4679 112.385 68.5067C112.486 68.5845 112.552 68.5378 112.619 68.464C112.7 68.3707 112.778 68.3047 112.906 68.4096C112.953 68.4484 113.042 68.4368 113.112 68.4407C113.508 68.4679 113.92 68.3824 114.297 68.5767C114.775 68.5806 115.249 68.5883 115.727 68.5883C115.797 68.5883 115.879 68.5845 115.929 68.5456C116.054 68.4484 116.194 68.4484 116.338 68.4523C116.598 68.4601 116.804 68.3901 116.874 68.1026C116.885 68.0598 116.932 68.0287 116.963 67.9899C117.006 67.9316 117.006 67.9277 117.189 67.9782C117.259 67.9977 117.325 68.021 117.387 67.9666C117.476 67.885 117.538 67.9122 117.62 67.9899C117.721 68.087 117.651 68.1414 117.597 68.2153C117.573 68.2502 117.566 68.3124 117.577 68.3474C117.62 68.4484 117.69 68.3901 117.737 68.3474C117.803 68.2891 117.865 68.3085 117.935 68.3241L118.463 68.3474C118.556 68.2775 118.634 68.328 118.724 68.3707C118.809 68.4096 118.957 68.328 118.984 68.223C119.011 68.1259 118.984 68.0326 118.856 68.0171C118.832 68.0171 118.809 68.0054 118.79 67.9938C118.77 67.9821 118.751 67.9627 118.739 67.9432C118.739 67.9355 118.762 67.9005 118.778 67.9005C118.965 67.885 119.151 67.8733 119.338 67.8539C119.419 67.8461 119.462 67.6945 119.571 67.7956C119.73 67.9432 119.948 67.7956 120.111 67.9083C120.146 67.9355 120.2 67.986 120.224 67.9743C120.371 67.9083 120.511 67.8306 120.655 67.7567C120.764 67.8772 120.849 67.78 120.958 67.7451C121.067 67.7062 121.195 67.7373 121.312 67.7217C121.347 67.7217 121.378 67.6712 121.409 67.6479C121.389 67.6324 121.374 67.609 121.354 67.6052C121.152 67.543 120.927 67.6362 120.733 67.5197C120.534 67.3953 120.313 67.4808 120.107 67.4381C120.06 67.4303 119.998 67.4497 119.967 67.4225C119.738 67.2282 119.466 67.3098 119.209 67.3059C118.374 67.2943 117.538 67.2943 116.707 67.2865C116.652 67.2865 116.567 67.271 116.633 67.1621C116.679 67.0844 116.707 66.9912 116.714 66.8979C116.726 66.7852 116.773 66.7269 116.885 66.723C117.076 66.723 117.266 66.723 117.457 66.7114C117.492 66.7114 117.558 66.657 117.554 66.6336C117.546 66.5715 117.515 66.5093 117.488 66.451C117.48 66.4393 117.453 66.4354 117.43 66.4316C117.371 66.245 117.208 66.28 117.088 66.3189C116.979 66.3538 116.901 66.4393 116.792 66.3111C116.734 66.2411 116.652 66.1828 116.567 66.1479C116.423 66.0896 116.423 66.0624 116.567 66.0041C116.648 65.9691 116.718 65.8992 116.792 65.8448L117.169 65.6233C117.309 65.5533 117.437 65.5766 117.573 65.6466C117.655 65.6854 117.775 65.7359 117.838 65.701C118.051 65.5805 118.292 65.6077 118.51 65.5261C118.537 65.5183 118.556 65.4445 118.553 65.4056C118.549 65.3668 118.514 65.3046 118.483 65.3007C118.343 65.2774 118.203 65.2735 118.063 65.2502C118.016 65.2424 118.024 65.1919 118.071 65.1453C118.117 65.1025 118.121 65.0598 118.082 65.0365C117.9 64.9276 117.647 65.1025 117.488 64.8888C117.418 64.951 117.344 65.0131 117.274 65.0792C117.196 65.1491 117.099 65.1414 117.006 65.1375C116.878 65.1297 116.901 64.9859 116.847 64.951C116.652 64.8188 116.913 64.5934 116.726 64.4652C116.691 64.4419 116.714 64.3292 116.718 64.2592C116.718 64.2398 116.742 64.2165 116.757 64.2009C116.788 64.1699 116.823 64.1854 116.847 64.2476C116.866 64.2903 116.866 64.3564 116.893 64.3719C116.994 64.4224 116.986 64.3253 117.006 64.2709C117.041 64.1582 117.134 64.1349 117.227 64.1349C117.488 64.131 117.752 64.1349 118.012 64.1349C118.094 64.1349 118.152 64.0338 118.145 63.9211C118.137 63.8201 118.121 63.7307 118.001 63.7113C117.923 63.6996 117.884 63.6569 117.869 63.5714C117.853 63.4781 117.908 63.416 118.059 63.4315C118.312 63.4548 118.588 63.3227 118.805 63.5559C119.136 63.5714 119.466 63.6025 119.765 63.416C119.831 63.3732 119.854 63.3071 119.839 63.2372C119.831 63.2022 119.777 63.1517 119.746 63.1556C119.598 63.1556 119.477 63.1245 119.353 63.0312C119.229 62.938 119.062 63.2178 118.922 63.0157C118.681 63.0934 118.413 63.0934 118.187 63.1867C117.768 63.3654 117.352 63.2761 116.932 63.2566C116.901 63.2566 116.862 63.1439 116.854 63.0817C116.843 63.0157 116.827 62.938 116.905 62.8874L117.41 62.7709C117.511 62.903 117.663 62.6348 117.756 62.8136C117.904 62.7709 118.055 62.7281 118.203 62.6815C118.222 62.6737 118.238 62.6504 118.253 62.6348C118.234 62.6193 118.218 62.596 118.199 62.5882C118.156 62.5727 118.11 62.561 118.063 62.561C117.927 62.561 117.822 62.561 117.942 62.3706C117.993 62.289 117.876 62.2851 117.822 62.2851C117.13 62.2812 116.439 62.2812 115.747 62.2773C115.556 62.2773 115.366 62.2812 115.176 62.2773C114.985 62.2773 115.005 62.1957 115.09 62.0675C115.11 62.0403 115.024 61.9548 115.008 61.8887C114.942 61.6439 114.783 61.5429 114.538 61.5545C114.394 61.5584 114.251 61.5701 114.111 61.5584C113.788 61.5312 113.45 61.6322 113.143 61.434C113.112 61.4146 113.015 61.4729 112.961 61.5118C112.891 61.5584 112.824 61.5545 112.762 61.5195C112.685 61.4768 112.704 61.3952 112.735 61.333C112.813 61.1698 112.894 61.0066 112.976 60.8472C112.7 60.8123 112.688 60.8006 112.793 60.5364C112.84 60.4159 112.758 60.4353 112.708 60.4081C112.549 60.3187 112.545 60.3071 112.607 60.1516C112.622 60.1128 112.646 60.0739 112.669 60.0389C112.626 60.0273 112.58 59.9923 112.541 60.004C112.475 60.0195 112.378 60.105 112.362 60.0895C112.148 59.8757 111.977 60.0972 111.791 60.14C111.729 60.1516 111.643 60.2449 111.62 60.2255C111.391 60.0584 111.064 60.1905 110.85 59.9884C110.881 59.798 111.006 59.7009 111.188 59.6931C111.375 59.6853 111.55 59.6931 111.736 59.7786C112.074 59.934 112.199 59.8602 112.347 59.5648C112.385 59.4871 112.378 59.4405 112.327 59.39C112.242 59.3045 112.152 59.2112 112.028 59.3122C111.927 59.39 111.799 59.4599 111.705 59.4016C111.468 59.254 111.216 59.2695 110.959 59.2617C110.932 59.2617 110.909 59.2073 110.885 59.1801C110.905 59.1646 110.92 59.1374 110.94 59.1335C111.126 59.1179 111.313 59.1102 111.499 59.0946C111.515 59.0946 111.53 59.0674 111.55 59.0519C111.53 59.0363 111.511 59.0091 111.492 59.0091C111.216 58.9975 110.932 58.912 110.668 59.0791C110.648 59.0946 110.586 59.0674 110.559 59.0441C110.446 58.947 110.349 58.978 110.244 59.0635C110.155 59.1374 110.046 59.1296 110.015 59.0247C109.968 58.8653 109.929 58.8653 109.786 58.9314C109.583 59.0247 109.568 59.0052 109.413 58.7915C109.35 58.706 109.304 58.7449 109.253 58.7876C109.152 58.8731 109.071 59.0169 108.911 58.8653C108.888 58.842 108.81 58.8381 108.779 58.8615C108.449 59.083 108.091 58.9392 107.745 58.9392C107.586 58.776 107.454 58.9003 107.306 58.9742C107.201 59.0247 107.073 58.9431 106.976 58.8148C106.906 58.7216 106.836 58.5855 106.743 58.5661C106.541 58.5234 106.323 58.57 106.137 58.4301C106.109 58.4107 106.016 58.4806 105.95 58.5001C105.865 58.5234 105.779 58.5428 105.694 58.5622C105.682 58.6361 105.639 58.6905 105.569 58.6944C105.188 58.7293 104.819 58.7021 104.493 58.4573C104.372 58.3679 104.279 58.4379 104.248 58.5855C104.232 58.6633 104.166 58.706 104.089 58.6827C103.98 58.6477 103.875 58.5972 103.77 58.5467C103.708 58.5195 103.7 58.4728 103.747 58.4456C103.828 58.399 103.914 58.364 103.995 58.3252C104.077 58.2863 104.159 58.2436 104.24 58.2008C104.17 58.1114 104.073 58.1348 103.98 58.1309C103.898 58.1309 103.867 58.0765 103.824 58.0143C103.684 57.8083 103.626 57.7967 103.556 57.9677C103.424 58.2708 103.152 58.3329 102.888 58.4107C102.837 58.4262 102.756 58.3718 102.701 58.3368C102.655 58.3057 102.725 58.1814 102.818 58.127C102.857 58.1037 102.907 58.092 102.942 58.0648C102.981 58.0337 102.965 57.9016 102.923 57.8822C102.647 57.7345 102.359 57.6568 102.048 57.7306C102.017 57.7384 101.998 57.8006 101.982 57.8394C101.959 57.8938 101.982 57.9443 102.037 57.9521C102.153 57.9715 102.27 57.9832 102.386 57.9871C102.468 57.991 102.534 58.0259 102.53 58.0998C102.53 58.162 102.491 58.2358 102.449 58.2824C102.274 58.4495 102.068 58.5467 101.819 58.5545C101.59 58.5622 101.349 58.5234 101.143 58.6827C101.12 58.6982 101.057 58.6672 101.015 58.6555C101.026 58.6166 101.03 58.5739 101.054 58.5389C101.127 58.434 101.116 58.2513 101.314 58.2436C101.368 58.2436 101.423 58.1581 101.477 58.1114C101.493 58.0959 101.516 58.057 101.516 58.0532C101.485 58.0259 101.454 57.991 101.415 57.9793C101.236 57.9133 101.127 58.0881 100.976 58.1114C100.972 57.9793 100.987 57.8278 100.774 57.8433C100.727 57.8433 100.661 57.855 100.638 57.8316C100.509 57.7034 100.405 57.7151 100.304 57.8588C100.237 57.9521 100.167 57.956 100.078 57.8783C99.9887 57.8006 99.911 57.8666 99.8294 57.9094C99.6351 58.0104 99.4408 58.0221 99.2387 57.8977C99.0755 57.7967 98.8967 57.684 98.6869 57.8239C98.6636 57.8394 98.6014 57.8044 98.5664 57.7811C98.3721 57.649 98.1584 57.6529 97.9719 57.7656C97.6765 57.9443 97.3073 57.7073 97.0353 57.956C96.942 57.8899 96.8527 57.8161 96.8216 57.6995C96.7749 57.6995 96.7322 57.6956 96.6856 57.6879C96.6506 57.684 96.3164 57.6879 96.2659 57.6917C96.1959 57.6917 96.1221 57.6917 96.056 57.6762C95.99 57.6645 95.9822 57.6257 96.0172 57.579C96.0949 57.4819 96.091 57.4275 95.9472 57.4158C95.7451 57.3964 95.6052 57.5518 95.4265 57.5985C95.4537 57.6568 95.5159 57.7345 95.5003 57.7734C95.4576 57.8705 95.1894 57.855 95.1311 57.7656C95.0806 57.684 95.1311 57.7928 95.1739 57.7073C95.205 57.6373 95.2283 57.5713 95.1389 57.5596C94.999 57.5441 94.8552 57.5596 94.7114 57.5596C94.591 57.5596 94.4744 57.5596 94.3539 57.548C94.2179 57.5363 94.078 57.5752 93.9459 57.478C93.8137 57.3847 93.7127 57.6062 93.5689 57.548C93.5495 57.5402 93.5184 57.548 93.499 57.5402C93.429 57.5091 93.3863 57.4586 93.394 57.3809C93.4174 57.1166 93.4212 57.1166 93.2542 57.1166C93.087 57.1166 92.885 57.171 92.7645 57.0933C92.5352 56.9495 92.3059 57 92.0767 56.9884C91.964 56.9845 91.8318 56.9806 91.7347 57.0272C91.6103 57.0894 91.6881 57.241 91.6686 57.3537C91.6492 57.4547 91.6064 57.5324 91.5365 57.5946C91.5093 57.6179 91.4665 57.6296 91.4277 57.6373C91.4199 57.6373 91.3927 57.6024 91.3927 57.5829C91.3849 57.5363 91.3927 57.4897 91.3849 57.4391C91.3577 57.0855 91.3461 57.0777 91.0352 57.2332C90.9147 57.2915 90.7943 57.3498 90.6738 57.4042C90.6738 57.4236 90.6699 57.4508 90.6582 57.4625C90.4795 57.6762 90.4639 57.6879 90.2968 57.5169C90.153 57.3692 90.0131 57.377 89.8499 57.443C89.7644 57.478 89.6401 57.4974 89.6012 57.5635C89.5041 57.7423 89.4069 57.8744 89.1776 57.8472C89.1543 57.8472 89.1038 57.9094 89.0999 57.9482C89.0805 58.0726 89.03 58.1231 88.9328 58.0221C88.7929 57.8822 88.6724 57.7461 88.4626 57.9327C88.4043 57.9832 88.2333 58.0026 88.1983 57.9638C88.039 57.7772 87.8758 57.9016 87.7709 57.9754C87.5299 58.1464 87.254 58.1697 87.0325 58.0726C86.7994 57.9715 86.5778 57.9793 86.3447 57.9715C86.1543 57.9638 85.9638 57.9715 85.7734 57.9638C85.7035 57.9638 85.6607 57.9055 85.653 57.8316C85.5131 57.8278 85.346 57.7772 85.2449 57.8394C84.9807 57.9949 84.7009 57.9521 84.425 57.9754C84.3356 57.9832 84.254 58.0376 84.1685 58.0726C84.1024 58.0998 84.0286 58.1192 83.9781 58.057C83.9664 58.0415 84.0169 57.9871 84.0247 57.9443C84.048 57.855 84.0674 57.7656 84.0752 57.6762C84.0752 57.6412 84.0325 57.6024 84.0091 57.5674C83.9936 57.5868 83.9703 57.6024 83.9664 57.6218C83.9042 57.9133 83.706 57.9871 83.4379 57.9638C83.298 57.9521 83.1581 57.9677 83.0299 57.8744C82.9871 57.8433 82.8861 57.8433 82.8394 57.8744C82.7112 57.956 82.548 58.0221 82.4431 57.9327C82.2837 57.7928 82.1827 58.0065 82.0816 57.9599C81.9262 57.886 81.798 57.921 81.6464 57.9599C81.4948 57.9987 81.32 57.9638 81.1568 57.9482C81.0907 57.9405 81.0985 57.9016 81.1412 57.8472C81.1801 57.7967 81.2267 57.7151 81.2112 57.6645C81.1568 57.5013 81.079 57.649 81.0091 57.6645C80.807 57.7112 80.5738 57.6335 80.4029 57.8161C80.1969 57.8006 79.9832 57.8899 79.7811 57.7539C79.7111 57.7073 79.6062 57.6917 79.5168 57.6917C79.3031 57.684 79.0894 57.6917 78.8756 57.6917C78.5453 57.6879 78.2461 57.8977 77.908 57.8472C77.8886 57.8472 77.8652 57.8666 77.8497 57.8822C77.838 57.8938 77.8264 57.9171 77.8303 57.9249C77.8419 57.9443 77.8614 57.9677 77.8808 57.9715C77.9391 57.9871 78.044 57.9871 78.0246 58.0609C78.0051 58.1348 77.9274 58.2552 77.8341 58.2086C77.737 58.1581 77.6865 58.1348 77.601 58.2241C77.5466 58.2824 77.4999 58.399 77.3989 58.3524C77.36 58.3329 77.3639 58.228 77.3523 58.1581C77.3484 58.1348 77.3639 58.1037 77.3523 58.0881C77.329 58.0609 77.2784 58.0182 77.2668 58.0259C77.1657 58.0881 77.0492 58.1736 76.952 58.0609C76.8354 57.9249 76.7616 58.1658 76.6644 58.0726C76.5634 57.9754 76.509 58.057 76.439 58.1192C76.3419 58.2125 76.3613 58.3329 76.338 58.4495C76.3225 58.5234 76.2447 58.5545 76.1709 58.535C76.132 58.5273 76.0932 58.4845 76.0776 58.4495C76.0621 58.4068 76.0737 58.3563 76.0699 58.3096C76.0582 58.1581 76.0504 58.1775 75.8056 58.0648C75.6696 57.9987 75.5452 57.9405 75.4131 58.0259C75.1916 58.1697 74.9779 58.193 74.7525 58.0415C74.5815 58.0765 74.4105 58.193 74.2512 58.0026C74.2356 57.9871 74.1501 58.0026 74.1229 58.0259C74.0064 58.1386 73.8665 58.1309 73.7227 58.127C73.5322 58.1231 73.3418 58.127 73.1514 58.127C73.0154 58.127 72.9299 58.1775 72.9066 58.3213C72.8988 58.3835 72.8522 58.399 72.8094 58.3679C72.7278 58.3135 72.6579 58.2475 72.6268 58.4184C72.5996 58.5739 72.4558 58.6905 72.4713 58.8731C72.4791 58.9703 72.3625 59.0091 72.2576 58.9586C72.176 58.9197 72.0944 58.8032 72.0128 58.8615C71.8729 58.9664 71.7097 58.9703 71.5542 59.0208C71.5348 59.0286 71.5231 59.0519 71.5115 59.0674C71.5503 59.0907 71.5931 59.1102 71.632 59.1374C71.6669 59.1607 71.733 59.184 71.733 59.2073C71.733 59.3045 71.4804 59.4483 71.4027 59.3977C71.3094 59.3394 71.2239 59.2656 71.1967 59.149C71.119 59.1879 71.0452 59.2384 70.9635 59.2578C70.8703 59.2812 70.7926 59.2462 70.7692 59.1413C70.5283 59.2462 70.3573 59.5376 70.0309 59.4288C69.8521 59.6309 69.5801 59.5143 69.3741 59.6192C69.1449 59.7358 68.9195 59.8524 68.6902 59.969C68.6086 60.0117 68.5231 60.0506 68.4454 60.1011C68.4026 60.1283 68.3599 60.1322 68.3327 60.0739C68.2122 59.798 67.7925 59.9379 67.6992 59.6076C67.6798 59.5337 67.4078 59.5376 67.3883 59.6192C67.3223 59.8524 67.1357 59.8408 66.9648 59.8952C66.9376 59.9029 66.9414 60.0117 66.9298 60.0739C67.1785 60.1167 67.2057 60.513 67.5282 60.4431C67.5865 60.4314 67.5982 60.4858 67.5671 60.5364C67.536 60.583 67.4544 60.6413 67.5671 60.6957C67.5865 60.7035 67.6137 60.7073 67.6332 60.7073C67.8197 60.6918 68.0295 60.7734 68.1811 60.6374C68.391 60.4509 68.5114 60.7618 68.6863 60.7035C68.729 60.6879 68.764 60.6491 68.8029 60.6219C68.8456 60.5908 68.8884 60.6063 68.8961 60.6646C68.9039 60.7035 68.8923 60.7851 68.8689 60.789C68.628 60.8589 68.3676 60.8667 68.1384 60.9871C67.5865 60.9405 67.128 61.368 66.5684 61.2941C66.5489 61.2941 66.5295 61.3214 66.5062 61.3252C66.2808 61.3719 66.1059 61.71 65.8222 61.4496C65.7212 61.504 65.558 61.5351 65.5269 61.6206C65.3948 61.947 65.0722 61.9004 64.8352 61.9859C64.6059 62.0675 64.3222 61.9315 64.0929 62.1141C63.9219 61.8732 63.7704 62.0908 63.6072 62.1258C63.4673 62.1569 63.2535 61.9043 63.3352 61.7993C63.5023 61.5856 63.4401 61.3486 63.4712 61.1193C63.4789 61.0493 63.5295 61.0066 63.5994 60.9949C63.6188 60.8978 63.681 60.855 63.7821 60.8511C63.8909 60.8511 64.0036 60.8511 64.0346 60.7151C64.1901 60.6801 64.1707 60.5597 64.1629 60.4431C64.1551 60.3304 64.0891 60.2799 63.9841 60.276C63.852 60.2682 63.751 60.3343 63.681 60.4314C63.6149 60.5208 63.5761 60.6374 63.5139 60.7307C63.4595 60.8084 63.3701 60.8745 63.273 60.8317C63.2263 60.8123 63.1991 60.7268 63.1758 60.6685C63.1603 60.6257 63.1758 60.5674 63.1564 60.5286C63.137 60.4936 63.0942 60.4625 63.0554 60.447C62.9737 60.4198 62.9077 60.4703 62.8999 60.5402C62.8805 60.7073 62.8999 60.8861 62.6395 60.855C62.5968 60.8511 62.5463 60.8706 62.5113 60.8978C62.0916 61.1698 61.6602 61.2747 61.1861 61.0182C61.124 60.9833 61.0035 61.0299 60.918 61.061C60.8558 61.0843 60.8014 61.1426 60.7509 61.1931C60.6499 61.2864 60.5372 61.3058 60.4439 61.2009C60.2807 61.0182 60.1291 60.925 59.9115 61.1348C59.8338 61.2125 59.7094 61.2475 59.6006 61.2903C59.3985 61.3641 59.3092 61.5001 59.3014 61.7177C59.2975 61.8732 59.3519 62.048 59.212 62.1918C59.1537 62.2501 59.2625 62.2968 59.2975 62.3434C59.3519 62.4133 59.4102 62.3978 59.4646 62.3434C59.5346 62.2773 59.589 62.2035 59.5967 62.1025C59.5967 62.083 59.6395 62.0519 59.6395 62.0519C59.6706 62.0753 59.7172 62.0986 59.7211 62.1258C59.7677 62.5105 59.7483 62.5377 59.4024 62.7281C59.2586 62.8058 59.1187 62.8913 58.9827 62.9807C58.9478 63.004 58.9322 63.0545 58.905 63.0895C58.9478 63.1051 58.9905 63.1362 59.0332 63.1362C59.1498 63.1439 59.2703 63.1362 59.3908 63.1439C59.5501 63.1517 59.5501 63.1556 59.5928 63.4315C59.6317 63.4509 59.6861 63.4626 59.6939 63.4898C59.7211 63.5753 59.6978 63.6919 59.7483 63.7579C59.8454 63.8939 59.8688 63.9911 59.7133 64.0999C59.62 64.166 59.5462 64.267 59.4646 64.3486C59.6473 64.6012 59.4452 64.5585 59.2975 64.5857C59.212 64.6012 59.1382 64.6789 59.0488 64.7061C58.8739 64.7605 58.734 64.9121 58.5319 64.8849C58.5164 64.8849 58.497 64.9121 58.4775 64.9276C58.5086 64.9548 58.5358 65.0015 58.5669 65.0054C58.8739 65.0131 59.1809 65.0092 59.4879 65.017C59.5074 65.017 59.554 65.0909 59.5462 65.0986C59.4763 65.1919 59.3558 65.2696 59.3286 65.3745C59.282 65.5533 59.1887 65.596 59.0255 65.5805C58.9555 65.5727 58.8817 65.5766 58.8195 65.5999C58.7029 65.6466 58.8001 65.701 58.8234 65.7515C58.8428 65.7904 58.8584 65.8331 58.8778 65.872C58.9478 65.9147 59.0138 65.9808 59.0877 65.9885C59.2975 66.008 59.3092 66.144 59.3092 66.2955C59.5346 66.3305 59.6939 66.1634 59.8726 66.0779C60.0747 65.9847 60.2302 65.9808 60.374 66.1595C60.4517 66.2567 60.5527 66.3033 60.6848 66.2955C60.8247 66.2878 60.9685 66.3072 61.1123 66.3072C61.2755 66.3072 61.2911 66.4082 61.3066 66.5404C61.326 66.6919 61.3571 66.7152 61.4426 66.6531C61.6447 66.5054 61.9284 66.6919 62.1071 66.4782C62.1227 66.5209 62.1538 66.5598 62.1538 66.6025C62.1538 66.6842 62.1071 66.723 62.0217 66.7347C61.9789 66.7424 61.9439 66.7774 61.9012 66.8007C61.94 66.8241 61.9711 66.859 62.0139 66.8668C62.0838 66.8785 62.1577 66.8823 62.2276 66.8746C62.4336 66.8513 62.5735 66.9173 62.6551 67.1233C62.6862 67.201 62.8494 67.1466 62.8688 67.0456C62.8805 66.9756 62.8688 66.9018 62.8805 66.8318C62.8882 66.8007 62.9388 66.7813 62.9699 66.7619C62.9737 66.7619 63.0048 66.793 63.0165 66.8124C63.168 67.0689 63.3235 67.1 63.4362 66.8785C63.5333 66.6842 63.6499 66.5909 63.8675 66.5909C64.0541 66.5909 64.2717 66.6647 64.4194 66.5365C64.6331 66.3538 64.7652 66.6181 64.9401 66.587C65.0062 66.5753 65.0761 66.5637 65.1422 66.5443C65.2082 66.5248 65.2665 66.486 65.3326 66.4704C65.422 66.4471 65.4725 66.6142 65.5735 66.5326C65.6513 66.4704 65.7562 66.4782 65.83 66.4354C66.0943 66.2955 66.378 66.315 66.6578 66.3111C66.7782 66.3111 66.8948 66.3033 67.0153 66.3111C67.1047 66.3111 67.2562 66.2761 67.2679 66.3694C67.2834 66.4704 67.1357 66.4354 67.058 66.4549C66.8793 66.4976 66.7355 66.6259 66.5256 66.6103C66.3197 66.5948 66.1448 66.7619 65.9194 66.7463C65.7484 66.7347 65.7251 66.8124 65.83 67.03C65.8767 67.1311 65.8222 67.1583 65.764 67.166C65.6474 67.1816 65.5269 67.1777 65.4103 67.1893C65.3909 67.1893 65.3715 67.2165 65.352 67.2282C65.3792 67.2554 65.4064 67.2943 65.4375 67.302C65.5075 67.3137 65.5774 67.3059 65.6513 67.3137C65.6707 67.3137 65.7057 67.3526 65.7018 67.3603C65.6862 67.3914 65.6629 67.4419 65.6357 67.4458C65.5424 67.4575 65.4453 67.4536 65.352 67.4497C65.2432 67.4497 65.2005 67.3914 65.1772 67.2787C65.1111 66.9717 65.0178 66.8862 64.7847 66.8823C64.6176 66.8823 64.4505 66.8823 64.2834 66.8823L63.6266 67.0805C63.4634 67.1699 63.4634 67.3603 63.3662 67.4886C63.3313 67.5313 63.3429 67.578 63.409 67.5857C63.5256 67.6013 63.646 67.5857 63.7626 67.6013C63.8326 67.609 63.8792 67.6634 63.8792 67.7412C63.6305 67.8461 63.409 68.0015 63.1175 68.0404C62.8416 68.0793 62.5812 68.1997 62.2898 68.1686C62.1538 68.157 62.01 68.1453 61.8779 68.2386C61.738 68.3396 61.6408 68.122 61.4931 68.1648C61.4038 68.192 61.2872 68.1609 61.2211 68.2075C61.0462 68.3357 60.8558 68.2969 60.6693 68.3085C60.5255 68.3202 60.3817 68.328 60.2418 68.3085C60.0592 68.2852 59.9581 68.4562 59.7794 68.464C59.5773 68.4718 59.5773 68.5106 59.589 68.7554C59.6006 69.008 59.7794 69.1402 60.0475 69.0702C60.2846 69.008 60.51 68.9808 60.6965 69.1907C60.7392 69.2412 60.817 69.2956 60.8753 69.2917C61.1317 69.2762 61.396 69.3733 61.6408 69.2179C61.7691 69.1363 61.9128 69.1635 62.0411 69.249C62.0799 69.2723 62.1421 69.3073 62.1693 69.2917C62.3869 69.1596 62.554 69.2917 62.7289 69.3811C62.8338 69.4355 62.9388 69.486 63.0398 69.5404C63.2458 69.6531 63.5023 69.5404 63.6966 69.6998C63.8559 69.5482 64.0541 69.5832 64.2406 69.6065C64.4543 69.6337 64.6098 69.556 64.7341 69.3928C64.7885 69.3228 64.8507 69.35 64.909 69.3928C64.9945 69.4627 65.0839 69.4627 65.1655 69.3928C65.2393 69.3345 65.3015 69.2606 65.3792 69.2062C65.387 69.2023 65.3909 69.1985 65.3948 69.1946C65.3948 69.2023 65.3948 69.2179 65.4298 69.2295C65.4453 69.2373 65.4608 69.2762 65.4531 69.2878C65.4103 69.3889 65.3598 69.4899 65.3132 69.5909C65.2432 69.6415 65.1616 69.6881 65.1033 69.7503C64.9673 69.8902 65.0295 70.0689 65.0528 70.2244C65.0683 70.3176 65.2082 70.2943 65.2976 70.3138C65.3637 70.3254 65.4259 70.3643 65.4842 70.4031C65.523 70.4265 65.5697 70.4731 65.5697 70.5081C65.5697 70.5936 65.4919 70.5897 65.4259 70.5936C65.3326 70.5936 65.2199 70.5936 65.1927 70.7024C65.1655 70.7995 65.1111 70.8695 65.045 70.9355C64.9712 71.0094 64.8857 71.0249 64.7847 71.0171C64.6759 71.0094 64.6176 70.9627 64.5981 70.85C64.5826 70.7645 64.5204 70.7568 64.4582 70.8151C64.4077 70.8656 64.3611 70.9239 64.3028 70.9588C64.2484 70.9899 64.1707 71.0133 64.1124 70.9977C64.0346 70.9783 63.9764 70.8578 63.8792 70.9588C63.8015 71.0405 63.6383 70.9977 63.6033 71.1493C63.5955 71.192 63.5605 71.2309 63.5372 71.2697C63.5061 71.2114 63.475 71.157 63.4478 71.0988C63.4129 71.0366 63.3624 71.0288 63.3507 71.0871C63.3079 71.3164 63.137 71.3241 62.9776 71.2853C62.4336 71.1454 62.4336 71.1376 61.9789 71.2697C61.7924 71.3241 61.6097 71.3397 61.4387 71.2153C61.3299 71.1337 61.1978 71.1376 61.1084 71.1959C60.9802 71.2775 60.8519 71.2969 60.7082 71.3125C60.6149 71.3203 60.5683 71.4407 60.6343 71.5301C60.7354 71.6739 60.7587 71.8915 60.988 71.9226C61.1512 72.1247 61.3688 72.1713 61.6175 72.1597C61.8779 72.148 62.1421 72.1286 62.4025 72.1597C62.6745 72.1946 62.8688 71.942 63.1486 72.0003C63.3507 72.0431 63.4245 71.7128 63.6266 71.7516C63.8248 71.7905 64.0036 71.9615 64.2095 71.7827C64.2484 71.7477 64.2756 71.771 64.3261 71.8021C64.5243 71.9109 64.7264 71.8993 64.9284 71.7905C65.0373 71.7322 65.0178 71.841 65.045 71.8954C65.0645 71.9343 65.1111 72.0081 65.1189 72.0042C65.2937 71.9343 65.5308 71.9731 65.6202 71.74C65.83 71.7361 66.0399 71.7322 66.2497 71.7244C66.3857 71.7205 66.4751 71.771 66.4868 71.9187C66.6772 72.0431 66.8754 72.2374 67.1047 72.1247C67.2912 72.0314 67.4622 72.0314 67.6487 72.0236C67.8119 72.0159 68.0023 72.0508 68.1306 71.977C68.3599 71.8449 68.5969 71.8604 68.8145 71.8876C69.0399 71.9148 69.2265 71.6972 69.4713 71.8527C69.5918 71.9265 69.7938 71.8799 69.957 71.8721C70.1514 71.8604 70.2796 72.0664 70.4778 72.012C70.4894 71.9576 70.5011 71.8993 70.5788 71.9187C70.6021 71.9265 70.6138 71.977 70.6293 72.012C70.6682 72.0275 70.7148 72.0392 70.742 72.0703C70.8392 72.1713 70.9402 72.1869 71.049 72.0897C71.119 72.0275 71.1889 71.9653 71.2628 71.8993C71.391 72.0508 71.4998 71.9148 71.6203 71.8837C71.7485 71.8527 71.9467 72.0897 71.8962 72.2102C71.8807 72.2451 71.8301 72.284 71.7913 72.2879C71.7213 72.2996 71.6242 72.3112 71.5853 72.2762C71.4415 72.148 71.3405 72.1907 71.2433 72.3229C71.1773 72.4122 71.1034 72.4317 71.0179 72.3462C70.9597 72.2879 70.8897 72.2957 70.8275 72.3306C70.7343 72.385 70.7926 72.5755 70.6177 72.5755C70.5011 72.5755 70.3806 72.5832 70.264 72.5871C70.2407 72.5871 70.2174 72.5871 70.198 72.5871C70.0814 72.762 70.0231 72.762 69.9143 72.5871C69.8677 72.5871 69.821 72.5794 69.7705 72.5755C69.7239 72.4356 69.6423 72.3306 69.4829 72.3034C69.4713 72.3695 69.4285 72.4161 69.3625 72.4317C69.2925 72.4472 69.2187 72.4317 69.1526 72.4511C69.1177 72.4589 69.0788 72.5094 69.0671 72.5483C69.0438 72.6221 69.0866 72.6882 69.1565 72.7076C69.2226 72.727 69.3003 72.7076 69.3664 72.727C69.3974 72.7348 69.4247 72.7775 69.4519 72.8047C69.3508 72.898 69.3702 73.0884 69.2187 73.1312C69.1371 73.1545 69.0205 73.1389 68.9505 73.0923C68.7679 72.9718 68.6202 72.9874 68.4376 73.1001C68.2005 73.2478 67.9363 73.3294 67.6409 73.2944C67.4311 73.2711 67.1902 73.3488 67.0114 73.2711C66.7821 73.1739 66.5761 73.1001 66.3508 73.2206C66.1487 73.3255 65.8883 73.3022 65.7368 73.5159C65.7096 73.5548 65.5852 73.5781 65.5502 73.5509C65.4375 73.4615 65.3559 73.4693 65.2627 73.5742C65.1616 73.6908 65.0567 73.7257 64.8935 73.648C64.6564 73.5392 64.3999 73.5198 64.159 73.6636C64.023 73.7452 63.887 73.7296 63.7665 73.6403C63.6888 73.582 63.6538 73.6403 63.5916 73.6597C63.51 73.6908 63.4206 73.7024 63.3313 73.7219C63.2691 73.92 63.0437 74.0172 63.0009 74.2348C62.9971 74.262 62.8727 74.2892 62.8144 74.2776C62.725 74.262 62.6473 74.1999 62.5579 74.1765C62.3986 74.1338 62.2237 74.0794 62.0838 74.1882C61.9051 74.3242 61.7535 74.3164 61.567 74.1998C61.4737 74.1416 61.4737 74.2543 61.4698 74.3125C61.4659 74.4291 61.4543 74.5496 61.6253 74.5729C61.7147 74.5846 61.804 74.6157 61.8895 74.6506C62.1227 74.7556 62.3908 74.705 62.6201 74.8488C62.7056 74.9032 62.8533 74.8488 62.9699 74.8605C63.0748 74.8644 63.1525 74.8333 63.2186 74.7517C63.3118 74.6351 63.4129 74.5574 63.5528 74.6895C63.6771 74.6234 63.8015 74.5651 63.9219 74.4913C63.9686 74.4602 63.988 74.468 64.0385 74.503C64.1124 74.5535 64.2056 74.5807 64.2911 74.6234C64.5204 74.74 64.7341 74.9032 64.979 74.9654C65.2354 75.0315 65.422 74.74 65.6785 74.7128C65.7445 74.705 65.8145 74.6856 65.8767 74.6545C65.9777 74.604 66.1215 74.569 66.1642 74.4835C66.2303 74.3553 66.2458 74.3436 66.3974 74.3864C66.7666 74.4874 66.8326 74.4563 67.5282 74.1882C67.6293 74.1493 67.7031 74.1532 67.7808 74.2232C67.8586 74.2931 67.9479 74.3087 68.0295 74.2309C68.1228 74.1416 68.2394 74.1182 68.3599 74.1377C68.5231 74.1688 68.6358 74.091 68.7213 73.9706C68.8301 73.8229 68.9039 73.9395 69.005 73.9783C69.0943 74.0133 69.1798 73.9706 69.1993 73.8618C69.3353 73.8618 69.4829 73.8074 69.5995 73.9162C69.72 74.0289 69.8677 73.9939 70.0076 73.9939C70.1125 73.9939 70.1863 73.955 70.2058 73.8384C70.2135 73.7996 70.2524 73.7296 70.2796 73.7296C70.5166 73.7257 70.7498 73.7296 70.9869 73.7335C71.1423 73.9511 71.2628 73.6985 71.4066 73.7024C71.461 73.7024 71.4804 73.6286 71.4415 73.6092C71.2977 73.5353 71.1462 73.4732 70.9985 73.4032C70.9791 73.3915 70.9635 73.3721 70.9441 73.3566C70.9597 73.341 70.9713 73.3177 70.9869 73.3138C71.2433 73.2555 71.5076 73.1972 71.7136 73.4304C71.8457 73.5781 72.0011 73.5703 72.1682 73.5625C72.1915 73.5625 72.2188 73.5625 72.2382 73.5625C72.2615 73.5586 72.2965 73.5392 72.2965 73.5314C72.2965 73.4965 72.2887 73.4537 72.2654 73.4265C72.2226 73.3682 72.1721 73.3177 72.1216 73.2672C72.0672 73.2167 72.075 73.1856 72.1449 73.1661C72.3625 73.1117 72.5607 73.1545 72.7511 73.275C72.7783 73.2905 72.8366 73.2555 72.8794 73.2439C72.8677 73.205 72.8677 73.1545 72.8405 73.1312C72.79 73.0768 72.79 73.0496 72.8522 73.0301C72.9221 73.0107 72.9804 73.0185 73.0504 73.0535C73.2369 73.1506 73.2447 73.1428 73.3574 72.9796C73.4001 72.9174 73.439 72.863 73.5167 72.8747C73.5595 72.8825 73.5983 72.9136 73.6411 72.9291C73.9364 73.0224 74.2356 73.069 74.5232 72.9019C74.5932 72.863 74.6748 72.8319 74.7175 72.8786C74.8574 73.034 75.0867 72.9602 75.2305 73.0884C75.316 73.1662 75.4053 73.1389 75.4831 73.0729C75.5919 72.9796 75.6968 72.8825 75.7978 72.7814C75.8833 72.6959 75.9261 72.7892 75.9649 72.8281C76.1165 72.9835 76.1087 73.0457 75.93 73.1428C75.7978 73.2128 75.7901 73.2361 75.8833 73.3216C75.93 73.3643 75.9727 73.4382 76.0582 73.3643C76.1981 73.24 76.2875 73.0146 76.4934 73.0224C76.7927 73.0301 77.0919 72.9369 77.3989 73.0884C77.6515 73.2128 77.9507 73.2128 78.18 72.9602C78.2228 72.9136 78.3005 72.8669 78.3627 72.8669C78.623 72.8591 78.8834 72.8669 79.1438 72.8669C79.2603 73.0496 79.4002 72.8281 79.4935 72.8747C79.715 72.9874 79.8899 72.9058 80.057 72.7931C80.1736 72.7154 80.2552 72.7076 80.3718 72.7814C80.4456 72.8281 80.5466 72.8358 80.6399 72.8475C80.7604 72.863 80.7953 72.933 80.7915 73.0379C80.7915 73.0845 80.7876 73.1351 80.7953 73.1817C80.807 73.2478 80.8303 73.3138 80.8498 73.3799C80.9586 73.3333 80.9275 73.2361 80.9314 73.1506C80.9314 73.104 80.9236 73.0535 80.9314 73.0068C80.9391 72.9641 80.9586 72.9136 80.9897 72.8902C81.0207 72.8669 81.079 72.8553 81.1218 72.863C81.1878 72.8747 81.1956 72.9174 81.1606 72.9602C81.1334 72.999 81.0946 73.0379 81.0868 73.0807C81.0713 73.1506 81.0751 73.2283 81.1529 73.2633C81.25 73.306 81.4521 73.275 81.491 73.2206C81.5454 73.1428 81.491 73.2478 81.4521 73.1623C81.4249 73.104 81.3588 73.0573 81.4327 72.9913C81.6309 72.8086 81.8524 72.7037 82.1322 72.7154C82.2682 72.7231 82.3576 72.7465 82.3731 72.9019C82.3809 72.968 82.4275 72.9757 82.4741 72.9369C82.513 72.9097 82.5713 72.8553 82.5907 72.8669C82.7617 72.9641 83.0104 72.9136 83.0959 73.1778C83.1387 73.3099 83.2669 73.2983 83.3485 73.1545C83.399 73.069 83.4107 72.9602 83.5001 73.1195C83.5273 73.17 83.5078 73.2905 83.6205 73.2089C83.7527 73.1156 83.947 73.1195 84.0286 72.9524C84.0597 72.8902 84.0674 72.7931 84.118 72.7698C84.2229 72.7154 84.2695 72.8358 84.3317 72.8902C84.4094 72.9563 84.4949 72.999 84.5921 72.9835C84.833 72.9369 85.0623 72.7542 85.3149 72.9485C85.5208 72.7698 85.7695 72.8475 85.9988 72.8475C86.2553 72.8475 86.5273 72.7892 86.7527 72.9796C86.9626 72.9563 87.1763 73.034 87.3784 72.9174C87.4367 72.8825 87.5105 72.863 87.5766 72.8591C87.8136 72.8475 88.0584 72.8164 88.2916 72.8514C88.5675 72.8902 88.7929 72.7387 89.0455 72.7192C89.2359 72.7037 89.4264 72.7115 89.6168 72.7115C89.7839 72.7115 89.951 72.7037 90.1181 72.7076C90.3085 72.7076 90.5261 72.661 90.6854 72.7348C90.872 72.8203 91.0196 72.8436 91.1945 72.7542C91.5948 72.9952 91.9717 72.7814 92.3331 72.6571C92.6868 72.5366 93.0249 72.5405 93.363 72.6415C93.4795 72.6765 93.5845 72.7076 93.7049 72.7076C93.8487 72.7076 94.0353 72.6571 94.1246 72.7309C94.3034 72.8747 94.4239 72.7076 94.5715 72.7115C94.6182 72.7115 94.6687 72.7037 94.7153 72.7192C95.1972 72.8591 95.1972 72.8669 95.7218 72.7465C95.92 72.9097 96.1065 72.6182 96.297 72.7309C96.4058 72.7931 96.4835 72.7737 96.604 72.7542C96.9265 72.6998 97.2529 72.6687 97.5794 72.8047C97.8203 72.9058 98.104 72.9058 98.341 72.8047C98.5043 72.7348 98.6597 72.7192 98.819 72.7231C99.1455 72.7348 99.4835 72.6299 99.7867 72.8397C99.8022 72.8514 99.8411 72.8514 99.8566 72.8397C100.078 72.6415 100.385 72.797 100.599 72.6843C100.855 72.5483 101.108 72.5871 101.361 72.5755C101.621 72.5638 101.885 72.5755 102.149 72.5755C102.309 72.8009 102.53 72.5871 102.713 72.6571C102.942 72.7426 103.179 72.6959 103.412 72.7192C103.506 72.7309 103.599 72.7426 103.684 72.7775C103.89 72.8708 104.089 72.8825 104.295 72.7737C104.5 72.661 104.769 72.7581 104.959 72.5755C104.994 72.5405 105.122 72.5483 105.165 72.5871C105.352 72.7503 105.569 72.6882 105.779 72.7076C106.129 72.7426 106.494 72.626 106.82 72.8397C107.221 72.8397 107.625 72.9291 108.006 72.7192C108.216 72.762 108.254 72.5677 108.363 72.4628C108.526 72.5949 108.732 72.5949 108.911 72.5638C109.21 72.5172 109.451 72.7037 109.735 72.7037C110.213 72.7037 110.687 72.7037 111.165 72.7115C111.293 72.7115 111.394 72.6765 111.48 72.5794C111.558 72.4861 111.682 72.4589 111.775 72.3967C111.938 72.284 112.047 72.2801 112.218 72.3812C112.366 72.4667 112.541 72.4356 112.654 72.2723C112.77 72.1091 112.949 72.0858 113.1 72.148C113.341 72.2451 113.594 72.2646 113.835 72.3306C114.305 72.4628 114.538 72.4667 115.067 72.3151C115.137 72.2957 115.199 72.2801 115.265 72.3268C115.521 72.5211 115.821 72.3812 116.097 72.4161C116.236 72.4317 116.372 72.4317 116.501 72.3268C116.598 72.2451 116.777 72.2374 116.819 72.3345C116.936 72.6182 117.115 72.6066 117.317 72.4783C117.418 72.4161 117.437 72.5016 117.492 72.5249C117.608 72.5755 117.729 72.591 117.826 72.5133C117.9 72.455 117.682 72.3695 117.814 72.3034C117.892 72.2646 118.024 72.3034 118.082 72.2529C118.3 72.0703 118.498 71.8604 118.704 71.6622C118.669 71.5573 118.623 71.4563 118.603 71.3475C118.576 71.2153 118.681 71.1143 118.809 71.1376C119.038 71.1765 119.248 71.3047 119.489 71.2775C119.505 71.2775 119.528 71.3008 119.544 71.3164C119.575 71.3475 119.555 71.4058 119.497 71.4058C119.283 71.398 119.357 71.6933 119.178 71.7089C119.174 71.7749 119.174 71.8449 119.159 71.9071C119.143 71.9731 119.108 71.9731 119.058 71.942C119.007 71.9109 118.945 71.8332 118.891 71.9343C118.836 72.0353 118.786 72.1402 118.751 72.249C118.727 72.3229 118.774 72.3967 118.844 72.4122C118.98 72.4395 119.124 72.4356 119.264 72.4628C119.353 72.4783 119.435 72.5327 119.524 72.5521C119.625 72.5794 119.73 72.5133 119.738 72.4278C119.746 72.3073 119.746 72.1907 119.75 72.0703C119.753 71.9265 119.68 71.8604 119.544 71.8371C119.481 71.8254 119.47 71.7672 119.509 71.7438C119.606 71.6817 119.738 71.6506 119.8 71.5651C119.924 71.398 120.022 71.5029 120.142 71.5534C120.216 71.5884 120.274 71.534 120.262 71.4563C120.255 71.4019 120.138 71.3591 120.247 71.2853C120.527 71.0871 120.888 71.1842 121.18 71.0094C121.226 70.9783 121.351 71.0949 121.421 71.0754C121.553 71.0366 121.673 70.955 121.79 70.8772C121.918 70.7956 121.914 70.6013 121.778 70.5158C121.603 70.407 121.432 70.2749 121.207 70.2749L121.168 70.3099ZM117.406 66.4471C117.406 66.4471 117.41 66.4393 117.414 66.4316L117.426 66.4432C117.426 66.4432 117.414 66.4432 117.406 66.4432C117.395 66.4743 117.379 66.5054 117.363 66.5365C117.363 66.5404 117.321 66.5365 117.321 66.5326C117.309 66.4549 117.356 66.4471 117.406 66.4432V66.4471ZM116.909 62.6076C116.909 62.6076 116.936 62.6193 116.948 62.6271C116.948 62.6426 116.948 62.6543 116.944 62.6698C116.917 62.6621 116.889 62.6504 116.862 62.6426C116.878 62.631 116.889 62.6115 116.909 62.6076ZM114.639 62.1763C114.639 62.1763 114.667 62.2035 114.682 62.2152C114.667 62.2268 114.651 62.2385 114.635 62.2501C114.62 62.2424 114.608 62.2385 114.593 62.2307C114.608 62.2113 114.624 62.1918 114.639 62.1763ZM114.55 62.7126C114.55 62.7126 114.554 62.7126 114.558 62.7126C114.558 62.7126 114.558 62.7165 114.558 62.7203C114.628 62.7203 114.694 62.7165 114.764 62.7203C114.958 62.7359 115.075 62.5144 115.292 62.5649C115.451 62.6038 115.622 62.5766 115.79 62.5804C115.98 62.5804 116.17 62.5766 116.357 62.5804C116.54 62.5843 116.61 62.7359 116.532 62.9302C116.524 62.9496 116.501 62.9652 116.485 62.9807C116.47 62.9652 116.439 62.9496 116.435 62.9302C116.411 62.8058 116.361 62.7126 116.209 62.7281C116.116 62.7359 116.011 62.7048 115.929 62.7359C115.825 62.7747 115.739 62.8602 115.607 62.8564C115.277 62.8408 114.946 62.8408 114.616 62.8253C114.597 62.8253 114.577 62.7631 114.558 62.7242C114.558 62.7242 114.554 62.7242 114.55 62.7242C114.55 62.7242 114.55 62.7203 114.55 62.7165C114.484 62.7165 114.418 62.7165 114.352 62.7126C114.332 62.7126 114.301 62.6698 114.305 62.6659C114.325 62.6348 114.348 62.5921 114.379 62.5843C114.484 62.561 114.546 62.6038 114.55 62.7165V62.7126ZM114.278 62.0131C114.313 62.0325 114.344 62.0558 114.379 62.0753C114.313 62.1297 114.243 62.1879 114.173 62.2385C114.173 62.2385 114.134 62.2074 114.13 62.1879C114.122 62.1646 114.122 62.1374 114.13 62.118C114.142 62.0558 114.2 62.0092 114.282 62.0131H114.278ZM111.721 61.2903C111.779 61.2903 111.806 61.2903 111.83 61.298C111.872 61.3136 111.911 61.3408 111.95 61.3602C111.911 61.3835 111.872 61.4068 111.83 61.4263C111.81 61.434 111.779 61.434 111.76 61.4263C111.694 61.4068 111.631 61.3796 111.569 61.3563C111.631 61.3291 111.69 61.3058 111.721 61.2903ZM110.874 61.3252C110.874 61.3252 110.909 61.3175 110.92 61.3252C110.955 61.3486 110.948 61.3796 110.893 61.3991C110.885 61.3991 110.862 61.3758 110.854 61.3563C110.854 61.3486 110.866 61.333 110.874 61.3214V61.3252ZM110.722 60.0467C110.738 60.0234 110.78 60.0156 110.815 60.004C110.815 60.0001 110.815 59.9923 110.819 59.9884L110.831 60.0001C110.827 60.0001 110.819 60.0001 110.815 60.004C110.804 60.0389 110.796 60.0778 110.773 60.0933C110.734 60.1167 110.699 60.0817 110.722 60.0467ZM110.139 61.2087C110.139 61.2087 110.637 61.3175 110.637 61.3214C110.641 61.3369 110.648 61.3524 110.648 61.3719C110.644 61.4379 110.45 61.5662 110.372 61.5545C110.256 61.539 110.131 61.403 110.12 61.2747C110.12 61.2553 110.131 61.232 110.143 61.2125L110.139 61.2087ZM109.906 61.3136C109.906 61.3136 109.933 61.3408 109.949 61.3563C109.933 61.368 109.918 61.3796 109.902 61.3913C109.887 61.3835 109.871 61.3758 109.859 61.3719C109.875 61.3524 109.891 61.333 109.906 61.3175V61.3136ZM67.7731 60.2488C67.7459 60.2294 67.7381 60.1788 67.7225 60.14C67.6565 60.14 67.5865 60.14 67.5205 60.1283C67.501 60.1283 67.4738 60.0856 67.4738 60.0856C67.4972 60.0545 67.5205 60.0156 67.5516 60.0079C67.6604 59.9806 67.7187 60.0312 67.7225 60.1439C67.7614 60.1594 67.8119 60.1672 67.8275 60.1983C67.8508 60.2371 67.8119 60.276 67.7731 60.2527V60.2488ZM63.9414 60.6102C63.9647 60.6257 63.9725 60.6646 63.9841 60.6996C63.9919 60.6996 63.9958 60.6996 64.0036 60.7035L63.9919 60.7151C63.9919 60.7151 63.9919 60.7035 63.988 60.6957C63.953 60.684 63.9142 60.6801 63.8947 60.6568C63.8675 60.6219 63.9025 60.583 63.9453 60.6063L63.9414 60.6102ZM64.3028 64.3603C64.3378 64.3408 64.3727 64.3098 64.4116 64.3059C64.4971 64.2942 64.5632 64.3486 64.5243 64.3875C64.4971 64.4147 64.4466 64.4341 64.4116 64.4263C64.3727 64.4225 64.3416 64.3836 64.3067 64.3603H64.3028ZM62.6357 61.7333C62.659 61.7683 62.6784 61.8071 62.7017 61.8421C62.6862 61.8809 62.6706 61.9198 62.6551 61.9587C62.6279 61.9392 62.5696 61.9159 62.5735 61.9043C62.5851 61.846 62.6162 61.7877 62.6357 61.7333ZM62.0294 61.7721C62.0605 61.7799 62.1149 61.7916 62.1188 61.811C62.1305 61.8693 62.1266 61.9315 62.1227 61.9898C62.1266 61.9898 62.1305 61.9898 62.1382 61.9898C62.1382 61.9975 62.1421 62.0014 62.146 62.0092C62.1965 62.0092 62.2432 62.0208 62.2315 62.0947C62.2315 62.0986 62.1888 62.1063 62.1888 62.0986C62.1732 62.0714 62.1616 62.0364 62.146 62.0092C62.1382 62.0092 62.1305 62.0092 62.1227 62.0092C62.1227 62.0014 62.1227 61.9975 62.1227 61.9898C62.0294 61.9781 61.9828 61.9198 61.9944 61.8188C61.9944 61.7993 62.0217 61.7683 62.0294 61.7721ZM61.3455 61.8809C61.3455 61.8809 61.3766 61.9159 61.3921 61.9315C61.3766 61.947 61.3571 61.9587 61.3416 61.9742C61.326 61.9587 61.3027 61.9392 61.3027 61.9276C61.3027 61.912 61.3299 61.8965 61.3494 61.8809H61.3455ZM60.0747 65.6815C60.0553 65.666 60.0359 65.6505 60.0125 65.6388C60.0281 65.6271 60.0436 65.6038 60.0553 65.6038C60.0708 65.6038 60.0825 65.631 60.0942 65.6427C60.0864 65.6543 60.0786 65.6699 60.0708 65.6815H60.0747ZM60.2224 64.9665C60.1524 65.0559 60.0747 65.1453 59.9465 65.1297C59.9115 65.1258 59.8649 65.087 59.8532 65.0559C59.8416 65.0209 59.8493 64.9587 59.8726 64.9315C59.9581 64.8383 60.0747 64.8577 60.1874 64.8771C60.2068 64.8771 60.2224 64.9043 60.2418 64.916C60.2341 64.9354 60.2341 64.9548 60.2224 64.9704V64.9665ZM60.2379 64.6595C60.2185 64.7061 60.1796 64.6984 60.1369 64.6517C60.0475 64.5585 59.9309 64.5779 59.8182 64.5662C59.7833 64.5662 59.7522 64.5235 59.7172 64.5002C59.7561 64.4807 59.791 64.4497 59.8299 64.438C59.8726 64.4263 59.9193 64.438 59.9659 64.438C60.032 64.438 60.1058 64.4302 60.168 64.4458C60.203 64.4535 60.2418 64.5002 60.2535 64.5351C60.2651 64.574 60.2535 64.6206 60.2341 64.6595H60.2379ZM60.339 62.4017C60.3195 62.3434 60.2923 62.289 60.2807 62.2307C60.2807 62.2229 60.3351 62.1996 60.3662 62.1879C60.3817 62.2268 60.4089 62.2657 60.405 62.3006C60.4012 62.3356 60.3623 62.3706 60.339 62.4017ZM61.7729 65.4367C61.7496 65.4717 61.703 65.4911 61.6758 65.5222C61.6292 65.5688 61.5981 65.565 61.5786 65.5028C61.5709 65.4834 61.5709 65.4639 61.567 65.4484C61.5631 65.3629 61.6136 65.324 61.6836 65.3163C61.7224 65.3124 61.7652 65.3318 61.804 65.3396C61.7963 65.3745 61.7963 65.4134 61.7768 65.4406L61.7729 65.4367ZM66.5528 64.9199C66.5179 64.9626 66.409 65.0054 66.3741 64.982C66.2691 64.9199 66.1992 64.8694 66.0787 64.9743C65.9893 65.052 65.8456 65.0365 65.7484 64.9587C65.6513 64.881 65.5969 64.916 65.5191 64.9859C65.3598 65.1258 65.3481 65.1297 65.1927 64.9859C65.0606 64.8616 65.0101 64.8888 64.979 65.0559C64.9712 65.0909 64.9168 65.1375 64.8818 65.1414C64.7652 65.1569 64.6448 65.1491 64.5243 65.1569C64.2445 65.1686 63.9686 65.1414 63.6966 65.2774C63.5605 65.3435 63.3079 65.3862 63.2535 65.0909C63.238 65.017 63.137 65.0054 63.0709 65.0287C62.9854 65.0598 62.8999 65.1064 62.8261 65.1647C62.6434 65.3124 62.4297 65.2968 62.216 65.3046C62.0761 65.3124 62.0061 65.2463 61.9711 65.1064C61.9517 65.0209 61.8895 64.951 61.8429 64.8732C61.5165 64.8694 61.1861 64.7916 60.8791 64.9898C60.8092 65.0365 60.6965 64.9548 60.7004 64.8383C60.7043 64.6673 60.646 64.574 60.475 64.5546C60.4556 64.5546 60.4439 64.5235 60.4284 64.5079C60.4478 64.4924 60.4672 64.4691 60.4866 64.4691C60.5799 64.4652 60.6732 64.4497 60.7626 64.4691C60.8636 64.4885 61.3804 64.4846 61.4931 64.4574C61.5825 64.438 61.6836 64.4263 61.7729 64.4419C61.8779 64.4574 61.9828 64.5274 62.0877 64.5313C62.1732 64.5313 62.2587 64.473 62.3442 64.4419C62.3636 64.4341 62.3947 64.438 62.4141 64.4458C62.4569 64.4652 62.5191 64.4807 62.5268 64.5118C62.5502 64.574 62.5579 64.6556 62.4841 64.6984C62.4258 64.7333 62.3559 64.7489 62.2976 64.7916C62.2548 64.8227 62.2781 64.9704 62.3287 64.9743C62.4686 64.982 62.6085 65.0015 62.7484 64.9898C62.8222 64.982 62.8377 64.8966 62.8338 64.8227C62.8338 64.745 62.6512 64.6945 62.7833 64.6012C62.83 64.5701 62.9116 64.5896 62.9815 64.5896C62.9815 64.5896 62.9815 64.5818 62.9815 64.5779C62.9854 64.5779 62.9893 64.5779 62.9971 64.5779C63.0126 64.5351 63.0243 64.4769 63.0398 64.473C63.203 64.4535 63.3662 64.4341 63.5295 64.4419C63.681 64.4497 63.8054 64.4225 63.9219 64.3253C63.9725 64.2826 64.1163 64.3331 64.1007 64.3642C64.0813 64.4069 64.0424 64.438 64.0113 64.4769C63.9453 64.5546 63.8675 64.5857 63.7626 64.5818C63.5061 64.5779 63.2497 64.5818 62.9932 64.5779C62.9932 64.5779 62.9932 64.5857 62.9932 64.5896C62.9932 64.5896 62.9854 64.5896 62.9815 64.5896C62.9815 64.6595 62.9737 64.7333 63.0009 64.7916C63.0476 64.8927 63.1564 64.8771 63.2497 64.8732C63.3196 64.8732 63.4168 64.8927 63.4595 64.8577C63.6422 64.7022 63.8598 64.7372 64.0696 64.7295C64.2795 64.7217 64.5049 64.7683 64.672 64.5857C65.0023 64.5973 65.3365 64.5973 65.6629 64.6362C65.7523 64.6478 65.8106 64.6517 65.9039 64.6362C66.1331 64.5934 66.3741 64.6012 66.6072 64.5934C66.6306 64.5934 66.6772 64.6595 66.6694 64.6789C66.6422 64.7683 66.6111 64.8616 66.5528 64.9315V64.9199ZM67.0969 64.675C67.0153 64.6906 67.0114 64.6401 67.0075 64.5896C67.0036 64.5896 66.9997 64.5857 66.9958 64.5818C66.9958 64.5779 66.9958 64.5701 66.992 64.5662C66.957 64.5546 66.9142 64.5507 66.8948 64.5235C66.8676 64.4885 66.9065 64.4497 66.9492 64.473C66.9725 64.4885 66.9803 64.5313 66.992 64.5662C66.9958 64.5662 67.0036 64.5662 67.0075 64.5701C67.0075 64.5779 67.0075 64.5818 67.0075 64.5896C67.0386 64.6012 67.0736 64.6129 67.1047 64.6323C67.1085 64.6323 67.1047 64.675 67.1008 64.6789L67.0969 64.675ZM63.8986 67.8267C63.8753 67.8111 63.8675 67.7723 63.8598 67.7412C63.852 67.7412 63.8481 67.7412 63.8403 67.7373L63.852 67.7256C63.852 67.7256 63.852 67.7373 63.8559 67.7451C63.8909 67.7567 63.9297 67.7645 63.9453 67.7839C63.9725 67.8228 63.9336 67.8578 63.8947 67.8306L63.8986 67.8267ZM64.7575 67.815C64.738 67.8111 64.7147 67.7451 64.7186 67.7101C64.7186 67.6751 64.7575 67.644 64.7808 67.6129C64.8002 67.644 64.8313 67.6751 64.8391 67.7062C64.8468 67.7606 64.8391 67.8306 64.7613 67.815H64.7575ZM65.3365 69.692C65.3132 69.6764 65.3054 69.6337 65.2937 69.5987C65.2899 69.5987 65.2821 69.5987 65.2782 69.5948L65.2899 69.5832C65.2899 69.5832 65.2899 69.5948 65.2937 69.5987C65.3287 69.6104 65.3715 69.6181 65.387 69.6415C65.4142 69.6803 65.3753 69.7192 65.3365 69.692ZM65.5619 71.7438C65.5619 71.7438 65.558 71.7322 65.5541 71.7244C65.5075 71.7166 65.4531 71.7166 65.4686 71.635C65.4686 71.6311 65.5114 71.6273 65.5152 71.635C65.5308 71.6622 65.5424 71.6933 65.5541 71.7244C65.5619 71.7244 65.5697 71.7244 65.5774 71.7283L65.5619 71.7438ZM65.7601 69.5404C65.7445 69.5016 65.7173 69.4627 65.7212 69.4277C65.7251 69.3928 65.764 69.3617 65.7989 69.315C65.8184 69.385 65.8378 69.4394 65.8417 69.4977C65.8417 69.5093 65.7873 69.5249 65.7562 69.5404H65.7601ZM66.6344 70.4226C66.6344 70.4226 66.6034 70.3915 66.5878 70.3721C66.6034 70.3565 66.6228 70.3293 66.6383 70.3293C66.6578 70.3293 66.6694 70.3604 66.685 70.3759C66.6655 70.3915 66.65 70.407 66.6306 70.4187L66.6344 70.4226ZM67.4972 66.2683C67.4972 66.2683 67.4661 66.2373 67.4505 66.2217C67.4661 66.2062 67.4855 66.1828 67.501 66.1828C67.5205 66.1828 67.536 66.2101 67.5516 66.2256C67.5321 66.2411 67.5166 66.2528 67.4972 66.2683ZM69.65 65.2657C69.65 65.2657 69.619 65.2385 69.6034 65.223C69.619 65.2074 69.6384 65.1919 69.6539 65.1764C69.6695 65.1919 69.685 65.2113 69.7006 65.2269C69.685 65.2424 69.6656 65.2696 69.6539 65.2657H69.65ZM70.2485 65.0947C70.233 65.1181 70.198 65.1258 70.163 65.1336C70.163 65.1414 70.163 65.1491 70.1591 65.153C70.1514 65.153 70.1436 65.153 70.1358 65.153C70.1203 65.1841 70.1086 65.2152 70.0931 65.2463C70.0931 65.2502 70.0464 65.2424 70.0464 65.2385C70.0425 65.1647 70.0892 65.1569 70.1358 65.1569C70.1358 65.153 70.1397 65.1453 70.1436 65.1414C70.1514 65.1414 70.1591 65.1375 70.163 65.1336C70.1708 65.1025 70.1786 65.0675 70.198 65.052C70.2368 65.0287 70.2718 65.0598 70.2485 65.0947ZM71.2278 65.0015C71.1928 65.0326 71.1578 65.0637 71.119 65.0947C71.0762 65.1297 71.0335 65.1142 71.0218 65.0481C71.0024 64.9432 71.0685 64.8694 71.1734 64.8694C71.1928 64.8771 71.2161 64.881 71.2356 64.8927C71.2783 64.9199 71.2744 64.9587 71.2239 65.0015H71.2278ZM69.1954 73.7646C69.1759 73.7996 69.1643 73.8384 69.1487 73.8734C69.1487 73.8734 69.1526 73.8734 69.1565 73.8734L69.141 73.8851C69.141 73.8851 69.1449 73.8734 69.1487 73.8695C68.9894 73.7879 68.8262 73.7102 68.6435 73.7063C68.6241 73.7063 68.6086 73.6791 68.5891 73.6636C68.6086 73.648 68.6241 73.6208 68.6435 73.6208C68.8301 73.6131 69.0166 73.5897 69.1993 73.6131C69.312 73.6286 69.2226 73.7102 69.1993 73.7607L69.1954 73.7646ZM69.619 72.6493C69.6345 72.626 69.6772 72.6182 69.7122 72.6066C69.7122 72.5988 69.7122 72.5949 69.7161 72.5871L69.7278 72.5988C69.7278 72.5988 69.7161 72.5988 69.7083 72.6027C69.6967 72.6376 69.6889 72.6765 69.6656 72.692C69.6267 72.7192 69.5918 72.6804 69.6151 72.6454L69.619 72.6493ZM69.9726 73.5353C69.8754 73.5975 69.7705 73.6403 69.6578 73.6985C69.6384 73.683 69.5879 73.6597 69.5879 73.6364C69.5879 73.4926 69.584 73.3527 69.4674 73.2439C69.5024 73.2244 69.549 73.1778 69.5684 73.1856C69.7122 73.2516 69.8521 73.3255 69.9881 73.411C70.0037 73.4187 69.992 73.5198 69.9687 73.5353H69.9726ZM72.8094 71.9964C72.6346 72.0353 72.5024 72.2102 72.3004 72.1635C72.3004 72.1635 72.3004 72.1674 72.3004 72.1713C72.2965 72.1713 72.2887 72.1713 72.2848 72.1752C72.2732 72.2102 72.2654 72.249 72.2421 72.2646C72.2032 72.2879 72.1682 72.2529 72.1915 72.2179C72.211 72.1946 72.2498 72.1869 72.2809 72.1752C72.2809 72.1713 72.2809 72.1635 72.2848 72.1597C72.2848 72.1597 72.2887 72.1597 72.2926 72.1597C72.2732 72.0547 72.1915 72.0314 72.0983 72.012C72.04 71.9964 72.0244 71.9381 72.0633 71.9187C72.2071 71.8527 72.3509 71.7788 72.5024 71.7361C72.6268 71.7011 72.7201 71.7905 72.7939 71.8837C72.8328 71.9304 72.8405 71.9809 72.7939 71.9926L72.8094 71.9964ZM72.8211 58.8148C72.7861 58.842 72.7473 58.8032 72.7706 58.7643C72.7861 58.741 72.8289 58.7332 72.8638 58.7216C72.8638 58.7177 72.8638 58.7099 72.8677 58.706C72.8716 58.706 72.8755 58.706 72.8794 58.706C72.8872 58.6011 72.9571 58.5739 73.0543 58.5817C73.0737 58.5817 73.1087 58.605 73.1048 58.6127C73.097 58.6438 73.0853 58.6905 73.0659 58.6944C73.0037 58.706 72.9416 58.7021 72.8794 58.706C72.8794 58.7099 72.8794 58.7138 72.8794 58.7177C72.8755 58.7177 72.8677 58.7177 72.8638 58.7216C72.8522 58.7565 72.8444 58.7993 72.8211 58.8187V58.8148ZM73.2214 64.8421C73.1786 64.8538 73.132 64.8577 73.0543 64.8655C73.0154 64.8499 72.9532 64.8227 72.891 64.7955C72.9571 64.7761 73.0193 64.7489 73.0853 64.7372C73.1281 64.7295 73.1747 64.7411 73.2214 64.7528C73.2408 64.7567 73.2563 64.7839 73.2758 64.7994C73.2563 64.8149 73.2408 64.8344 73.2175 64.8421H73.2214ZM73.8975 58.6205C73.7848 58.7332 73.6488 58.7371 73.5128 58.6749C73.4856 58.6633 73.4778 58.6166 73.4623 58.5778C73.4545 58.5778 73.4468 58.5778 73.439 58.5778C73.439 58.57 73.4351 58.5661 73.4312 58.5583C73.3807 58.5583 73.3341 58.5506 73.3418 58.4728C73.3418 58.469 73.3846 58.4612 73.3885 58.4651C73.404 58.4962 73.4157 58.5273 73.4312 58.5583C73.439 58.5583 73.4468 58.5583 73.4545 58.5583C73.4545 58.5622 73.4584 58.57 73.4623 58.5739C73.6022 58.5894 73.7149 58.5234 73.8237 58.4418C73.8509 58.4223 73.9286 58.4379 73.9519 58.4612C74.018 58.5311 73.9364 58.5778 73.8975 58.6166V58.6205ZM74.2434 58.6827C74.2434 58.6827 74.2201 58.671 74.2045 58.6633C74.2201 58.6438 74.2317 58.6205 74.2473 58.6011C74.2589 58.6166 74.2823 58.6322 74.2823 58.6438C74.2823 58.6594 74.2551 58.671 74.2434 58.6827ZM74.8341 58.6672C74.8341 58.6672 74.8147 58.6827 74.8108 58.6827C74.7447 58.6477 74.7486 58.6166 74.8147 58.5933C74.8302 58.6089 74.8457 58.6244 74.8652 58.6399C74.8574 58.6477 74.8457 58.6594 74.8341 58.6672ZM75.6968 58.5117C75.6968 58.5117 75.6618 58.5506 75.6424 58.5506C75.5336 58.5583 75.4248 58.5583 75.316 58.5622C75.316 58.5622 75.316 58.57 75.316 58.5739C75.316 58.5739 75.3082 58.5739 75.3043 58.5739C75.3043 58.6866 75.2266 58.7177 75.1294 58.7021C75.1139 58.7021 75.1022 58.6866 75.0906 58.671C75.0789 58.6555 75.0673 58.6399 75.0556 58.6244C75.0556 58.6244 75.0711 58.6089 75.0828 58.5972C75.0906 58.5894 75.1022 58.5817 75.11 58.5817C75.1761 58.5739 75.2382 58.5739 75.3043 58.57C75.3043 58.5661 75.3043 58.5622 75.3043 58.5583C75.3082 58.5583 75.3121 58.5583 75.316 58.5583C75.3276 58.4534 75.3976 58.4184 75.4947 58.4301C75.5608 58.4379 75.623 58.4534 75.6851 58.469C75.6929 58.469 75.6968 58.5001 75.6929 58.5078L75.6968 58.5117ZM82.2565 59.969C82.1905 59.9379 82.1943 59.9068 82.2604 59.8874C82.2682 59.8874 82.2876 59.9146 82.3032 59.9301C82.2876 59.9457 82.2643 59.9729 82.2565 59.969ZM83.6983 64.267C83.6866 64.2515 83.6711 64.2359 83.6555 64.2243C83.64 64.2087 83.6322 64.1932 83.6283 64.1776C83.6283 64.1388 83.6555 64.0999 83.6711 64.0572C83.6944 64.0844 83.7177 64.1154 83.741 64.1427C83.7293 64.1776 83.7138 64.2126 83.7021 64.2476C83.7021 64.2515 83.6983 64.2592 83.6944 64.2631L83.6983 64.267ZM84.3317 60.1089C84.32 60.1322 84.3045 60.2022 84.2617 60.2488C84.2384 60.276 84.1762 60.276 84.1335 60.2682C84.0674 60.2566 84.0674 60.2255 84.0985 60.175C84.1452 60.0972 84.1762 60.0117 84.219 59.9301C84.2306 59.9107 84.2501 59.8952 84.2656 59.8796C84.2889 59.9185 84.3161 59.9573 84.3317 59.9962C84.3395 60.0156 84.3317 60.0428 84.3317 60.1089ZM86.574 60.2449C86.5545 60.2294 86.5312 60.2177 86.5118 60.2022C86.5273 60.1905 86.5429 60.1672 86.5545 60.1672C86.5701 60.1672 86.5817 60.1905 86.5934 60.206C86.5856 60.2177 86.5778 60.2294 86.574 60.241V60.2449ZM87.4755 64.3253C87.4716 64.3525 87.425 64.3719 87.3978 64.3914C87.3939 64.3914 87.359 64.3642 87.3551 64.3447C87.3473 64.2826 87.3512 64.2243 87.3473 64.1621C87.3434 64.1621 87.3395 64.1621 87.3356 64.1621C87.3356 64.1582 87.3356 64.1504 87.3318 64.1427C87.2968 64.131 87.2579 64.1232 87.2424 64.0999C87.2152 64.0649 87.2501 64.0261 87.2929 64.0533C87.3162 64.0688 87.324 64.1077 87.3356 64.1427C87.3434 64.1427 87.3473 64.1427 87.3551 64.1465C87.3551 64.1504 87.3551 64.1582 87.3551 64.1621C87.4522 64.1699 87.5027 64.2243 87.4833 64.3253H87.4755ZM87.8136 60.0545C87.8136 60.0545 87.8913 60.0545 87.9147 60.0778C87.9652 60.1205 88.004 60.175 88.0468 60.2255C88.0235 60.241 88.0079 60.2566 87.9846 60.2643C87.8913 60.3032 87.802 60.2643 87.7825 60.175C87.7748 60.1361 87.7903 60.0895 87.8136 60.0545ZM88.0779 64.2864C88.0157 64.302 87.9419 64.2903 87.8758 64.2903C87.8292 64.2942 87.7825 64.3059 87.7398 64.2903C87.7087 64.2787 87.6854 64.2437 87.666 64.2087C87.6621 64.2009 87.6854 64.1699 87.697 64.1504C87.7864 64.0261 87.9069 63.9911 88.0546 64.0183C88.1245 64.0338 88.1711 64.0649 88.1867 64.1427C88.2061 64.2398 88.1362 64.267 88.0779 64.2826V64.2864ZM88.6103 64.1427C88.5831 64.1427 88.5598 64.096 88.5326 64.0688C88.5753 64.0533 88.6142 64.0261 88.6569 64.03C88.688 64.03 88.7113 64.0766 88.7424 64.1038C88.6958 64.1193 88.653 64.1465 88.6103 64.1427ZM89.1349 60.1167C89.1349 60.1167 89.1232 60.1089 89.1155 60.105C89.1077 60.105 89.1038 60.0972 89.096 60.0933C89.1116 60.0739 89.1232 60.0506 89.1388 60.0312C89.1504 60.0467 89.166 60.0584 89.1776 60.0739C89.1621 60.0856 89.1466 60.1011 89.1349 60.1128V60.1167ZM89.3603 58.1231C89.3214 58.1231 89.2787 58.0959 89.2398 58.0804C89.267 58.057 89.2942 58.0143 89.3253 58.0104C89.3642 58.0104 89.403 58.0376 89.4497 58.057C89.4186 58.0804 89.3914 58.1231 89.3642 58.1231H89.3603ZM90.5766 58.0298C90.5766 58.0298 90.6077 58.057 90.6194 58.0687C90.6038 58.0804 90.5883 58.092 90.5727 58.1037C90.5572 58.0959 90.5417 58.092 90.53 58.0842C90.5455 58.0648 90.5611 58.0454 90.5766 58.0259V58.0298ZM90.7165 60.3809C90.6155 60.4392 90.4989 60.4509 90.4056 60.3809C90.3746 60.3537 90.359 60.2449 90.3862 60.2138C90.4639 60.1244 90.6582 60.1322 90.7515 60.2138C90.7593 60.2177 90.7593 60.2294 90.7632 60.241C90.7632 60.2527 90.7632 60.2643 90.7671 60.2721C90.7515 60.311 90.7476 60.3693 90.7165 60.3848V60.3809ZM91.7114 58.2513C91.6531 58.2747 91.5909 58.3019 91.5443 58.228C91.5365 58.2164 91.5365 58.1892 91.5443 58.1853C91.5831 58.1697 91.622 58.1581 91.6609 58.1464C91.6958 58.1658 91.7308 58.1892 91.7619 58.2086C91.7463 58.2241 91.7308 58.2436 91.7114 58.2513ZM92.0883 57.272C92.0106 57.2876 91.9407 57.2293 91.9795 57.1904C92.0028 57.1632 92.0533 57.1438 92.0883 57.1477C92.1078 57.1477 92.1233 57.1593 92.1388 57.1749C92.1544 57.1866 92.1699 57.2021 92.1894 57.2138C92.1583 57.2332 92.1272 57.2682 92.0922 57.2759L92.0883 57.272ZM93.1609 57.3809C93.1609 57.3809 93.1415 57.3964 93.1337 57.4003C93.0054 57.443 92.8578 57.4119 92.7451 57.5169C92.7101 57.5518 92.5585 57.4391 92.5508 57.377C92.5508 57.3614 92.5508 57.3303 92.5547 57.3265C92.7528 57.2487 92.951 57.2487 93.1531 57.3148C93.1609 57.3148 93.1687 57.3226 93.1725 57.3342C93.1764 57.342 93.1842 57.3498 93.1881 57.3575C93.1803 57.3653 93.1687 57.3731 93.1609 57.3809ZM94.7153 58.2513C94.7153 58.2513 94.6842 58.2241 94.6687 58.2086C94.6881 58.193 94.7037 58.1658 94.7231 58.1658C94.7425 58.1658 94.7542 58.1969 94.7697 58.2164C94.7503 58.228 94.7347 58.2552 94.7153 58.2552V58.2513ZM96.1415 58.4029C96.0949 58.4146 96.0482 58.4184 96.0016 58.4184C95.9317 58.4184 95.8578 58.4146 95.7879 58.4107C95.7879 58.4107 95.7879 58.4146 95.7879 58.4184C95.6713 58.4068 95.5547 58.4068 95.4381 58.3835C95.4109 58.3796 95.3798 58.3096 95.3798 58.2708C95.3798 58.2358 95.4148 58.1969 95.4342 58.162C95.6324 58.3602 95.8811 58.263 96.1104 58.2824C96.1415 58.2824 96.1687 58.3329 96.1998 58.3602C96.1804 58.3757 96.1648 58.3951 96.1415 58.4029ZM99.6429 58.6399C99.6429 58.6399 99.6234 58.6594 99.6118 58.6672C99.6001 58.6749 99.5924 58.6827 99.5885 58.6827C99.5185 58.6477 99.5224 58.6166 99.5924 58.5933C99.6079 58.6089 99.6273 58.6244 99.6429 58.6399ZM99.9654 58.6982C99.9266 58.6982 99.8566 58.6749 99.8566 58.6555C99.845 58.57 99.9227 58.5855 99.9732 58.5739C100.008 58.5972 100.039 58.6205 100.074 58.6399C100.039 58.6594 100.004 58.6944 99.9654 58.6982ZM100.673 58.2747C100.673 58.2747 100.673 58.2824 100.673 58.2863C100.669 58.2863 100.665 58.2902 100.661 58.2941C100.653 58.4068 100.653 58.5156 100.638 58.6244C100.63 58.6944 100.595 58.6905 100.537 58.6438C100.389 58.5273 100.377 58.4923 100.498 58.3835C100.544 58.3446 100.603 58.3213 100.657 58.2902C100.657 58.2824 100.657 58.2785 100.657 58.2708C100.661 58.2708 100.669 58.2708 100.673 58.2708C100.696 58.092 100.832 58.1425 100.945 58.1386C100.945 58.1348 100.945 58.1309 100.945 58.127L100.956 58.1386C100.956 58.1386 100.949 58.1386 100.941 58.1386C100.925 58.3291 100.782 58.2669 100.669 58.2708L100.673 58.2747ZM106.521 58.8848C106.506 58.9508 106.459 58.9819 106.381 58.9742C106.311 58.9664 106.257 58.947 106.257 58.8576C106.257 58.7643 106.342 58.6982 106.432 58.7254C106.498 58.7488 106.533 58.7993 106.517 58.8809L106.521 58.8848ZM108.775 68.6933C108.775 68.6933 108.729 68.6933 108.729 68.6894C108.713 68.6117 108.764 68.6078 108.81 68.6039C108.81 68.6 108.814 68.5922 108.818 68.5883L108.833 68.6039C108.833 68.6039 108.818 68.6039 108.81 68.6039C108.799 68.635 108.787 68.6661 108.771 68.6933H108.775ZM109.405 71.5923C109.339 71.6039 109.269 71.5923 109.199 71.5923V71.5806C109.106 71.5806 109.016 71.5806 108.923 71.5806C108.903 71.5806 108.865 71.5495 108.868 71.5457C108.884 71.5068 108.9 71.464 108.927 71.4368C109.008 71.3552 109.094 71.2775 109.226 71.363C109.28 71.4019 109.346 71.4213 109.409 71.4563C109.447 71.4757 109.486 71.5029 109.521 71.5262C109.482 71.5495 109.447 71.5845 109.409 71.5923H109.405ZM110.773 71.433C110.703 71.4874 110.629 71.5806 110.555 71.5884C110.299 71.6078 110.042 71.5962 109.786 71.5884C109.735 71.5884 109.673 71.4718 109.696 71.4213C109.716 71.3824 109.747 71.328 109.778 71.328C109.941 71.3203 110.104 71.3241 110.267 71.3241C110.267 71.3164 110.267 71.3086 110.267 71.3008C110.431 71.3125 110.59 71.3203 110.753 71.3358C110.773 71.3358 110.804 71.3591 110.808 71.3747C110.808 71.3902 110.788 71.4174 110.773 71.433ZM111.348 71.433C111.293 71.5068 111.266 71.6001 111.22 71.6778C111.173 71.7516 111.095 71.7283 111.037 71.7011C110.955 71.6622 110.967 71.5767 110.998 71.5223C111.056 71.4213 111.13 71.328 111.258 71.3203C111.289 71.3241 111.313 71.328 111.332 71.3319C111.398 71.3552 111.391 71.3785 111.348 71.4368V71.433ZM113.497 71.1298C113.33 71.2736 113.244 71.4524 113.221 71.6661C113.221 71.6894 113.135 71.7244 113.104 71.7128C112.743 71.5806 112.37 71.4718 112.036 71.2775C111.989 71.2503 111.993 71.2153 112.047 71.1726C112.292 70.9705 112.533 70.8772 112.797 70.885C113.042 70.8306 113.217 71.0793 113.462 71.0366C113.52 71.0249 113.54 71.091 113.497 71.1298Z" fill="#EF5730"/>
<path d="M59.5702 63.4392C59.5702 63.4392 59.5702 63.4353 59.5702 63.4315C59.5702 63.4315 59.5625 63.4315 59.5586 63.4276L59.5702 63.4392Z" fill="#EF5730"/>
<path d="M69.4404 72.3188C69.4404 72.3188 69.4443 72.3188 69.4481 72.3188C69.4481 72.3112 69.4558 72.3112 69.4558 72.3035L69.4404 72.3188Z" fill="#EF5730"/>
<path d="M119.128 71.7476C119.128 71.7476 119.139 71.7476 119.143 71.7476C119.143 71.7438 119.143 71.7399 119.143 71.7361L119.128 71.7515V71.7476Z" fill="#EF5730"/>
<path d="M63.2812 73.749H63.289C63.289 73.7451 63.289 73.7413 63.2928 73.7374L63.2812 73.749Z" fill="#EF5730"/>
<path d="M58.8553 65.8718C58.8553 65.8718 58.8476 65.8602 58.8438 65.8602L58.8553 65.8718Z" fill="#EF5730"/>
<path d="M59.2859 66.3032C59.2859 66.3032 59.2859 66.2955 59.2859 66.2916C59.282 66.2916 59.2782 66.2916 59.2705 66.2916L59.2859 66.307V66.3032Z" fill="#EF5730"/>
<path d="M90.6318 57.4272H90.6434C90.6434 57.4272 90.6434 57.4157 90.6434 57.4119L90.6318 57.4272Z" fill="#EF5730"/>
<path d="M112.969 60.851C112.969 60.851 112.965 60.8585 112.961 60.8623C112.969 60.8623 112.976 60.8623 112.984 60.8623L112.969 60.8472V60.851Z" fill="#EF5730"/>
<path d="M60.9803 67.5935C61.159 67.6129 61.3028 67.3642 61.4854 67.5508C61.5593 67.4964 61.637 67.4458 61.7031 67.3837C61.7652 67.3254 61.8158 67.3448 61.8818 67.3759C61.9401 67.4031 62.0334 67.4264 62.0722 67.3992C62.1849 67.3176 62.2821 67.2088 62.3831 67.1116C62.3948 67.1 62.3909 67.0767 62.3948 67.0572C62.352 67.0456 62.2899 67.0067 62.2704 67.0222C62.0178 67.2049 61.7303 67.1427 61.4544 67.1505C61.3339 67.1505 61.3145 67.0611 61.2678 66.9756C61.2212 66.8862 61.0385 66.8357 60.9608 66.8785C60.7199 67.0184 60.4789 67.1544 60.1953 67.1971C60.1564 67.201 60.1253 67.2554 60.0865 67.2865C60.0204 67.337 60.0282 67.3914 60.0981 67.4342C60.374 67.6052 60.681 67.5663 60.9841 67.5935H60.9803Z" fill="#EF5730"/>
<path d="M114.131 60.5712C114.131 60.5712 114.123 60.5635 114.115 60.5635L114.127 60.5789C114.127 60.5789 114.127 60.5789 114.127 60.5712H114.131Z" fill="#EF5730"/>
<path d="M115.215 60.7267C115.569 60.7112 115.922 60.7151 116.276 60.7034C116.315 60.7034 116.35 60.6607 116.389 60.6374C116.373 60.6218 116.358 60.6024 116.334 60.5907C115.751 60.2837 115.747 60.2837 115.079 60.2876C114.939 60.2876 114.795 60.2876 114.655 60.2954C114.632 60.2954 114.605 60.3459 114.585 60.377C114.585 60.377 114.617 60.4159 114.636 60.4197C114.772 60.4353 114.912 60.4431 115.048 60.4586C115.063 60.4586 115.079 60.4858 115.091 60.5013C115.071 60.5169 115.056 60.5441 115.036 60.5441C114.784 60.5635 114.535 60.6218 114.302 60.4353C114.236 60.3809 114.131 60.4508 114.123 60.5674C114.177 60.5985 114.232 60.6374 114.29 60.6568C114.418 60.7034 115.036 60.7306 115.207 60.7229L115.215 60.7267Z" fill="#EF5730"/>
<path d="M115.122 72.894C115.122 72.894 115.126 72.894 115.13 72.8902L115.122 72.8824C115.122 72.8824 115.122 72.8902 115.122 72.894Z" fill="#EF5730"/>
<path d="M114.493 72.9251C114.458 72.894 114.353 72.9096 114.302 72.9407C114.077 73.0767 113.867 73.0767 113.642 72.9329C113.572 72.8902 113.463 72.9018 113.373 72.9096C113.342 72.9096 113.307 72.9679 113.288 73.0029C113.257 73.0611 113.315 73.1583 113.377 73.1583C113.898 73.1661 114.415 73.1738 114.936 73.1738C114.994 73.1738 115.079 73.1389 115.107 73.0922C115.138 73.0417 115.122 72.964 115.122 72.894C114.92 73.0106 114.718 73.1272 114.493 72.9251Z" fill="#EF5730"/>
<path d="M69.5887 58.6826C69.5887 58.4573 69.4954 58.3679 69.2895 58.4262C69.2234 58.4456 69.169 58.4961 69.1068 58.5272C69.0408 58.5622 68.9825 58.5505 68.9125 58.5272C68.7765 58.4845 68.7143 58.5389 68.7299 58.6477C68.7532 58.8381 68.8775 58.9741 68.9786 59.1179C68.9902 59.1334 69.0835 59.1179 69.0991 59.0907C69.1301 59.0363 69.1457 58.9663 69.1535 58.9003C69.1612 58.7992 69.1923 58.7293 69.3011 58.7176C69.3206 58.8148 69.3827 58.8653 69.4877 58.8381C69.5576 58.8187 69.5887 58.7643 69.5926 58.6826H69.5887ZM69.3167 58.6982C69.3167 58.6982 69.3128 58.7098 69.3089 58.7176L69.2934 58.7021C69.2934 58.7021 69.3089 58.7021 69.3167 58.7021C69.3283 58.671 69.34 58.6399 69.3555 58.6088C69.3555 58.6049 69.4022 58.6088 69.4022 58.6127C69.4138 58.6904 69.3633 58.6943 69.3167 58.7021V58.6982Z" fill="#EF5730"/>
<path d="M114.119 60.5635C114.119 60.5635 114.119 60.5674 114.119 60.5712C114.123 60.5712 114.127 60.5751 114.135 60.5751L114.123 60.5597L114.119 60.5635Z" fill="#EF5730"/>
<path d="M112.984 60.8395C112.984 60.8395 112.973 60.8433 112.969 60.847L112.984 60.8622C112.984 60.8622 112.984 60.847 112.984 60.8395Z" fill="#EF5730"/>
<path d="M113.59 60.8006C113.687 60.8783 113.812 60.8706 113.913 60.8161C114.006 60.7656 114.103 60.6996 114.115 60.5713C114.049 60.5597 113.998 60.5247 113.983 60.4586C113.971 60.3965 113.971 60.3226 113.89 60.3304C113.866 60.3304 113.851 60.4042 113.831 60.4431C113.738 60.6024 113.66 60.5985 113.555 60.4314C113.45 60.2604 113.365 60.2449 113.276 60.4003C113.229 60.4819 113.209 60.5558 113.101 60.5791C112.953 60.6141 112.988 60.7384 112.988 60.8434C113.182 60.7423 113.373 60.6296 113.594 60.8045L113.59 60.8006Z" fill="#EF5730"/>
<path d="M121.165 65.2113C121.196 65.2579 121.281 65.2774 121.344 65.2851C121.413 65.2968 121.483 65.2851 121.553 65.2851C121.658 65.2774 121.697 65.2035 121.717 65.0986C121.752 64.9082 121.542 64.8266 121.542 64.6556C121.542 64.5973 121.491 64.6012 121.441 64.6439C121.332 64.7294 121.25 64.8538 121.095 64.8732C121.033 64.881 121.017 64.9237 121.087 65.0131C121.099 65.0403 121.114 65.1375 121.165 65.2113Z" fill="#EF5730"/>
<path d="M59.7216 60.307C59.5234 60.4275 59.2669 60.3925 59.0842 60.5557C59.0221 60.6101 59.0182 60.6801 59.0842 60.7073C59.1892 60.7539 59.2941 60.7967 59.4068 60.8433C59.4418 60.8355 59.4962 60.8355 59.5272 60.8083C59.6516 60.7034 59.7954 60.614 59.8381 60.4391C59.842 60.4158 59.8459 60.3808 59.8342 60.3692C59.7993 60.342 59.741 60.2954 59.7216 60.307Z" fill="#EF5730"/>
<path d="M58.5944 61.706C58.6643 61.6788 58.6993 61.6244 58.6876 61.5428C58.6604 61.5195 58.6371 61.4806 58.6099 61.4767C58.5516 61.4728 58.5205 61.5933 58.435 61.5078C58.3534 61.4262 58.264 61.3485 58.163 61.298C58.1047 61.2669 58.027 61.3057 58.0037 61.3835C57.992 61.4223 58.0037 61.4962 58.0231 61.5078C58.163 61.5816 58.3068 61.6477 58.4545 61.706C58.4933 61.7215 58.5516 61.7177 58.5944 61.706Z" fill="#EF5730"/>
<path d="M61.4897 70.0223C61.4897 70.0223 61.5325 69.9718 61.5247 69.964C61.5053 69.9329 61.4781 69.8863 61.447 69.8824C61.377 69.8707 61.3032 69.8824 61.2333 69.8824V69.8901C61.14 69.8901 61.0428 69.8824 60.9496 69.894C60.9185 69.8979 60.8796 69.9562 60.8719 69.9912C60.8641 70.03 60.8835 70.1039 60.9068 70.1117C61.1128 70.1816 61.3188 70.2088 61.4897 70.0223Z" fill="#EF5730"/>
<path d="M64.6565 59.7358C64.6371 59.7475 64.6138 59.7553 64.5943 59.7669C64.4933 59.8369 64.435 59.9301 64.4233 60.0545C64.4156 60.1322 64.2562 60.1555 64.3495 60.276C64.4156 60.3615 64.4622 60.4625 64.5244 60.5519C64.5322 60.5636 64.5671 60.5519 64.5904 60.5519C64.6176 60.5286 64.6487 60.5053 64.6759 60.4819C64.4739 60.2643 64.5982 60.0623 64.6954 59.8524C64.707 59.8252 64.6682 59.7747 64.6487 59.7319L64.6565 59.7358Z" fill="#EF5730"/>
<path d="M70.292 72.3111C70.257 72.2995 70.2143 72.2878 70.191 72.2645C70.121 72.1984 70.0433 72.1712 69.9462 72.1674C69.8063 72.1674 69.7791 72.2023 69.8257 72.3383C69.8529 72.42 69.8645 72.5054 69.8801 72.5909C69.9734 72.5909 70.0666 72.5909 70.1638 72.5909C70.2065 72.4977 70.2532 72.4044 70.2959 72.3111H70.292Z" fill="#EF5730"/>
<path d="M105.725 58.3018C105.547 58.2785 105.36 58.3018 105.177 58.3096C105.158 58.3096 105.142 58.3368 105.123 58.3524C105.139 58.3679 105.154 58.399 105.174 58.399C105.352 58.4107 105.469 58.6166 105.671 58.5622C105.687 58.5234 105.702 58.4884 105.722 58.4495C105.745 58.399 105.842 58.3213 105.725 58.3057V58.3018Z" fill="#EF5730"/>
<path d="M105.671 58.5583C105.671 58.5583 105.671 58.566 105.667 58.5699L105.682 58.5583H105.675H105.671Z" fill="#EF5730"/>
<path d="M63.7167 61.5C63.744 61.5195 63.7867 61.5233 63.8256 61.5233C63.8372 61.5233 63.8605 61.4884 63.8644 61.4689C63.8994 61.2358 63.8217 61.0726 63.5846 61.0104C63.5691 61.1891 63.5419 61.3757 63.7206 61.5H63.7167Z" fill="#EF5730"/>
<path d="M63.5809 61.0103C63.5809 61.0103 63.5809 60.9987 63.5809 60.991L63.5693 61.0026C63.5693 61.0026 63.5771 61.0026 63.5809 61.0064V61.0103Z" fill="#EF5730"/>
<path d="M58.3109 60.6218C58.2526 60.6723 58.136 60.7034 58.1826 60.8238C58.1982 60.8627 58.237 60.9016 58.2759 60.9249C58.4275 61.0181 58.4003 60.8744 58.4197 60.8083C58.4624 60.6723 58.6917 60.7539 58.6956 60.5751C58.5635 60.5751 58.4236 60.5285 58.3109 60.6218Z" fill="#EF5730"/>
<path d="M58.6992 60.575C58.6992 60.575 58.7069 60.575 58.7146 60.575L58.7031 60.5635C58.7031 60.5635 58.7031 60.5712 58.7031 60.575H58.6992Z" fill="#EF5730"/>
<path d="M117.613 69.3267C117.558 69.2956 117.477 69.3111 117.489 69.3111C117.364 69.3111 117.314 69.3034 117.271 69.3111C117.228 69.3228 117.193 69.35 117.154 69.3733C117.193 69.3927 117.236 69.4316 117.275 69.4316C117.395 69.4316 117.504 69.451 117.597 69.5326C117.636 69.5637 117.694 69.5521 117.694 69.4938C117.694 69.4355 117.659 69.3539 117.613 69.3267Z" fill="#EF5730"/>
<path d="M119.878 72.2334C119.843 72.2839 119.843 72.3616 119.905 72.4121C119.971 72.4704 120.111 72.4394 120.127 72.3577C120.135 72.315 120.135 72.2684 120.138 72.1906C120.123 72.1596 120.1 72.1013 120.072 72.043C120.006 72.1051 119.929 72.1596 119.878 72.2295V72.2334Z" fill="#EF5730"/>
<path d="M58.284 66.1594C58.284 66.1594 58.284 66.1517 58.284 66.1478C58.2802 66.1478 58.2763 66.1478 58.2725 66.1478L58.284 66.1594Z" fill="#EF5730"/>
<path d="M58.3959 66.0196C58.3337 66.008 58.2832 66.0702 58.2832 66.1479C58.392 66.1479 58.5008 66.1557 58.6096 66.1518C58.8195 66.144 58.8273 66.1401 58.8428 65.8759C58.6912 65.9108 58.5785 66.0507 58.3998 66.0158L58.3959 66.0196Z" fill="#EF5730"/>
<path d="M58.8398 65.8756C58.8398 65.8756 58.8475 65.8756 58.8552 65.8718L58.8437 65.8602C58.8437 65.8602 58.8437 65.8718 58.8437 65.8756H58.8398Z" fill="#EF5730"/>
<path d="M60.8956 60.6218C60.8956 60.6878 60.9967 60.8005 61.055 60.8044C61.121 60.8044 61.2376 60.7111 61.2415 60.649C61.2454 60.5829 61.1482 60.5091 61.0433 60.373C60.9811 60.4702 60.8917 60.544 60.8956 60.6179V60.6218Z" fill="#EF5730"/>
<path d="M116.727 60.6918C116.809 60.6607 116.879 60.5947 116.917 60.5713C116.96 60.4858 116.945 60.4431 116.882 60.4353C116.812 60.4276 116.739 60.4237 116.669 60.4431C116.599 60.4625 116.556 60.5247 116.572 60.6024C116.591 60.684 116.661 60.719 116.727 60.6918Z" fill="#EF5730"/>
<path d="M119.128 71.7322C119.128 71.7322 119.128 71.7437 119.128 71.7476L119.143 71.7322C119.143 71.7322 119.132 71.7322 119.128 71.7322Z" fill="#EF5730"/>
<path d="M118.949 71.4718C118.914 71.4795 118.875 71.5223 118.864 71.5534C118.848 71.6194 118.864 71.6933 118.942 71.7127C119 71.7283 119.066 71.7244 119.128 71.7283C119.128 71.6661 119.128 71.6 119.113 71.5417C119.089 71.4679 119.011 71.4562 118.949 71.4679V71.4718Z" fill="#EF5730"/>
<path d="M61.9944 60.2954C61.9167 60.2993 61.874 60.3382 61.8623 60.4198C61.8507 60.5169 61.9439 60.5869 62.045 60.5558C62.1188 60.5325 62.1499 60.4781 62.1343 60.4004C62.1188 60.3265 62.0799 60.276 61.9944 60.2954Z" fill="#EF5730"/>
<path d="M117.574 60.6685C117.558 60.7501 117.589 60.8434 117.605 60.9328C117.605 60.9405 117.636 60.9444 117.651 60.9522C117.69 60.8745 117.721 60.7929 117.768 60.719C117.807 60.653 117.822 60.5908 117.733 60.5869C117.678 60.5869 117.581 60.6335 117.574 60.6724V60.6685Z" fill="#EF5730"/>
<path d="M70.5865 72.3461C70.5981 72.2412 70.5865 72.1363 70.5865 72.0314C70.5398 72.0314 70.4932 72.0314 70.4505 72.0314C70.4038 72.1246 70.3611 72.2179 70.3145 72.3112C70.365 72.3384 70.4194 72.3578 70.4621 72.3928C70.5437 72.4588 70.5826 72.3928 70.5904 72.3423L70.5865 72.3461Z" fill="#EF5730"/>
<path d="M115.887 60.8589C115.794 60.8589 115.712 60.9211 115.751 60.9483C115.786 60.9716 115.833 60.9794 115.86 60.991C115.969 60.991 116.066 60.9949 116.159 60.991C116.182 60.991 116.206 60.9405 116.221 60.9094C116.221 60.9055 116.19 60.8667 116.171 60.8667C116.078 60.8628 115.98 60.8667 115.887 60.8667V60.8589Z" fill="#EF5730"/>
<path d="M121.93 64.7566C121.907 64.7916 121.864 64.8265 121.86 64.8615C121.86 64.9781 121.868 65.0947 121.876 65.2113C121.876 65.2307 121.903 65.254 121.923 65.2618C121.93 65.2618 121.965 65.2424 121.969 65.2229C121.985 65.1569 121.996 65.0908 122 65.0636C121.996 64.9742 122 64.9237 121.989 64.8809C121.977 64.8382 121.95 64.7993 121.93 64.7566Z" fill="#EF5730"/>
<path d="M69.8958 58.4883C69.853 58.5427 69.8025 58.5932 69.7559 58.6438C69.818 58.6671 69.8802 58.6943 69.9463 58.7215C70.0123 58.6943 70.0745 58.671 70.1367 58.6476C70.0939 58.5932 70.0473 58.5427 70.0085 58.4883C69.9696 58.4339 69.9385 58.4339 69.8996 58.4883H69.8958Z" fill="#EF5730"/>
<path d="M66.1609 59.86C66.1609 59.86 66.1609 59.86 66.1609 59.8562C66.157 59.8562 66.1494 59.8485 66.1455 59.8485L66.1609 59.86Z" fill="#EF5730"/>
<path d="M66.1611 59.8563C66.2155 59.8874 66.2661 59.9224 66.3243 59.9457C66.4448 59.9923 66.4604 59.8641 66.5264 59.8174C66.5731 59.7825 66.5614 59.7319 66.4915 59.728C66.3671 59.7242 66.2039 59.6503 66.1611 59.8563Z" fill="#EF5730"/>
<path d="M65.1738 60.2216C65.1738 60.2216 65.2049 60.2566 65.2282 60.2605C65.337 60.2877 65.5313 60.1633 65.5508 60.0584C65.5313 60.0428 65.5158 60.0195 65.4964 60.0156C65.3914 59.9962 65.1894 60.1245 65.1738 60.2216Z" fill="#EF5730"/>
<path d="M65.2788 72.5871C65.3721 72.5988 65.4109 72.5444 65.4187 72.4705C65.4226 72.4317 65.3954 72.3889 65.3837 72.3462C65.3643 72.354 65.341 72.354 65.3254 72.3656C65.2905 72.3928 65.2555 72.4278 65.2205 72.4589C65.17 72.5016 65.17 72.5366 65.2205 72.5638C65.2399 72.5755 65.2633 72.5794 65.2788 72.5871Z" fill="#EF5730"/>
<path d="M120.15 68.7166C120.131 68.771 120.15 68.806 120.197 68.8332C120.263 68.872 120.391 68.8642 120.387 68.8215C120.383 68.7865 120.36 68.7438 120.333 68.7166C120.302 68.6816 120.263 68.6505 120.224 68.635C120.212 68.6311 120.177 68.6855 120.154 68.7166H120.15Z" fill="#EF5730"/>
<path d="M61.9017 69.9757C61.9328 69.9679 61.9794 69.9524 61.9911 69.9291C62.0066 69.8902 62.0027 69.8436 62.0066 69.7969C62.0066 69.7736 62.0066 69.7503 61.9988 69.7309C61.9794 69.692 61.9561 69.6531 61.9328 69.6182C61.9095 69.6531 61.8706 69.6881 61.8628 69.727C61.8512 69.793 61.8551 69.863 61.8628 69.9291C61.8628 69.9485 61.8939 69.9796 61.9056 69.9757H61.9017Z" fill="#EF5730"/>
<path d="M68.2749 72.2412C68.2749 72.2412 68.2477 72.2101 68.2321 72.1946C68.2127 72.249 68.1855 72.3034 68.1738 72.3578C68.1738 72.3695 68.2205 72.3928 68.2399 72.4083C68.3293 72.3656 68.2943 72.2995 68.2749 72.2412Z" fill="#EF5730"/>
<path d="M112.646 72.6842C112.619 72.6609 112.596 72.6181 112.569 72.6143C112.526 72.6143 112.483 72.6376 112.44 72.6492C112.468 72.6764 112.495 72.7192 112.522 72.7192C112.561 72.7192 112.604 72.6959 112.646 72.6803V72.6842Z" fill="#EF5730"/>
<path d="M112.973 72.8785C112.973 72.8785 112.976 72.8824 112.98 72.8901H112.984C112.984 72.8901 112.984 72.8824 112.984 72.8785C112.98 72.8785 112.976 72.8785 112.969 72.8785H112.973Z" fill="#EF5730"/>
<path d="M113.112 72.7075C113.112 72.7075 113.089 72.657 113.081 72.657C113.05 72.6648 113 72.6764 112.996 72.6958C112.984 72.7541 112.988 72.8124 112.988 72.8746C113.081 72.8629 113.124 72.8047 113.112 72.7075Z" fill="#EF5730"/>
<path d="M115.293 72.7464C115.184 72.7192 115.138 72.7775 115.13 72.8785C115.192 72.8785 115.258 72.8785 115.32 72.8669C115.34 72.8669 115.367 72.8241 115.367 72.8241C115.344 72.7931 115.32 72.7542 115.293 72.7464Z" fill="#EF5730"/>
<path d="M115.122 72.8785L115.13 72.8865C115.13 72.8865 115.13 72.8825 115.13 72.8785C115.13 72.8785 115.126 72.8785 115.122 72.8785Z" fill="#EF5730"/>
<path d="M115.607 72.828C115.646 72.8436 115.685 72.8708 115.72 72.8708C115.747 72.8708 115.771 72.828 115.798 72.8008C115.759 72.7853 115.72 72.7697 115.681 72.7581C115.658 72.7814 115.631 72.8047 115.607 72.828Z" fill="#EF5730"/>
<path d="M111.803 73.0068C111.846 73.0068 111.889 72.9873 111.935 72.9718C111.908 72.9446 111.881 72.9018 111.854 72.8979C111.815 72.8979 111.772 72.9213 111.729 72.9368C111.753 72.9601 111.776 73.0029 111.803 73.0068Z" fill="#EF5730"/>
<path d="M112.973 72.8785C112.973 72.8785 112.973 72.8863 112.973 72.894C112.98 72.894 112.984 72.894 112.992 72.894H112.988L112.98 72.8785H112.973Z" fill="#EF5730"/>
<path d="M112.782 72.8979C112.782 72.8979 112.747 72.9523 112.739 72.9795C112.739 72.9873 112.77 73.0106 112.79 73.0145C112.887 73.0261 112.953 72.9912 112.965 72.8901C112.902 72.8901 112.84 72.8901 112.778 72.8979H112.782Z" fill="#EF5730"/>
<path d="M73.2763 73.4071C73.2491 73.3799 73.2218 73.3371 73.1908 73.3333C73.1519 73.3333 73.1053 73.3566 73.0664 73.3721C73.0936 73.3993 73.1169 73.4421 73.1441 73.4459C73.1869 73.4459 73.2296 73.4226 73.2763 73.4071Z" fill="#EF5730"/>
<path d="M63.239 73.5003C63.2079 73.5158 63.1613 73.5392 63.1574 73.5625C63.1419 73.6635 63.1846 73.7218 63.2856 73.7335C63.2856 73.6713 63.2856 73.6091 63.2856 73.5469C63.2856 73.5314 63.2507 73.4964 63.2429 73.5003H63.239Z" fill="#EF5730"/>
<path d="M63.2812 73.7335C63.2812 73.7335 63.2812 73.7451 63.2812 73.7489L63.2927 73.7374C63.2927 73.7374 63.285 73.7374 63.2773 73.7374L63.2812 73.7335Z" fill="#EF5730"/>
<path d="M89.9395 57.2021C89.9939 57.2215 90.0483 57.2487 90.1027 57.2604C90.1182 57.2604 90.1415 57.2176 90.161 57.1943C90.1104 57.1244 90.0483 57.1399 89.99 57.1632C89.9705 57.171 89.955 57.1904 89.9395 57.2021Z" fill="#EF5730"/>
<path d="M90.6279 57.4119C90.6279 57.4119 90.6279 57.4196 90.6279 57.4272L90.6394 57.4119C90.6394 57.4119 90.6279 57.4119 90.624 57.4119H90.6279Z" fill="#EF5730"/>
<path d="M90.457 57.2875C90.457 57.2875 90.4026 57.3147 90.4064 57.3225C90.4142 57.3536 90.4298 57.4002 90.4492 57.4041C90.5075 57.4158 90.5697 57.4119 90.6318 57.4119C90.6163 57.3147 90.5541 57.2759 90.457 57.2875Z" fill="#EF5730"/>
<path d="M70.991 58.3563C70.956 58.3368 70.921 58.298 70.8822 58.298C70.8433 58.298 70.8006 58.3291 70.7617 58.3485C70.8006 58.3718 70.8356 58.4068 70.8744 58.4107C70.9133 58.4107 70.9521 58.3757 70.991 58.3563Z" fill="#EF5730"/>
<path d="M72.2188 58.3679C72.2188 58.3679 72.2498 58.4145 72.2615 58.4106C72.3198 58.3951 72.3781 58.3717 72.4325 58.3523C72.4014 58.329 72.3703 58.3057 72.3392 58.2863C72.2848 58.2901 72.2188 58.2863 72.2188 58.3679Z" fill="#EF5730"/>
<path d="M70.4974 58.7992C70.4974 58.7992 70.5285 58.8459 70.5402 58.842C70.5985 58.8264 70.6568 58.7992 70.7112 58.7798C70.6762 58.7565 70.6451 58.7371 70.6101 58.7137C70.5518 58.7137 70.4858 58.7137 70.4974 58.7992Z" fill="#EF5730"/>
<path d="M112.429 59.7786C112.483 59.798 112.541 59.8252 112.596 59.8369C112.604 59.8369 112.627 59.7864 112.642 59.7553C112.607 59.7397 112.569 59.7281 112.53 59.7125C112.495 59.732 112.46 59.7553 112.429 59.7747V59.7786Z" fill="#EF5730"/>
<path d="M117.302 60.6335C117.302 60.6335 117.329 60.6685 117.344 60.684C117.368 60.6296 117.395 60.5752 117.411 60.5169C117.411 60.5053 117.356 60.4781 117.337 60.4625C117.247 60.5053 117.286 60.5713 117.306 60.6296L117.302 60.6335Z" fill="#EF5730"/>
<path d="M120.846 64.8849C120.83 64.8461 120.815 64.8111 120.803 64.7722C120.776 64.7878 120.722 64.8111 120.722 64.8227C120.733 64.8771 120.757 64.9315 120.78 64.986C120.803 64.951 120.827 64.9199 120.846 64.8849Z" fill="#EF5730"/>
<path d="M59.3797 67.2165C59.3292 67.1388 59.267 67.166 59.2048 67.1855C59.1854 67.1932 59.1698 67.2127 59.1543 67.2243C59.2126 67.2476 59.267 67.2748 59.3253 67.2865C59.3408 67.2865 59.3641 67.236 59.3797 67.2165Z" fill="#EF5730"/>
<path d="M119.73 69.8008C119.765 69.8241 119.797 69.859 119.835 69.8668C119.87 69.8707 119.921 69.8552 119.948 69.828C119.987 69.7891 119.921 69.7308 119.839 69.7464C119.8 69.7541 119.765 69.7813 119.73 69.8008Z" fill="#EF5730"/>
<path d="M81.3597 57.6334C81.383 57.7034 81.418 57.7034 81.4452 57.6373C81.4452 57.6296 81.418 57.6062 81.4025 57.5907C81.3869 57.6062 81.3558 57.6218 81.3597 57.6334Z" fill="#EF5730"/>
<path d="M96.8064 57.6995C96.8064 57.6995 96.7949 57.6995 96.791 57.6995L96.8025 57.711C96.8025 57.711 96.8025 57.7033 96.8064 57.6995Z" fill="#EF5730"/>
<path d="M96.8999 57.6062C96.8999 57.6062 96.8572 57.5946 96.8533 57.5984C96.8338 57.6295 96.8222 57.6645 96.8066 57.6956C96.861 57.6917 96.9116 57.6839 96.8999 57.6062Z" fill="#EF5730"/>
<path d="M97.16 57.6723C97.16 57.6723 97.191 57.649 97.2066 57.6374L97.1677 57.5946C97.1677 57.5946 97.1366 57.6335 97.1211 57.6529C97.1366 57.6607 97.1483 57.6646 97.1638 57.6723H97.16Z" fill="#EF5730"/>
<path d="M85.7271 57.7539C85.7271 57.7539 85.6844 57.7422 85.6805 57.75C85.6649 57.7772 85.6533 57.8083 85.6416 57.8394C85.6882 57.8316 85.7388 57.8316 85.7271 57.7539Z" fill="#EF5730"/>
<path d="M85.6409 57.8394C85.6409 57.8394 85.6257 57.8394 85.6182 57.8394L85.6333 57.8545C85.6333 57.8545 85.6371 57.8431 85.6409 57.8394Z" fill="#EF5730"/>
<path d="M71.2321 58.4495C71.2321 58.4495 71.1972 58.4767 71.1777 58.4922C71.1933 58.5078 71.2127 58.5233 71.2283 58.5388C71.2438 58.5272 71.2632 58.5116 71.2788 58.4961C71.2632 58.4806 71.2477 58.4495 71.2283 58.4495H71.2321Z" fill="#EF5730"/>
<path d="M72.1382 58.6282C72.1382 58.6282 72.111 58.5854 72.0955 58.5854C72.0799 58.5854 72.0644 58.6088 72.0488 58.6243C72.0721 58.6399 72.0916 58.6554 72.1149 58.6709C72.1227 58.6554 72.1304 58.6437 72.1382 58.6282Z" fill="#EF5730"/>
<path d="M107.175 58.6827C107.175 58.6827 107.206 58.6555 107.226 58.6399C107.21 58.6244 107.191 58.5894 107.179 58.5933C107.105 58.6166 107.105 58.6516 107.175 58.6827Z" fill="#EF5730"/>
<path d="M67.983 58.772C67.983 58.772 67.9597 58.7409 67.9441 58.7292C67.9286 58.7448 67.9169 58.7565 67.9014 58.772C67.9208 58.7875 67.9402 58.7992 67.9597 58.8147C67.9674 58.8031 67.9713 58.7875 67.9791 58.7759L67.983 58.772Z" fill="#EF5730"/>
<path d="M108.127 58.7798C108.15 58.8303 108.185 58.842 108.212 58.807C108.22 58.7993 108.216 58.7798 108.216 58.7643C108.201 58.7565 108.185 58.741 108.174 58.741C108.154 58.7449 108.127 58.7721 108.127 58.7759V58.7798Z" fill="#EF5730"/>
<path d="M69.4717 59.0635C69.4911 59.1141 69.5222 59.1218 69.5494 59.0907C69.5572 59.083 69.5494 59.0635 69.5494 59.048C69.5377 59.0402 69.5222 59.0247 69.5105 59.0286C69.495 59.0363 69.4678 59.0597 69.4678 59.0635H69.4717Z" fill="#EF5730"/>
<path d="M70.7849 59.0364C70.7616 59.0519 70.7538 59.0947 70.7422 59.1296C70.7772 59.118 70.8199 59.1102 70.8355 59.0869C70.8627 59.0519 70.8238 59.0131 70.7849 59.0364Z" fill="#EF5730"/>
<path d="M70.742 59.1296C70.742 59.1296 70.7343 59.1296 70.7305 59.1335L70.7382 59.1412C70.7382 59.1412 70.7382 59.1335 70.742 59.1296Z" fill="#EF5730"/>
<path d="M71.177 59.1295C71.177 59.1295 71.1619 59.1295 71.1543 59.1295L71.1694 59.1447C71.1694 59.1447 71.1732 59.1333 71.177 59.1257V59.1295Z" fill="#EF5730"/>
<path d="M71.2632 59.044C71.2632 59.044 71.2244 59.0324 71.2205 59.0401C71.205 59.0673 71.1933 59.0984 71.1816 59.1295C71.2283 59.1256 71.2749 59.1179 71.2671 59.044H71.2632Z" fill="#EF5730"/>
<path d="M67.9369 59.5531C67.9952 59.5259 68.003 59.491 67.9641 59.4599C67.9525 59.4521 67.933 59.4599 67.9175 59.4599C67.9097 59.4754 67.8942 59.4948 67.8981 59.5065C67.9058 59.5259 67.933 59.557 67.9408 59.5531H67.9369Z" fill="#EF5730"/>
<path d="M65.0342 59.7708C65.0575 59.7863 65.0769 59.8019 65.1002 59.8174C65.108 59.8019 65.1158 59.7863 65.1236 59.7747C65.108 59.7591 65.0964 59.7436 65.0808 59.728C65.0653 59.7436 65.0497 59.7591 65.0342 59.7747V59.7708Z" fill="#EF5730"/>
<path d="M66.1025 59.9573C66.1258 59.9417 66.1297 59.899 66.1413 59.864C66.1064 59.8757 66.0636 59.8834 66.052 59.9106C66.0286 59.9495 66.0675 59.9845 66.1064 59.9573H66.1025Z" fill="#EF5730"/>
<path d="M66.1416 59.8639C66.1416 59.8639 66.1532 59.8639 66.1609 59.8562L66.1455 59.8446C66.1455 59.8446 66.1455 59.8562 66.1416 59.8639Z" fill="#EF5730"/>
<path d="M64.0511 60.0312C64.0511 60.0312 64.0278 60.0661 64.0317 60.0778C64.0395 60.0972 64.0667 60.1283 64.0705 60.1244C64.125 60.0972 64.1327 60.0623 64.0939 60.0312C64.0861 60.0234 64.0667 60.0312 64.0511 60.0312Z" fill="#EF5730"/>
<path d="M62.6244 60.1788C62.6244 60.1788 62.601 60.206 62.6049 60.2138C62.6127 60.2294 62.636 60.2566 62.6438 60.2566C62.6982 60.2371 62.706 60.206 62.671 60.1827C62.6593 60.1749 62.6399 60.1827 62.6282 60.1827L62.6244 60.1788Z" fill="#EF5730"/>
<path d="M58.7187 60.5635C58.7692 60.5596 58.8198 60.5519 58.8042 60.4741C58.8042 60.4702 58.7615 60.4625 58.7576 60.4702C58.742 60.5013 58.7304 60.5324 58.7148 60.5635H58.7187Z" fill="#EF5730"/>
<path d="M58.7108 60.5752C58.7108 60.5752 58.7147 60.5674 58.7186 60.5597C58.7108 60.5597 58.707 60.5597 58.6992 60.5597L58.7108 60.5713V60.5752Z" fill="#EF5730"/>
<path d="M118.156 60.7851C118.156 60.7851 118.183 60.8162 118.199 60.8356C118.215 60.82 118.23 60.8045 118.246 60.7928C118.222 60.7268 118.191 60.7268 118.156 60.789V60.7851Z" fill="#EF5730"/>
<path d="M60.487 60.9755C60.487 60.9755 60.522 60.9483 60.5376 60.9366C60.522 60.9172 60.5065 60.9016 60.4909 60.8822C60.4715 60.8977 60.456 60.9133 60.4365 60.9288C60.4521 60.9444 60.4676 60.9755 60.4832 60.9755H60.487Z" fill="#EF5730"/>
<path d="M58.9683 63.513C58.9683 63.513 58.9411 63.4781 58.9255 63.4625C58.91 63.4781 58.8828 63.4936 58.8789 63.5092C58.8789 63.5247 58.9061 63.5441 58.9178 63.5597C58.9333 63.5441 58.9489 63.5325 58.9683 63.5169V63.513Z" fill="#EF5730"/>
<path d="M59.5118 63.5364C59.5351 63.5208 59.5428 63.4781 59.5545 63.4431C59.5195 63.4548 59.4807 63.4625 59.4612 63.4859C59.434 63.5247 59.4729 63.5597 59.5118 63.5364Z" fill="#EF5730"/>
<path d="M59.5547 63.443C59.5547 63.443 59.5662 63.443 59.5701 63.4391L59.5585 63.4276C59.5585 63.4276 59.5585 63.4391 59.5547 63.443Z" fill="#EF5730"/>
<path d="M58.2646 66.1594C58.2646 66.1594 58.2762 66.1594 58.28 66.1594L58.2685 66.1478C58.2685 66.1478 58.2646 66.1555 58.2646 66.1594Z" fill="#EF5730"/>
<path d="M58.1786 66.2489C58.1786 66.2489 58.2214 66.2606 58.2253 66.2528C58.2408 66.2217 58.2525 66.1906 58.2641 66.1595C58.2136 66.1634 58.1631 66.1712 58.1786 66.2489Z" fill="#EF5730"/>
<path d="M59.2626 66.3068C59.2626 66.3068 59.2777 66.3068 59.2815 66.3068L59.2664 66.2916C59.2664 66.2916 59.2626 66.303 59.2588 66.3068H59.2626Z" fill="#EF5730"/>
<path d="M59.1776 66.3927C59.1776 66.3927 59.2203 66.4044 59.2242 66.3966C59.2398 66.3694 59.2514 66.3344 59.2631 66.3033C59.2126 66.3033 59.1659 66.315 59.1776 66.3888V66.3927Z" fill="#EF5730"/>
<path d="M116.478 69.4083C116.478 69.4083 116.505 69.3966 116.521 69.3927V69.35C116.494 69.3577 116.463 69.3616 116.436 69.3694C116.451 69.3811 116.463 69.4005 116.478 69.4083Z" fill="#EF5730"/>
<path d="M64.8355 69.9407C64.8355 69.9407 64.8083 69.9018 64.7967 69.8979C64.7811 69.8979 64.7656 69.9213 64.7539 69.9329C64.7733 69.9485 64.7967 69.9601 64.8161 69.9757C64.8239 69.964 64.8316 69.9485 64.8355 69.9368V69.9407Z" fill="#EF5730"/>
<path d="M68.8113 72.0547C68.7957 72.078 68.7802 72.0974 68.7646 72.1208C68.7802 72.1285 68.7919 72.1363 68.8074 72.1441C68.8229 72.1285 68.8385 72.1169 68.854 72.1013C68.8385 72.0858 68.8229 72.0702 68.8113 72.0547Z" fill="#EF5730"/>
<path d="M68.5664 72.2451C68.5664 72.2451 68.5314 72.1946 68.5197 72.1985C68.4459 72.2218 68.4459 72.2567 68.5159 72.2878C68.5236 72.2878 68.5508 72.2606 68.5664 72.2451Z" fill="#EF5730"/>
<path d="M69.4365 72.2994C69.4365 72.2994 69.4365 72.3146 69.4365 72.3184L69.4517 72.3032C69.4517 72.3032 69.4403 72.2994 69.4365 72.2957V72.2994Z" fill="#EF5730"/>
<path d="M69.3474 72.2102C69.3474 72.2102 69.3358 72.253 69.3397 72.2568C69.3707 72.2724 69.4018 72.284 69.4368 72.2996C69.4368 72.2491 69.4252 72.1985 69.3474 72.2141V72.2102Z" fill="#EF5730"/>
<path d="M68.3958 72.6415C68.3958 72.6415 68.3647 72.6415 68.3531 72.6376C68.3453 72.6492 68.3297 72.6687 68.3336 72.6764C68.3414 72.6959 68.3647 72.7231 68.3725 72.7192C68.4269 72.6959 68.4347 72.6687 68.3997 72.6415H68.3958Z" fill="#EF5730"/>
<path d="M115.452 73.1233C115.452 73.1233 115.479 73.135 115.491 73.1389C115.507 73.1272 115.522 73.1156 115.534 73.1C115.522 73.0884 115.507 73.0728 115.495 73.0612C115.479 73.0806 115.468 73.1 115.452 73.1233Z" fill="#EF5730"/>
<path d="M74.706 73.2245C74.706 73.2245 74.6749 73.2011 74.6632 73.205C74.6438 73.2089 74.6166 73.2361 74.6205 73.24C74.6438 73.2905 74.6749 73.2983 74.7021 73.2672C74.7099 73.2594 74.7021 73.24 74.7021 73.2245H74.706Z" fill="#EF5730"/>
<path d="M109.362 73.2206C109.362 73.2206 109.331 73.2012 109.323 73.2012C109.308 73.2089 109.277 73.2323 109.281 73.2361C109.304 73.2867 109.335 73.2944 109.362 73.2595C109.37 73.2517 109.362 73.2323 109.362 73.2167V73.2206Z" fill="#EF5730"/>
<path d="M61.1903 73.7841C61.1903 73.7841 61.1709 73.8151 61.1709 73.8229C61.1748 73.8385 61.1942 73.854 61.2059 73.8696C61.2136 73.8423 61.2214 73.8151 61.2292 73.7879C61.2136 73.7879 61.202 73.7879 61.1864 73.7879L61.1903 73.7841Z" fill="#EF5730"/>
<path d="M61.9099 64.7604C61.8866 64.776 61.8788 64.8187 61.8633 64.8537C61.8983 64.842 61.941 64.8343 61.9565 64.811C61.9838 64.7721 61.9449 64.7371 61.906 64.7604H61.9099Z" fill="#EF5730"/>
<path d="M61.8631 64.8691C61.8631 64.8691 61.8631 64.8576 61.8669 64.8538C61.8631 64.8538 61.8554 64.8538 61.8516 64.8576L61.8631 64.8691Z" fill="#EF5730"/>
<path d="M65.3565 64.7527C65.3565 64.7527 65.3098 64.7838 65.3137 64.7915C65.337 64.846 65.3642 64.8537 65.3914 64.8187C65.3992 64.8071 65.3914 64.7877 65.3914 64.776C65.3798 64.7682 65.3603 64.7527 65.3526 64.7566L65.3565 64.7527Z" fill="#EF5730"/>
</g>
<path d="M70.6598 64.3043V62.9168H72.3093V64.3043H70.6598ZM70.6598 70V65.0806H72.3093V70H70.6598ZM73.558 70V64.9544H75.091L75.1104 65.5463H75.1299C75.3433 65.307 75.5827 65.1323 75.8479 65.0224C76.1131 64.9124 76.4204 64.8574 76.7697 64.8574C77.3648 64.8574 77.8014 65.0224 78.0796 65.3523C78.3642 65.6757 78.5065 66.19 78.5065 66.895V70H76.8861V67.2152C76.8861 66.853 76.8279 66.591 76.7114 66.4293C76.595 66.2676 76.4074 66.1867 76.1487 66.1867C75.9611 66.1867 75.7929 66.2255 75.6441 66.3032C75.4953 66.3743 75.3789 66.4746 75.2948 66.6039C75.2107 66.7333 75.1687 66.8853 75.1687 67.06V70H73.558ZM85.1113 70.097C84.141 70.097 83.4068 69.8771 82.9087 69.4372C82.4171 68.9974 82.1713 68.3537 82.1713 67.5063V62.9168H83.8208V67.1861C83.8208 67.736 83.9178 68.1209 84.1119 68.3408C84.3059 68.5607 84.6391 68.6707 85.1113 68.6707C85.5835 68.6707 85.9166 68.5607 86.1107 68.3408C86.3048 68.1209 86.4018 67.736 86.4018 67.1861V62.9168H88.0513V67.5063C88.0513 68.3537 87.8023 68.9974 87.3042 69.4372C86.8125 69.8771 86.0816 70.097 85.1113 70.097ZM91.0541 70V64.3432H88.9097V62.9168H94.8965V64.3432H92.7521V70H91.0541ZM94.3825 70L96.7015 62.9168H98.9332L101.243 70H99.4281L97.8271 64.3237H97.8077L96.197 70H94.3825ZM95.8962 68.5348V67.1473H99.7289V68.5348H95.8962ZM106.091 70V62.9168H107.74V70H106.091ZM101.977 70V62.9168H103.626V70H101.977ZM102.801 67.0503V65.6239H106.915V67.0503H102.801Z" fill="white"/>
</g>
<defs>
<clipPath id="clip0_4017_41569">
<rect width="64" height="18.0042" fill="white" transform="translate(58 57)"/>
</clipPath>
</defs>
</svg>
