<svg width="16" height="16" viewBox="0 0 16 16" fill="none" xmlns="http://www.w3.org/2000/svg">
<path d="M6.27068 7.46371C6.27068 7.46371 6.14842 7.34145 5.9039 7.09693C5.65937 6.8524 5.53711 6.38455 5.53711 5.69337C5.53711 5.00218 5.78164 4.41207 6.27068 3.92302C6.75973 3.43398 7.34984 3.18946 8.04102 3.18946C8.73221 3.18946 9.32232 3.43398 9.81137 3.92302C10.3004 4.41207 10.5449 5.00218 10.5449 5.69337C10.5449 6.38455 10.3004 6.97467 9.81137 7.46371C9.32232 7.95275 8.73221 8.19728 8.04102 8.19728C7.34984 8.19728 6.75973 7.95275 6.27068 7.46371ZM3.0332 5.69337C3.0332 6.40411 3.14079 6.98771 3.35597 7.44415L6.91622 15.0146C7.02055 15.2297 7.17541 15.3993 7.38081 15.5232C7.58621 15.6471 7.80628 15.709 8.04102 15.709C8.27577 15.709 8.49584 15.6471 8.70123 15.5232C8.90663 15.3993 9.05824 15.2297 9.15605 15.0146L12.7261 7.44415C12.9413 6.98771 13.0488 6.40411 13.0488 5.69337C13.0488 4.311 12.5598 3.13077 11.5817 2.15268C10.6036 1.17459 9.42339 0.685547 8.04102 0.685547C6.65866 0.685547 5.47843 1.17459 4.50034 2.15268C3.52225 3.13077 3.0332 4.311 3.0332 5.69337Z" fill="#EF5730"/>
</svg>
